<svg xmlns="http://www.w3.org/2000/svg" viewBox="0 0 221.58 72.31"><defs><style>.cls-1{fill:#1aa6e0;}.cls-1,.cls-2,.cls-3,.cls-4{fill-rule:evenodd;}.cls-2,.cls-3{fill:none;stroke:#1b215d;stroke-linecap:round;stroke-linejoin:round;}.cls-2{stroke-width:2.33px;}.cls-3{stroke-width:2.33px;}.cls-4,.cls-5{fill:#fff;}</style></defs><g id="Слой_2" data-name="Слой 2"><g id="Слой_1-2" data-name="Слой 1"><path class="cls-1" d="M185.43,71.14H36.15a35,35,0,0,1-35-35h0a35,35,0,0,1,35-35H185.43a35,35,0,0,1,35,35h0A35,35,0,0,1,185.43,71.14Z"/><path class="cls-2" d="M153.3,71.14H36.15a35,35,0,0,1-35-35h0A35,35,0,0,1,24.81,3.05"/><path class="cls-3" d="M36.15,1.17H185.43a35,35,0,0,1,35,35h0a35,35,0,0,1-35,35"/><path class="cls-4" d="M71.16,38.23v.2c.81.13,1.45.26,1.93.38a4,4,0,0,1,1.4.71,4.86,4.86,0,0,1,1.05,1.09,9.84,9.84,0,0,1,.88,1.85c.32.85.61,1.72.85,2.6s.6,2.13,1,3.75c.18.69.33,1.23.44,1.61H71.13Q69,43.13,68.68,42.36c-.36-.9-.8-1.41-1.31-1.55a2.92,2.92,0,0,0-.68-.06h-.77a9.45,9.45,0,0,1,.27,2.11v7.56H59.24V42.86a10.29,10.29,0,0,1,.3-2.11h-.81a1.56,1.56,0,0,0-1.25.47A5.68,5.68,0,0,0,56.59,43q-.48,1.29-1.45,4.65c-.33,1.17-.6,2.09-.8,2.79H46.71q1.92-7,2.52-8.43a5.22,5.22,0,0,1,2.38-2.86,9.63,9.63,0,0,1,2.69-.7v-.2c-.54-.07-1-.15-1.38-.24a4.11,4.11,0,0,1-1.07-.42L51,37.09a2.44,2.44,0,0,1-.69-.81c-.25-.4-.43-.73-.56-1a14.05,14.05,0,0,1-.52-1.42c-.22-.69-.39-1.26-.52-1.71s-.33-1.2-.62-2.25l-.74-2.68h7.39q1.78,6.38,2.08,7.12c.38,1,.87,1.51,1.45,1.64a3.18,3.18,0,0,0,.47,0h.84a12.06,12.06,0,0,1-.34-2.95V27.25h6.92v5.84a14.77,14.77,0,0,1-.3,2.95h.74a1.77,1.77,0,0,0,1.68-1A39.64,39.64,0,0,0,70,29.76c.29-1.05.52-1.89.7-2.51h7.39l-.74,2.68c-.29,1.05-.5,1.8-.62,2.25s-.3,1-.52,1.71a14.05,14.05,0,0,1-.52,1.42c-.13.24-.31.57-.56,1a2.55,2.55,0,0,1-.68.81l-.83.48a4,4,0,0,1-1.07.42A13.79,13.79,0,0,1,71.16,38.23Z"/><rect class="cls-5" x="80.9" y="27.25" width="7.22" height="23.17"/><path class="cls-4" d="M99.2,36.21h2.32c3.63,0,6.14.51,7.52,1.51s2.09,2.89,2.09,5.65-.68,4.66-2,5.72-3.55,1.6-6.62,1.6q-6.78,0-10.37-.27h-.2V27.25c2.62-.18,5.49-.27,8.63-.27q4.29,0,8.93.27l-.54,5.2H99.2v3.76Z"/><path class="cls-4" d="M99.2,45.65h2.32a2.55,2.55,0,0,0,1.88-.49,3.23,3.23,0,0,0,.44-2,3.23,3.23,0,0,0-.44-2,2.55,2.55,0,0,0-1.88-.49H99.2Z"/><path class="cls-4" d="M130.6,45l.34,5.14a110.93,110.93,0,0,1-12.06.43A5.4,5.4,0,0,1,115,49.09a5,5,0,0,1-1.53-3.81V32.38A5,5,0,0,1,115,28.57a5.44,5.44,0,0,1,3.91-1.46,110.16,110.16,0,0,1,12.06.44l-.34,5.14h-8.49a1.46,1.46,0,0,0-1,.33,1.13,1.13,0,0,0-.37.87v2.25h8.67V41h-8.67v2.79a1.1,1.1,0,0,0,.37.87,1.42,1.42,0,0,0,1,.34Z"/><path class="cls-4" d="M133.76,50.42V27.25q3.42-.34,9.81-.34c3.69,0,6.22.55,7.57,1.64s2,3.18,2,6.25-.62,5.08-1.88,6.18-3.49,1.65-6.71,1.65a31.17,31.17,0,0,1-3.53-.2v8Z"/><path class="cls-4" d="M141.05,37.49h2.35a2.69,2.69,0,0,0,2-.54,3.23,3.23,0,0,0,.51-2.15,3.38,3.38,0,0,0-.51-2.2,2.65,2.65,0,0,0-2-.55h-2.35Z"/><path class="cls-4" d="M174.87,27.25l-5,16.89a13.13,13.13,0,0,1-2.35,5,6,6,0,0,1-4,1.78,29,29,0,0,1-7.15-.47l.77-5a27.45,27.45,0,0,0,3.91,0c.84-.09,1.35-.41,1.53-.94l.13-.54h-1.37a3.24,3.24,0,0,1-2.35-.81,5.06,5.06,0,0,1-1.28-2.35l-4.16-13.56h7.45l2.62,11.25c0,.24.22.37.54.37h.3l3-11.62Z"/></g></g></svg>