<svg xmlns="http://www.w3.org/2000/svg" viewBox="0 0 485.89 177"><defs><style>.cls-1,.cls-4,.cls-7{fill:none;stroke-linecap:round;stroke-linejoin:round;}.cls-1{stroke:#fff;}.cls-1,.cls-4{stroke-width:4px;}.cls-1,.cls-2,.cls-3,.cls-4,.cls-5,.cls-6,.cls-7{fill-rule:evenodd;}.cls-2{fill:#1b215d;}.cls-3{fill:#f8aa00;}.cls-4,.cls-7{stroke:#1b215d;}.cls-5{fill:#fff;}.cls-6{fill:#d0005a;}.cls-7{stroke-width:2.16px;}</style></defs><g id="Слой_2" data-name="Слой 2"><g id="Слой_1-2" data-name="Слой 1"><polygon class="cls-1" points="21.75 32.25 16.4 20.11 11 32.25 2 32.25 9.16 17.52 2.59 3.37 11.54 3.37 16.4 14.79 21.21 3.37 30.17 3.37 23.59 17.52 30.75 32.25 21.75 32.25"/><path class="cls-1" d="M42.64,10.74q6.4,0,9,2.49c1.75,1.66,2.63,4.52,2.63,8.6s-.88,6.84-2.63,8.47-4.77,2.45-9,2.45-7.33-.82-9.08-2.45-2.64-4.46-2.64-8.47.88-6.94,2.64-8.6,4.78-2.49,9.08-2.49Zm0,5.94a2,2,0,0,0-2,1,11.39,11.39,0,0,0-.48,4.19,10.61,10.61,0,0,0,.48,4,2,2,0,0,0,2,.95,2,2,0,0,0,2-.95,10.61,10.61,0,0,0,.48-4,11.39,11.39,0,0,0-.48-4.19A2,2,0,0,0,42.64,16.68Z"/><path class="cls-1" d="M78.8,11.32V32.25H70.05V25.3a18.58,18.58,0,0,1-6.15,1.05q-3.74,0-5.46-1.2a4.25,4.25,0,0,1-1.74-3.78v-10h8.75v7.49c0,.84.48,1.26,1.46,1.26a8.82,8.82,0,0,0,3.14-.59V11.32Z"/><path class="cls-1" d="M96.42,23.71H91.18a2.63,2.63,0,0,0,1,1.8,4.67,4.67,0,0,0,2.45.5,80.69,80.69,0,0,0,8.49-.46l.8,5.27q-3.81,1.93-10.26,1.93c-4.26,0-7.32-.89-9.16-2.66S81.77,25.61,81.77,22q0-6.15,2.68-8.68t9.2-2.53q5.77,0,8.31,1.84a6.54,6.54,0,0,1,2.57,5.61,4.72,4.72,0,0,1-1.77,4.24q-1.83,1.28-6.34,1.28ZM91,19.57H94a3.58,3.58,0,0,0,1.8-.28c.25-.18.37-.62.37-1.31a1.42,1.42,0,0,0-.48-1.28,3.41,3.41,0,0,0-1.74-.31,3,3,0,0,0-2.23.54A4.3,4.3,0,0,0,91,19.57Z"/><polygon class="cls-1" points="139.9 11.32 139.9 32.25 107.34 32.25 107.34 11.32 115.79 11.32 115.79 26.56 119.77 26.56 119.77 11.32 127.47 11.32 127.47 26.56 131.44 26.56 131.44 11.32 139.9 11.32"/><path class="cls-1" d="M152.16,17.89h1.63c4.19,0,7.05.5,8.6,1.51s2.33,2.93,2.33,5.77-.74,4.68-2.2,5.74-3.87,1.59-7.22,1.59c-4.88,0-8.65-.09-11.3-.25h-.25V11.32h8.41v6.57Zm0,9h1.63a2.72,2.72,0,0,0,1.74-.38,2.44,2.44,0,0,0,.4-1.67,2.54,2.54,0,0,0-.4-1.72,2.73,2.73,0,0,0-1.74-.37h-1.63Z"/><polygon class="cls-2" points="21.75 32.25 16.4 20.11 11 32.25 2 32.25 9.16 17.52 2.59 3.37 11.54 3.37 16.4 14.79 21.21 3.37 30.17 3.37 23.59 17.52 30.75 32.25 21.75 32.25"/><path class="cls-2" d="M42.64,10.74q6.4,0,9,2.49c1.75,1.66,2.63,4.52,2.63,8.6s-.88,6.84-2.63,8.47-4.77,2.45-9,2.45-7.33-.82-9.08-2.45-2.64-4.46-2.64-8.47.88-6.94,2.64-8.6,4.78-2.49,9.08-2.49Zm0,5.94a2,2,0,0,0-2,1,11.39,11.39,0,0,0-.48,4.19,10.61,10.61,0,0,0,.48,4,2,2,0,0,0,2,.95,2,2,0,0,0,2-.95,10.61,10.61,0,0,0,.48-4,11.39,11.39,0,0,0-.48-4.19A2,2,0,0,0,42.64,16.68Z"/><path class="cls-2" d="M78.8,11.32V32.25H70.05V25.3a18.58,18.58,0,0,1-6.15,1.05q-3.74,0-5.46-1.2a4.25,4.25,0,0,1-1.74-3.78v-10h8.75v7.49c0,.84.48,1.26,1.46,1.26a8.82,8.82,0,0,0,3.14-.59V11.32Z"/><path class="cls-2" d="M96.42,23.71H91.18a2.63,2.63,0,0,0,1,1.8,4.67,4.67,0,0,0,2.45.5,80.69,80.69,0,0,0,8.49-.46l.8,5.27q-3.81,1.93-10.26,1.93c-4.26,0-7.32-.89-9.16-2.66S81.77,25.61,81.77,22q0-6.15,2.68-8.68t9.2-2.53q5.77,0,8.31,1.84a6.54,6.54,0,0,1,2.57,5.61,4.72,4.72,0,0,1-1.77,4.24q-1.83,1.28-6.34,1.28ZM91,19.57H94a3.58,3.58,0,0,0,1.8-.28c.25-.18.37-.62.37-1.31a1.42,1.42,0,0,0-.48-1.28,3.41,3.41,0,0,0-1.74-.31,3,3,0,0,0-2.23.54A4.3,4.3,0,0,0,91,19.57Z"/><polygon class="cls-2" points="139.9 11.32 139.9 32.25 107.34 32.25 107.34 11.32 115.79 11.32 115.79 26.56 119.77 26.56 119.77 11.32 127.47 11.32 127.47 26.56 131.44 26.56 131.44 11.32 139.9 11.32"/><path class="cls-2" d="M152.16,17.89h1.63c4.19,0,7.05.5,8.6,1.51s2.33,2.93,2.33,5.77-.74,4.68-2.2,5.74-3.87,1.59-7.22,1.59c-4.88,0-8.65-.09-11.3-.25h-.25V11.32h8.41v6.57Zm0,9h1.63a2.72,2.72,0,0,0,1.74-.38,2.44,2.44,0,0,0,.4-1.67,2.54,2.54,0,0,0-.4-1.72,2.73,2.73,0,0,0-1.74-.37h-1.63Z"/><polygon class="cls-1" points="123.85 42.96 123.85 74.18 114.03 74.18 114.03 49.38 106.34 49.38 106.34 74.18 96.52 74.18 96.52 42.96 123.85 42.96"/><path class="cls-1" d="M142.4,42.33A21.53,21.53,0,0,1,151,43.71a8.71,8.71,0,0,1,4.5,4.88q1.46,3.51,1.45,10t-1.45,10a8.68,8.68,0,0,1-4.5,4.88,21.53,21.53,0,0,1-8.62,1.38,21.33,21.33,0,0,1-8.57-1.38,8.73,8.73,0,0,1-4.51-4.88q-1.44-3.51-1.44-10t1.44-10a8.76,8.76,0,0,1,4.51-4.88,21.33,21.33,0,0,1,8.57-1.38Zm3.37,9.07a4.07,4.07,0,0,0-6.74,0q-.84,1.79-.84,7.17t.84,7.17a4.07,4.07,0,0,0,6.74,0q.84-1.78.84-7.17T145.77,51.4Z"/><polygon class="cls-1" points="188.33 42.96 188.33 74.18 178.51 74.18 178.51 49.38 170.82 49.38 170.82 74.18 161 74.18 161 42.96 188.33 42.96"/><path class="cls-1" d="M193.44,74.18V43q4.62-.45,13.21-.45,7.47,0,10.21,2.21t2.73,8.42q0,6.11-2.53,8.33T208,63.68a40.85,40.85,0,0,1-4.75-.27V74.18Zm9.82-17.42h3.17A3.71,3.71,0,0,0,209.1,56a4.44,4.44,0,0,0,.68-2.9,4.58,4.58,0,0,0-.68-3,3.61,3.61,0,0,0-2.67-.75h-3.17Z"/><path class="cls-1" d="M236.29,42.33a21.53,21.53,0,0,1,8.62,1.38,8.71,8.71,0,0,1,4.5,4.88q1.46,3.51,1.45,10t-1.45,10a8.68,8.68,0,0,1-4.5,4.88,27.46,27.46,0,0,1-17.19,0,8.73,8.73,0,0,1-4.51-4.88q-1.44-3.51-1.44-10t1.44-10a8.76,8.76,0,0,1,4.51-4.88,21.33,21.33,0,0,1,8.57-1.38Zm3.37,9.07a4.07,4.07,0,0,0-6.74,0q-.84,1.79-.84,7.17t.84,7.17a4.07,4.07,0,0,0,6.74,0q.84-1.78.84-7.17T239.66,51.4Z"/><path class="cls-1" d="M264.66,55h3.12q7.34,0,10.14,2c1.87,1.35,2.8,3.89,2.8,7.6s-.9,6.28-2.71,7.71-4.78,2.15-8.91,2.15q-9.15,0-14-.36h-.27V43q5.29-.36,11.63-.36,5.79,0,12,.36l-.73,7H264.66V55Zm0,12.72h3.12a3.49,3.49,0,0,0,2.54-.66,4.41,4.41,0,0,0,.58-2.74,4.41,4.41,0,0,0-.58-2.74,3.54,3.54,0,0,0-2.54-.65h-3.12Z"/><path class="cls-1" d="M297.6,42.33a21.5,21.5,0,0,1,8.62,1.38,8.71,8.71,0,0,1,4.5,4.88q1.45,3.51,1.45,10t-1.45,10a8.68,8.68,0,0,1-4.5,4.88,27.46,27.46,0,0,1-17.19,0,8.73,8.73,0,0,1-4.51-4.88q-1.44-3.51-1.44-10t1.44-10A8.76,8.76,0,0,1,289,43.71a21.33,21.33,0,0,1,8.57-1.38ZM301,51.4a4.07,4.07,0,0,0-6.74,0q-.84,1.79-.84,7.17t.84,7.17a4.07,4.07,0,0,0,6.74,0q.84-1.78.84-7.17T301,51.4Z"/><path class="cls-1" d="M335.7,57.85v.27q3.62.32,5.18,2.35a9.62,9.62,0,0,1,1.56,5.93q0,4.66-2.6,6.4c-1.73,1.16-4.64,1.74-8.71,1.74q-9.92,0-15-.36V43q4.62-.36,13.49-.36,6.64,0,9.2,1.69c1.71,1.14,2.56,3.28,2.56,6.45a8.28,8.28,0,0,1-1.33,5.12,5.93,5.93,0,0,1-4.37,2Zm-9.95-2.72h3.48a3.08,3.08,0,0,0,2.26-.59,3.71,3.71,0,0,0,.54-2.39,3.4,3.4,0,0,0-.56-2.36,3.53,3.53,0,0,0-2.33-.54h-3.39v5.88Zm0,12.76h3.62a3.73,3.73,0,0,0,2.66-.68,4.26,4.26,0,0,0,.64-2.8,4.36,4.36,0,0,0-.64-2.85c-.42-.46-1.32-.68-2.71-.68h-3.57Z"/><path class="cls-1" d="M363.39,67.44h-8.55l-1.58,6.74h-10l8.1-28.69a3.39,3.39,0,0,1,1.22-1.83,3.27,3.27,0,0,1,2.08-.7h8.91a3.27,3.27,0,0,1,2.08.7,3.47,3.47,0,0,1,1.23,1.83L375,74.18H365l-1.59-6.74Zm-1.58-6.88-1.54-6.7q-.4-2.11-.54-3.57H358.5q-.27,2.13-.54,3.57l-1.54,6.7Z"/><polygon class="cls-1" points="399.77 50.29 391.04 50.29 391.04 74.18 381.22 74.18 381.22 50.29 372.49 50.29 372.49 42.96 399.77 42.96 399.77 50.29"/><path class="cls-1" d="M412.62,53.68h2.76q7.2,0,9.91,2.2T428,64.09q0,5.93-2.52,8.19t-8.34,2.26q-9.33,0-14.08-.36h-.27V43h9.82V53.68Zm0,14.08h2.76c1.18,0,1.94-.26,2.29-.77a6.74,6.74,0,0,0,.52-3.26,7,7,0,0,0-.52-3.3c-.35-.55-1.11-.82-2.29-.82h-2.76Z"/><polygon class="cls-2" points="123.85 42.96 123.85 74.18 114.03 74.18 114.03 49.38 106.34 49.38 106.34 74.18 96.52 74.18 96.52 42.96 123.85 42.96"/><path class="cls-2" d="M142.4,42.33A21.53,21.53,0,0,1,151,43.71a8.71,8.71,0,0,1,4.5,4.88q1.46,3.51,1.45,10t-1.45,10a8.68,8.68,0,0,1-4.5,4.88,21.53,21.53,0,0,1-8.62,1.38,21.33,21.33,0,0,1-8.57-1.38,8.73,8.73,0,0,1-4.51-4.88q-1.44-3.51-1.44-10t1.44-10a8.76,8.76,0,0,1,4.51-4.88,21.33,21.33,0,0,1,8.57-1.38Zm3.37,9.07a4.07,4.07,0,0,0-6.74,0q-.84,1.79-.84,7.17t.84,7.17a4.07,4.07,0,0,0,6.74,0q.84-1.78.84-7.17T145.77,51.4Z"/><polygon class="cls-2" points="188.33 42.96 188.33 74.18 178.51 74.18 178.51 49.38 170.82 49.38 170.82 74.18 161 74.18 161 42.96 188.33 42.96"/><path class="cls-2" d="M193.44,74.18V43q4.62-.45,13.21-.45,7.47,0,10.21,2.21t2.73,8.42q0,6.11-2.53,8.33T208,63.68a40.85,40.85,0,0,1-4.75-.27V74.18Zm9.82-17.42h3.17A3.71,3.71,0,0,0,209.1,56a4.44,4.44,0,0,0,.68-2.9,4.58,4.58,0,0,0-.68-3,3.61,3.61,0,0,0-2.67-.75h-3.17Z"/><path class="cls-2" d="M236.29,42.33a21.53,21.53,0,0,1,8.62,1.38,8.71,8.71,0,0,1,4.5,4.88q1.46,3.51,1.45,10t-1.45,10a8.68,8.68,0,0,1-4.5,4.88,27.46,27.46,0,0,1-17.19,0,8.73,8.73,0,0,1-4.51-4.88q-1.44-3.51-1.44-10t1.44-10a8.76,8.76,0,0,1,4.51-4.88,21.33,21.33,0,0,1,8.57-1.38Zm3.37,9.07a4.07,4.07,0,0,0-6.74,0q-.84,1.79-.84,7.17t.84,7.17a4.07,4.07,0,0,0,6.74,0q.84-1.78.84-7.17T239.66,51.4Z"/><path class="cls-2" d="M264.66,55h3.12q7.34,0,10.14,2c1.87,1.35,2.8,3.89,2.8,7.6s-.9,6.28-2.71,7.71-4.78,2.15-8.91,2.15q-9.15,0-14-.36h-.27V43q5.29-.36,11.63-.36,5.79,0,12,.36l-.73,7H264.66V55Zm0,12.72h3.12a3.49,3.49,0,0,0,2.54-.66,4.41,4.41,0,0,0,.58-2.74,4.41,4.41,0,0,0-.58-2.74,3.54,3.54,0,0,0-2.54-.65h-3.12Z"/><path class="cls-2" d="M297.6,42.33a21.5,21.5,0,0,1,8.62,1.38,8.71,8.71,0,0,1,4.5,4.88q1.45,3.51,1.45,10t-1.45,10a8.68,8.68,0,0,1-4.5,4.88,27.46,27.46,0,0,1-17.19,0,8.73,8.73,0,0,1-4.51-4.88q-1.44-3.51-1.44-10t1.44-10A8.76,8.76,0,0,1,289,43.71a21.33,21.33,0,0,1,8.57-1.38ZM301,51.4a4.07,4.07,0,0,0-6.74,0q-.84,1.79-.84,7.17t.84,7.17a4.07,4.07,0,0,0,6.74,0q.84-1.78.84-7.17T301,51.4Z"/><path class="cls-2" d="M335.7,57.85v.27q3.62.32,5.18,2.35a9.62,9.62,0,0,1,1.56,5.93q0,4.66-2.6,6.4c-1.73,1.16-4.64,1.74-8.71,1.74q-9.92,0-15-.36V43q4.62-.36,13.49-.36,6.64,0,9.2,1.69c1.71,1.14,2.56,3.28,2.56,6.45a8.28,8.28,0,0,1-1.33,5.12,5.93,5.93,0,0,1-4.37,2Zm-9.95-2.72h3.48a3.08,3.08,0,0,0,2.26-.59,3.71,3.71,0,0,0,.54-2.39,3.4,3.4,0,0,0-.56-2.36,3.53,3.53,0,0,0-2.33-.54h-3.39v5.88Zm0,12.76h3.62a3.73,3.73,0,0,0,2.66-.68,4.26,4.26,0,0,0,.64-2.8,4.36,4.36,0,0,0-.64-2.85c-.42-.46-1.32-.68-2.71-.68h-3.57Z"/><path class="cls-2" d="M363.39,67.44h-8.55l-1.58,6.74h-10l8.1-28.69a3.39,3.39,0,0,1,1.22-1.83,3.27,3.27,0,0,1,2.08-.7h8.91a3.27,3.27,0,0,1,2.08.7,3.47,3.47,0,0,1,1.23,1.83L375,74.18H365l-1.59-6.74Zm-1.58-6.88-1.54-6.7q-.4-2.11-.54-3.57H358.5q-.27,2.13-.54,3.57l-1.54,6.7Z"/><polygon class="cls-2" points="399.77 50.29 391.04 50.29 391.04 74.18 381.22 74.18 381.22 50.29 372.49 50.29 372.49 42.96 399.77 42.96 399.77 50.29"/><path class="cls-2" d="M412.62,53.68h2.76q7.2,0,9.91,2.2T428,64.09q0,5.93-2.52,8.19t-8.34,2.26q-9.33,0-14.08-.36h-.27V43h9.82V53.68Zm0,14.08h2.76c1.18,0,1.94-.26,2.29-.77a6.74,6.74,0,0,0,.52-3.26,7,7,0,0,0-.52-3.3c-.35-.55-1.11-.82-2.29-.82h-2.76Z"/><path class="cls-1" d="M97.5,112l-.7-6.47a50,50,0,0,1,11-1q6.21,0,8.59,1.64c1.59,1.1,2.38,3.17,2.38,6.23a8.29,8.29,0,0,1-1.22,5,5.37,5.37,0,0,1-4,1.91v.26a6.26,6.26,0,0,1,4.76,2.27,9.61,9.61,0,0,1,1.44,5.73c0,3-.8,5.06-2.42,6.18s-4.32,1.69-8.11,1.69a42.65,42.65,0,0,1-12.9-1.66l.7-6.17a68.29,68.29,0,0,0,10.32,1,3,3,0,0,0,2.16-.59,3.65,3.65,0,0,0,.55-2.39,3.83,3.83,0,0,0-.55-2.47,3.16,3.16,0,0,0-2.2-.63l-6.65-.13v-5.9l6.56-.13a2.46,2.46,0,0,0,1.79-.55,3.27,3.27,0,0,0,.44-2,3,3,0,0,0-.46-1.93,2.55,2.55,0,0,0-1.82-.48A86.77,86.77,0,0,0,97.5,112Z"/><path class="cls-1" d="M140.12,128.56h-8.26l-1.53,6.52h-9.66l7.83-27.72a3.23,3.23,0,0,1,1.18-1.77,3.19,3.19,0,0,1,2-.68h8.61a3.19,3.19,0,0,1,2,.68,3.29,3.29,0,0,1,1.18,1.77l7.83,27.72h-9.67l-1.53-6.52Zm-1.53-6.64-1.48-6.47c-.26-1.37-.44-2.52-.53-3.45H135.4c-.17,1.37-.35,2.52-.52,3.45l-1.49,6.47Z"/><polygon class="cls-1" points="179.82 104.91 179.82 135.08 170.33 135.08 170.33 111.12 162.9 111.12 162.9 135.08 153.41 135.08 153.41 104.91 179.82 104.91"/><path class="cls-1" d="M197.74,104.3a20.79,20.79,0,0,1,8.33,1.34,8.45,8.45,0,0,1,4.35,4.72q1.4,3.39,1.39,9.64c0,4.16-.46,7.38-1.39,9.63a8.51,8.51,0,0,1-4.35,4.73,21,21,0,0,1-8.33,1.33,20.75,20.75,0,0,1-8.28-1.33,8.44,8.44,0,0,1-4.35-4.73c-.94-2.25-1.4-5.47-1.4-9.63s.46-7.38,1.4-9.64a8.39,8.39,0,0,1,4.35-4.72,20.56,20.56,0,0,1,8.28-1.34Zm3.26,8.77a3.94,3.94,0,0,0-6.52,0q-.81,1.73-.81,6.93t.81,6.92a3.94,3.94,0,0,0,6.52,0q.8-1.73.8-6.92T201,113.07Z"/><path class="cls-1" d="M241.41,104.91v30.17h-9.49v-24h-1.83c-1.46,0-2.23.67-2.32,2q-.78,10.45-2.1,14.78c-1,3.32-2.48,5.52-4.54,6.6a12.07,12.07,0,0,1-7.79.79l-.65-7.35a15.62,15.62,0,0,0,1.9-.3,3.71,3.71,0,0,0,1.36-.73,3.3,3.3,0,0,0,1-1.55q1.18-3.5,1.84-12.89.48-7.56,7.95-7.57Z"/><polygon class="cls-1" points="272.97 104.91 272.97 135.08 263.49 135.08 263.49 122.4 255.88 122.4 255.88 135.08 246.39 135.08 246.39 104.91 255.88 104.91 255.88 115.75 263.49 115.75 263.49 104.91 272.97 104.91"/><path class="cls-1" d="M305.06,135.08h-9V121.22a29.86,29.86,0,0,1,.48-4.68h-.3a25.34,25.34,0,0,1-1.84,4.64L287,135.08H278V104.91h9v13.38a33.36,33.36,0,0,1-.48,4.9h.3a26.77,26.77,0,0,1,1.93-4.64l7.34-13.64h9Z"/><path class="cls-1" d="M340.64,103v3.63q7.61.52,10.67,3.39t3.06,9.55q0,6.42-3.06,9.2t-10.67,3.3v3.63h-9.49v-3.63q-7.61-.48-10.66-3.28t-3.06-9.22q0-6.69,3.06-9.55t10.66-3.39V103Zm-9.05,22.43V113.26c-1.92.21-3.18.74-3.78,1.6s-.9,2.43-.9,4.7q0,3.15.9,4.35c.6.8,1.86,1.3,3.78,1.51Zm8.61-12.16v12.16c1.93-.21,3.19-.71,3.78-1.51s.9-2.25.9-4.35c0-2.25-.3-3.8-.9-4.68S342.13,113.47,340.2,113.26Z"/><path class="cls-1" d="M370.5,104.3a20.7,20.7,0,0,1,8.32,1.34,8.39,8.39,0,0,1,4.35,4.72c.94,2.26,1.4,5.47,1.4,9.64s-.46,7.38-1.4,9.63a8.44,8.44,0,0,1-4.35,4.73,26.59,26.59,0,0,1-16.61,0,8.51,8.51,0,0,1-4.35-4.73,26.16,26.16,0,0,1-1.4-9.63,26.22,26.22,0,0,1,1.4-9.64,8.45,8.45,0,0,1,4.35-4.72,20.64,20.64,0,0,1,8.29-1.34Zm3.25,8.77a3.93,3.93,0,0,0-6.51,0q-.81,1.73-.81,6.93t.81,6.92a3.93,3.93,0,0,0,6.51,0q.81-1.73.81-6.92T373.75,113.07Z"/><path class="cls-1" d="M388.42,135.08V104.91q4.45-.43,12.76-.43,7.21,0,9.86,2.14c1.76,1.43,2.65,4.14,2.65,8.13s-.82,6.62-2.45,8-4.55,2.15-8.75,2.15a38.25,38.25,0,0,1-4.59-.27v10.41Zm9.48-16.83H401a3.55,3.55,0,0,0,2.58-.7,4.24,4.24,0,0,0,.66-2.8,4.4,4.4,0,0,0-.66-2.86,3.46,3.46,0,0,0-2.58-.72H397.9Z"/><path class="cls-1" d="M441.71,104.91h8.35c2.12,0,3.23,1.1,3.32,3.28l1.05,26.89H445.9L445,112h-.65l-3,15.38q-.48,2.9-3.59,2.89h-4.89a3.26,3.26,0,0,1-3.63-2.89l-3-15.38h-.65l-.75,23.08h-8.52l1.05-26.89c.08-2.18,1.19-3.28,3.32-3.28h8.17a3.26,3.26,0,0,1,3.59,2.93l2.18,12q.22,1.4.48,4.5h.4c0-.08.06-.71.2-1.88s.24-2,.32-2.62l2.06-12A3.28,3.28,0,0,1,441.71,104.91Z"/><path class="cls-1" d="M483.89,104.91l-6.56,22a17,17,0,0,1-3.06,6.47,7.72,7.72,0,0,1-5.24,2.32,37.88,37.88,0,0,1-9.31-.61l1-6.47a38.05,38.05,0,0,0,5.09,0c1.1-.12,1.76-.53,2-1.23l.18-.7h-1.79a4.21,4.21,0,0,1-3.06-1.05,6.57,6.57,0,0,1-1.67-3.06L456,104.91h9.71l3.41,14.65c.06.32.29.48.7.48h.39l3.94-15.13Z"/><path class="cls-3" d="M97.5,112l-.7-6.47a50,50,0,0,1,11-1q6.21,0,8.59,1.64c1.59,1.1,2.38,3.17,2.38,6.23a8.29,8.29,0,0,1-1.22,5,5.37,5.37,0,0,1-4,1.91v.26a6.26,6.26,0,0,1,4.76,2.27,9.61,9.61,0,0,1,1.44,5.73c0,3-.8,5.06-2.42,6.18s-4.32,1.69-8.11,1.69a42.65,42.65,0,0,1-12.9-1.66l.7-6.17a68.29,68.29,0,0,0,10.32,1,3,3,0,0,0,2.16-.59,3.65,3.65,0,0,0,.55-2.39,3.83,3.83,0,0,0-.55-2.47,3.16,3.16,0,0,0-2.2-.63l-6.65-.13v-5.9l6.56-.13a2.46,2.46,0,0,0,1.79-.55,3.27,3.27,0,0,0,.44-2,3,3,0,0,0-.46-1.93,2.55,2.55,0,0,0-1.82-.48A86.77,86.77,0,0,0,97.5,112Z"/><path class="cls-3" d="M140.12,128.56h-8.26l-1.53,6.52h-9.66l7.83-27.72a3.23,3.23,0,0,1,1.18-1.77,3.19,3.19,0,0,1,2-.68h8.61a3.19,3.19,0,0,1,2,.68,3.29,3.29,0,0,1,1.18,1.77l7.83,27.72h-9.67l-1.53-6.52Zm-1.53-6.64-1.48-6.47c-.26-1.37-.44-2.52-.53-3.45H135.4c-.17,1.37-.35,2.52-.52,3.45l-1.49,6.47Z"/><polygon class="cls-3" points="179.82 104.91 179.82 135.08 170.33 135.08 170.33 111.12 162.9 111.12 162.9 135.08 153.41 135.08 153.41 104.91 179.82 104.91"/><path class="cls-3" d="M197.74,104.3a20.79,20.79,0,0,1,8.33,1.34,8.45,8.45,0,0,1,4.35,4.72q1.4,3.39,1.39,9.64c0,4.16-.46,7.38-1.39,9.63a8.51,8.51,0,0,1-4.35,4.73,21,21,0,0,1-8.33,1.33,20.75,20.75,0,0,1-8.28-1.33,8.44,8.44,0,0,1-4.35-4.73c-.94-2.25-1.4-5.47-1.4-9.63s.46-7.38,1.4-9.64a8.39,8.39,0,0,1,4.35-4.72,20.56,20.56,0,0,1,8.28-1.34Zm3.26,8.77a3.94,3.94,0,0,0-6.52,0q-.81,1.73-.81,6.93t.81,6.92a3.94,3.94,0,0,0,6.52,0q.8-1.73.8-6.92T201,113.07Z"/><path class="cls-3" d="M241.41,104.91v30.17h-9.49v-24h-1.83c-1.46,0-2.23.67-2.32,2q-.78,10.45-2.1,14.78c-1,3.32-2.48,5.52-4.54,6.6a12.07,12.07,0,0,1-7.79.79l-.65-7.35a15.62,15.62,0,0,0,1.9-.3,3.71,3.71,0,0,0,1.36-.73,3.3,3.3,0,0,0,1-1.55q1.18-3.5,1.84-12.89.48-7.56,7.95-7.57Z"/><polygon class="cls-3" points="272.97 104.91 272.97 135.08 263.49 135.08 263.49 122.4 255.88 122.4 255.88 135.08 246.39 135.08 246.39 104.91 255.88 104.91 255.88 115.75 263.49 115.75 263.49 104.91 272.97 104.91"/><path class="cls-3" d="M305.06,135.08h-9V121.22a29.86,29.86,0,0,1,.48-4.68h-.3a25.34,25.34,0,0,1-1.84,4.64L287,135.08H278V104.91h9v13.38a33.36,33.36,0,0,1-.48,4.9h.3a26.77,26.77,0,0,1,1.93-4.64l7.34-13.64h9Z"/><path class="cls-3" d="M340.64,103v3.63q7.61.52,10.67,3.39t3.06,9.55q0,6.42-3.06,9.2t-10.67,3.3v3.63h-9.49v-3.63q-7.61-.48-10.66-3.28t-3.06-9.22q0-6.69,3.06-9.55t10.66-3.39V103Zm-9.05,22.43V113.26c-1.92.21-3.18.74-3.78,1.6s-.9,2.43-.9,4.7q0,3.15.9,4.35c.6.8,1.86,1.3,3.78,1.51Zm8.61-12.16v12.16c1.93-.21,3.19-.71,3.78-1.51s.9-2.25.9-4.35c0-2.25-.3-3.8-.9-4.68S342.13,113.47,340.2,113.26Z"/><path class="cls-3" d="M370.5,104.3a20.7,20.7,0,0,1,8.32,1.34,8.39,8.39,0,0,1,4.35,4.72c.94,2.26,1.4,5.47,1.4,9.64s-.46,7.38-1.4,9.63a8.44,8.44,0,0,1-4.35,4.73,26.59,26.59,0,0,1-16.61,0,8.51,8.51,0,0,1-4.35-4.73,26.16,26.16,0,0,1-1.4-9.63,26.22,26.22,0,0,1,1.4-9.64,8.45,8.45,0,0,1,4.35-4.72,20.64,20.64,0,0,1,8.29-1.34Zm3.25,8.77a3.93,3.93,0,0,0-6.51,0q-.81,1.73-.81,6.93t.81,6.92a3.93,3.93,0,0,0,6.51,0q.81-1.73.81-6.92T373.75,113.07Z"/><path class="cls-3" d="M388.42,135.08V104.91q4.45-.43,12.76-.43,7.21,0,9.86,2.14c1.76,1.43,2.65,4.14,2.65,8.13s-.82,6.62-2.45,8-4.55,2.15-8.75,2.15a38.25,38.25,0,0,1-4.59-.27v10.41Zm9.48-16.83H401a3.55,3.55,0,0,0,2.58-.7,4.24,4.24,0,0,0,.66-2.8,4.4,4.4,0,0,0-.66-2.86,3.46,3.46,0,0,0-2.58-.72H397.9Z"/><path class="cls-3" d="M441.71,104.91h8.35c2.12,0,3.23,1.1,3.32,3.28l1.05,26.89H445.9L445,112h-.65l-3,15.38q-.48,2.9-3.59,2.89h-4.89a3.26,3.26,0,0,1-3.63-2.89l-3-15.38h-.65l-.75,23.08h-8.52l1.05-26.89c.08-2.18,1.19-3.28,3.32-3.28h8.17a3.26,3.26,0,0,1,3.59,2.93l2.18,12q.22,1.4.48,4.5h.4c0-.08.06-.71.2-1.88s.24-2,.32-2.62l2.06-12A3.28,3.28,0,0,1,441.71,104.91Z"/><path class="cls-3" d="M483.89,104.91l-6.56,22a17,17,0,0,1-3.06,6.47,7.72,7.72,0,0,1-5.24,2.32,37.88,37.88,0,0,1-9.31-.61l1-6.47a38.05,38.05,0,0,0,5.09,0c1.1-.12,1.76-.53,2-1.23l.18-.7h-1.79a4.21,4.21,0,0,1-3.06-1.05,6.57,6.57,0,0,1-1.67-3.06L456,104.91h9.71l3.41,14.65c.06.32.29.48.7.48h.39l3.94-15.13Z"/><path class="cls-4" d="M27.78,174.49H20.31V163a25.52,25.52,0,0,1,.4-3.88h-.25A20.48,20.48,0,0,1,18.94,163l-6.12,11.52H5.32v-25h7.46v11.08a26.92,26.92,0,0,1-.4,4.06h.26a21.44,21.44,0,0,1,1.59-3.84l6.08-11.3h7.47Z"/><path class="cls-4" d="M60.08,149.5H67a2.47,2.47,0,0,1,2.75,2.72l.87,22.27H63.56l-.76-19.12h-.55l-2.46,12.75a2.65,2.65,0,0,1-3,2.39h-4a2.71,2.71,0,0,1-3-2.39l-2.5-12.75h-.54l-.62,19.12H39l.87-22.27a2.47,2.47,0,0,1,2.75-2.72h6.77a2.69,2.69,0,0,1,3,2.43l1.81,9.92c.12.77.26,2,.4,3.73h.33c0-.07.05-.59.16-1.56s.2-1.69.27-2.17l1.71-9.92A2.71,2.71,0,0,1,60.08,149.5Z"/><path class="cls-4" d="M82.17,158.08h2c3.79,0,6.41.59,7.84,1.76s2.16,3.36,2.16,6.57-.67,5.35-2,6.56-3.53,1.81-6.6,1.81q-7.35,0-11.11-.29h-.22v-25h7.89v8.58Zm22.57-8.58v25h-7.9v-25ZM82.17,169.35h2c.87,0,1.44-.21,1.7-.62a5.46,5.46,0,0,0,.4-2.61,5.68,5.68,0,0,0-.4-2.66c-.26-.42-.83-.63-1.7-.63h-2Z"/><path class="cls-4" d="M135.09,168l.58,5.72a27.28,27.28,0,0,1-8.77,1.19q-6.23,0-8.78-2.89t-2.55-10q0-7.12,2.55-10t8.78-2.9a31.08,31.08,0,0,1,8.22,1l-.58,5.73c-3.38-.05-5.92-.08-7.64-.08a2.47,2.47,0,0,0-2.46,1.25,13.4,13.4,0,0,0-.62,5.05,13.43,13.43,0,0,0,.62,5.06,2.47,2.47,0,0,0,2.46,1.25Q132.3,168.3,135.09,168Z"/><path class="cls-4" d="M154,161.42v.21a5.53,5.53,0,0,1,4.15,1.89,7.68,7.68,0,0,1,1.25,4.74q0,3.74-2.08,5.13c-1.39.92-3.71,1.39-7,1.39q-7.93,0-12-.29v-25q3.69-.28,10.79-.29,5.33,0,7.37,1.36t2.05,5.16a6.61,6.61,0,0,1-1.07,4.09,4.74,4.74,0,0,1-3.5,1.6Zm-8-2.18h2.78a2.5,2.5,0,0,0,1.82-.47,3,3,0,0,0,.43-1.92,2.73,2.73,0,0,0-.45-1.88,2.82,2.82,0,0,0-1.87-.44H146v4.71Zm0,10.22h2.89a3,3,0,0,0,2.14-.55,3.43,3.43,0,0,0,.51-2.24,3.51,3.51,0,0,0-.51-2.28,3,3,0,0,0-2.17-.55H146Z"/><path class="cls-4" d="M166.71,162.9v-.22q-4.86-.51-4.86-5.94,0-4.28,2.38-5.94t7.87-1.66q6.71,0,10.29.36v25h-7.86v-9.13h-2a2.09,2.09,0,0,0-1.37.35,2.3,2.3,0,0,0-.58,1.36l-1.56,7.42h-8.22l1.88-7.68a4.4,4.4,0,0,1,4-3.91Zm7.82-3.08v-5.14h-2.25a2.9,2.9,0,0,0-2,.51,4.58,4.58,0,0,0,0,4.12,2.9,2.9,0,0,0,2,.51Z"/><path class="cls-4" d="M211,161.34v.22c.87.14,1.56.28,2.08.42a4,4,0,0,1,1.5.76,4.81,4.81,0,0,1,1.14,1.17,10.34,10.34,0,0,1,.94,2c.35.91.66,1.85.93,2.8s.64,2.3,1.12,4c.19.75.35,1.33.47,1.74H211q-2.28-7.86-2.64-8.69c-.39-1-.86-1.52-1.42-1.67a2.67,2.67,0,0,0-.72-.07h-.83a10.46,10.46,0,0,1,.29,2.28v8.15h-7.5v-8.15a10.93,10.93,0,0,1,.33-2.28h-.87a1.71,1.71,0,0,0-1.36.51,6.23,6.23,0,0,0-1,1.9q-.51,1.4-1.56,5c-.36,1.26-.65,2.26-.87,3h-8.22c1.38-5.05,2.28-8.08,2.72-9.09a5.6,5.6,0,0,1,2.57-3.08,10.19,10.19,0,0,1,2.9-.76v-.22a13.11,13.11,0,0,1-1.49-.25,4.66,4.66,0,0,1-1.16-.45c-.36-.21-.66-.38-.89-.53a2.61,2.61,0,0,1-.74-.87q-.39-.65-.6-1.05a12.53,12.53,0,0,1-.56-1.52c-.24-.75-.43-1.36-.56-1.85s-.35-1.29-.67-2.42-.58-2.1-.8-2.9h8q1.92,6.88,2.25,7.68.62,1.56,1.56,1.77a2.47,2.47,0,0,0,.5,0h.91a13.49,13.49,0,0,1-.36-3.19v-6.3h7.46v6.3a15.71,15.71,0,0,1-.33,3.19h.8a1.91,1.91,0,0,0,1.81-1.14,40.65,40.65,0,0,0,1.81-5.63c.31-1.14.57-2,.76-2.72h8c-.22.8-.49,1.76-.8,2.9s-.54,1.94-.67,2.42-.32,1.1-.56,1.85a12.53,12.53,0,0,1-.56,1.52,11.37,11.37,0,0,1-.6,1.05,2.61,2.61,0,0,1-.74.87c-.23.15-.53.32-.89.53a4.66,4.66,0,0,1-1.16.45A12.9,12.9,0,0,1,211,161.34Z"/><path class="cls-4" d="M239.76,168.62l.36,5.54a117.25,117.25,0,0,1-13,.47,5.85,5.85,0,0,1-4.22-1.57,5.42,5.42,0,0,1-1.65-4.11V155a5.42,5.42,0,0,1,1.65-4.11,5.86,5.86,0,0,1,4.22-1.58,116.51,116.51,0,0,1,13,.48l-.36,5.54h-9.17a1.55,1.55,0,0,0-1.08.36,1.19,1.19,0,0,0-.4.94v2.43h9.34v5.21h-9.34v3a1.2,1.2,0,0,0,.4.94,1.55,1.55,0,0,0,1.08.36Z"/><path class="cls-4" d="M263.77,149.5h6.92a2.47,2.47,0,0,1,2.75,2.72l.87,22.27h-7.06l-.76-19.12h-.55l-2.46,12.75a2.66,2.66,0,0,1-3,2.39h-4.06a2.7,2.7,0,0,1-3-2.39L251,155.37h-.54l-.62,19.12h-7.06l.87-22.27a2.47,2.47,0,0,1,2.75-2.72h6.77a2.69,2.69,0,0,1,3,2.43l1.81,9.92c.12.77.26,2,.4,3.73h.33c0-.07.05-.59.16-1.56s.2-1.69.27-2.17l1.7-9.92A2.72,2.72,0,0,1,263.77,149.5Z"/><path class="cls-4" d="M296.58,168l.58,5.72a27.25,27.25,0,0,1-8.76,1.19c-4.16,0-7.08-1-8.79-2.89s-2.55-5.28-2.55-10,.85-8.1,2.55-10,4.63-2.9,8.79-2.9a31.19,31.19,0,0,1,8.22,1l-.58,5.73q-5.07-.08-7.64-.08a2.47,2.47,0,0,0-2.46,1.25,13.19,13.19,0,0,0-.62,5.05c0,2.54.2,4.22.62,5.06a2.47,2.47,0,0,0,2.46,1.25C292,168.3,294.72,168.2,296.58,168Z"/><path class="cls-4" d="M304.15,162.9v-.22q-4.84-.51-4.85-5.94,0-4.28,2.37-5.94t7.88-1.66c4.47,0,7.89.12,10.28.36v25H312v-9.13h-2a2.14,2.14,0,0,0-1.38.35,2.37,2.37,0,0,0-.58,1.36l-1.55,7.42h-8.22l1.88-7.68a4.39,4.39,0,0,1,4-3.91Zm7.83-3.08v-5.14h-2.25a2.93,2.93,0,0,0-2.05.51,4.58,4.58,0,0,0,0,4.12,2.93,2.93,0,0,0,2.05.51Z"/><path class="cls-4" d="M350.15,168l.58,5.72a27.28,27.28,0,0,1-8.77,1.19q-6.22,0-8.78-2.89t-2.55-10q0-7.12,2.55-10t8.78-2.9a31.22,31.22,0,0,1,8.23,1l-.58,5.73q-5.07-.08-7.65-.08a2.47,2.47,0,0,0-2.46,1.25,13.46,13.46,0,0,0-.61,5.05,13.49,13.49,0,0,0,.61,5.06A2.47,2.47,0,0,0,342,168.3Q347.36,168.3,350.15,168Z"/><polygon class="cls-4" points="381.19 155.37 374.2 155.37 374.2 174.49 366.34 174.49 366.34 155.37 359.35 155.37 359.35 149.5 381.19 149.5 381.19 155.37"/><path class="cls-4" d="M394.15,149a17.15,17.15,0,0,1,6.9,1.11,7,7,0,0,1,3.61,3.91,21.7,21.7,0,0,1,1.16,8,21.73,21.73,0,0,1-1.16,8,7,7,0,0,1-3.61,3.91,21.88,21.88,0,0,1-13.76,0,7,7,0,0,1-3.6-3.91,21.52,21.52,0,0,1-1.16-8,21.49,21.49,0,0,1,1.16-8,7,7,0,0,1,3.6-3.91,17,17,0,0,1,6.86-1.11Zm2.7,7.26a3.25,3.25,0,0,0-5.39,0q-.68,1.44-.67,5.74t.67,5.74a3.24,3.24,0,0,0,5.39,0q.67-1.42.67-5.74T396.85,156.25Z"/><path class="cls-4" d="M416.86,159.17h2.5c3.91,0,6.62.54,8.11,1.63s2.25,3.11,2.25,6.08-.72,5-2.17,6.18-3.83,1.72-7.14,1.72q-7.32,0-11.19-.29H409v-25q4.25-.28,9.31-.29,4.63,0,9.64.29l-.58,5.61H416.86v4.06Zm0,10.18h2.5a2.78,2.78,0,0,0,2-.53,5.34,5.34,0,0,0,0-4.38,2.78,2.78,0,0,0-2-.53h-2.5Z"/><path class="cls-4" d="M443.23,149a17.15,17.15,0,0,1,6.9,1.11,7,7,0,0,1,3.6,3.91,21.7,21.7,0,0,1,1.16,8,21.73,21.73,0,0,1-1.16,8,7,7,0,0,1-3.6,3.91,21.88,21.88,0,0,1-13.76,0,7,7,0,0,1-3.61-3.91,21.73,21.73,0,0,1-1.16-8,21.7,21.7,0,0,1,1.16-8,7,7,0,0,1,3.61-3.91,17,17,0,0,1,6.86-1.11Zm2.7,7.26a3.26,3.26,0,0,0-5.4,0q-.67,1.44-.67,5.74t.67,5.74a3.25,3.25,0,0,0,5.4,0c.44-.95.67-2.86.67-5.74S446.37,157.21,445.93,156.25Z"/><path class="cls-4" d="M471.52,141.53h4.59a4.68,4.68,0,0,1-1.37,4.35,7.65,7.65,0,0,1-10.14,0,4.82,4.82,0,0,1-1.42-4.35h4.6a3,3,0,0,0,.26,2.19,2,2,0,0,0,1.63.6,1.89,1.89,0,0,0,1.59-.6,3,3,0,0,0,.26-2.19Zm9.05,33h-7.46V163a24.29,24.29,0,0,1,.4-3.88h-.26a19.82,19.82,0,0,1-1.52,3.84l-6.12,11.52h-7.5v-25h7.47v11.08a28.31,28.31,0,0,1-.4,4.06h.25A22.19,22.19,0,0,1,467,160.8l6.09-11.3h7.46Z"/><path class="cls-5" d="M27.78,174.49H20.31V163a25.52,25.52,0,0,1,.4-3.88h-.25A20.48,20.48,0,0,1,18.94,163l-6.12,11.52H5.32v-25h7.46v11.08a26.92,26.92,0,0,1-.4,4.06h.26a21.44,21.44,0,0,1,1.59-3.84l6.08-11.3h7.47Z"/><path class="cls-5" d="M60.08,149.5H67a2.47,2.47,0,0,1,2.75,2.72l.87,22.27H63.56l-.76-19.12h-.55l-2.46,12.75a2.65,2.65,0,0,1-3,2.39h-4a2.71,2.71,0,0,1-3-2.39l-2.5-12.75h-.54l-.62,19.12H39l.87-22.27a2.47,2.47,0,0,1,2.75-2.72h6.77a2.69,2.69,0,0,1,3,2.43l1.81,9.92c.12.77.26,2,.4,3.73h.33c0-.07.05-.59.16-1.56s.2-1.69.27-2.17l1.71-9.92A2.71,2.71,0,0,1,60.08,149.5Z"/><path class="cls-5" d="M82.17,158.08h2c3.79,0,6.41.59,7.84,1.76s2.16,3.36,2.16,6.57-.67,5.35-2,6.56-3.53,1.81-6.6,1.81q-7.35,0-11.11-.29h-.22v-25h7.89v8.58Zm22.57-8.58v25h-7.9v-25ZM82.17,169.35h2c.87,0,1.44-.21,1.7-.62a5.46,5.46,0,0,0,.4-2.61,5.68,5.68,0,0,0-.4-2.66c-.26-.42-.83-.63-1.7-.63h-2Z"/><path class="cls-5" d="M135.09,168l.58,5.72a27.28,27.28,0,0,1-8.77,1.19q-6.23,0-8.78-2.89t-2.55-10q0-7.12,2.55-10t8.78-2.9a31.08,31.08,0,0,1,8.22,1l-.58,5.73c-3.38-.05-5.92-.08-7.64-.08a2.47,2.47,0,0,0-2.46,1.25,13.4,13.4,0,0,0-.62,5.05,13.43,13.43,0,0,0,.62,5.06,2.47,2.47,0,0,0,2.46,1.25Q132.3,168.3,135.09,168Z"/><path class="cls-5" d="M154,161.42v.21a5.53,5.53,0,0,1,4.15,1.89,7.68,7.68,0,0,1,1.25,4.74q0,3.74-2.08,5.13c-1.39.92-3.71,1.39-7,1.39q-7.93,0-12-.29v-25q3.69-.28,10.79-.29,5.33,0,7.37,1.36t2.05,5.16a6.61,6.61,0,0,1-1.07,4.09,4.74,4.74,0,0,1-3.5,1.6Zm-8-2.18h2.78a2.5,2.5,0,0,0,1.82-.47,3,3,0,0,0,.43-1.92,2.73,2.73,0,0,0-.45-1.88,2.82,2.82,0,0,0-1.87-.44H146v4.71Zm0,10.22h2.89a3,3,0,0,0,2.14-.55,3.43,3.43,0,0,0,.51-2.24,3.51,3.51,0,0,0-.51-2.28,3,3,0,0,0-2.17-.55H146Z"/><path class="cls-5" d="M166.71,162.9v-.22q-4.86-.51-4.86-5.94,0-4.28,2.38-5.94t7.87-1.66q6.71,0,10.29.36v25h-7.86v-9.13h-2a2.09,2.09,0,0,0-1.37.35,2.3,2.3,0,0,0-.58,1.36l-1.56,7.42h-8.22l1.88-7.68a4.4,4.4,0,0,1,4-3.91Zm7.82-3.08v-5.14h-2.25a2.9,2.9,0,0,0-2,.51,4.58,4.58,0,0,0,0,4.12,2.9,2.9,0,0,0,2,.51Z"/><path class="cls-5" d="M211,161.34v.22c.87.14,1.56.28,2.08.42a4,4,0,0,1,1.5.76,4.81,4.81,0,0,1,1.14,1.17,10.34,10.34,0,0,1,.94,2c.35.91.66,1.85.93,2.8s.64,2.3,1.12,4c.19.75.35,1.33.47,1.74H211q-2.28-7.86-2.64-8.69c-.39-1-.86-1.52-1.42-1.67a2.67,2.67,0,0,0-.72-.07h-.83a10.46,10.46,0,0,1,.29,2.28v8.15h-7.5v-8.15a10.93,10.93,0,0,1,.33-2.28h-.87a1.71,1.71,0,0,0-1.36.51,6.23,6.23,0,0,0-1,1.9q-.51,1.4-1.56,5c-.36,1.26-.65,2.26-.87,3h-8.22c1.38-5.05,2.28-8.08,2.72-9.09a5.6,5.6,0,0,1,2.57-3.08,10.19,10.19,0,0,1,2.9-.76v-.22a13.11,13.11,0,0,1-1.49-.25,4.66,4.66,0,0,1-1.16-.45c-.36-.21-.66-.38-.89-.53a2.61,2.61,0,0,1-.74-.87q-.39-.65-.6-1.05a12.53,12.53,0,0,1-.56-1.52c-.24-.75-.43-1.36-.56-1.85s-.35-1.29-.67-2.42-.58-2.1-.8-2.9h8q1.92,6.88,2.25,7.68.62,1.56,1.56,1.77a2.47,2.47,0,0,0,.5,0h.91a13.49,13.49,0,0,1-.36-3.19v-6.3h7.46v6.3a15.71,15.71,0,0,1-.33,3.19h.8a1.91,1.91,0,0,0,1.81-1.14,40.65,40.65,0,0,0,1.81-5.63c.31-1.14.57-2,.76-2.72h8c-.22.8-.49,1.76-.8,2.9s-.54,1.94-.67,2.42-.32,1.1-.56,1.85a12.53,12.53,0,0,1-.56,1.52,11.37,11.37,0,0,1-.6,1.05,2.61,2.61,0,0,1-.74.87c-.23.15-.53.32-.89.53a4.66,4.66,0,0,1-1.16.45A12.9,12.9,0,0,1,211,161.34Z"/><path class="cls-5" d="M239.76,168.62l.36,5.54a117.25,117.25,0,0,1-13,.47,5.85,5.85,0,0,1-4.22-1.57,5.42,5.42,0,0,1-1.65-4.11V155a5.42,5.42,0,0,1,1.65-4.11,5.86,5.86,0,0,1,4.22-1.58,116.51,116.51,0,0,1,13,.48l-.36,5.54h-9.17a1.55,1.55,0,0,0-1.08.36,1.19,1.19,0,0,0-.4.94v2.43h9.34v5.21h-9.34v3a1.2,1.2,0,0,0,.4.94,1.55,1.55,0,0,0,1.08.36Z"/><path class="cls-5" d="M263.77,149.5h6.92a2.47,2.47,0,0,1,2.75,2.72l.87,22.27h-7.06l-.76-19.12h-.55l-2.46,12.75a2.66,2.66,0,0,1-3,2.39h-4.06a2.7,2.7,0,0,1-3-2.39L251,155.37h-.54l-.62,19.12h-7.06l.87-22.27a2.47,2.47,0,0,1,2.75-2.72h6.77a2.69,2.69,0,0,1,3,2.43l1.81,9.92c.12.77.26,2,.4,3.73h.33c0-.07.05-.59.16-1.56s.2-1.69.27-2.17l1.7-9.92A2.72,2.72,0,0,1,263.77,149.5Z"/><path class="cls-5" d="M296.58,168l.58,5.72a27.25,27.25,0,0,1-8.76,1.19c-4.16,0-7.08-1-8.79-2.89s-2.55-5.28-2.55-10,.85-8.1,2.55-10,4.63-2.9,8.79-2.9a31.19,31.19,0,0,1,8.22,1l-.58,5.73q-5.07-.08-7.64-.08a2.47,2.47,0,0,0-2.46,1.25,13.19,13.19,0,0,0-.62,5.05c0,2.54.2,4.22.62,5.06a2.47,2.47,0,0,0,2.46,1.25C292,168.3,294.72,168.2,296.58,168Z"/><path class="cls-5" d="M304.15,162.9v-.22q-4.84-.51-4.85-5.94,0-4.28,2.37-5.94t7.88-1.66c4.47,0,7.89.12,10.28.36v25H312v-9.13h-2a2.14,2.14,0,0,0-1.38.35,2.37,2.37,0,0,0-.58,1.36l-1.55,7.42h-8.22l1.88-7.68a4.39,4.39,0,0,1,4-3.91Zm7.83-3.08v-5.14h-2.25a2.93,2.93,0,0,0-2.05.51,4.58,4.58,0,0,0,0,4.12,2.93,2.93,0,0,0,2.05.51Z"/><path class="cls-5" d="M350.15,168l.58,5.72a27.28,27.28,0,0,1-8.77,1.19q-6.22,0-8.78-2.89t-2.55-10q0-7.12,2.55-10t8.78-2.9a31.22,31.22,0,0,1,8.23,1l-.58,5.73q-5.07-.08-7.65-.08a2.47,2.47,0,0,0-2.46,1.25,13.46,13.46,0,0,0-.61,5.05,13.49,13.49,0,0,0,.61,5.06A2.47,2.47,0,0,0,342,168.3Q347.36,168.3,350.15,168Z"/><polygon class="cls-5" points="381.19 155.37 374.2 155.37 374.2 174.49 366.34 174.49 366.34 155.37 359.35 155.37 359.35 149.5 381.19 149.5 381.19 155.37"/><path class="cls-5" d="M394.15,149a17.15,17.15,0,0,1,6.9,1.11,7,7,0,0,1,3.61,3.91,21.7,21.7,0,0,1,1.16,8,21.73,21.73,0,0,1-1.16,8,7,7,0,0,1-3.61,3.91,21.88,21.88,0,0,1-13.76,0,7,7,0,0,1-3.6-3.91,21.52,21.52,0,0,1-1.16-8,21.49,21.49,0,0,1,1.16-8,7,7,0,0,1,3.6-3.91,17,17,0,0,1,6.86-1.11Zm2.7,7.26a3.25,3.25,0,0,0-5.39,0q-.68,1.44-.67,5.74t.67,5.74a3.24,3.24,0,0,0,5.39,0q.67-1.42.67-5.74T396.85,156.25Z"/><path class="cls-5" d="M416.86,159.17h2.5c3.91,0,6.62.54,8.11,1.63s2.25,3.11,2.25,6.08-.72,5-2.17,6.18-3.83,1.72-7.14,1.72q-7.32,0-11.19-.29H409v-25q4.25-.28,9.31-.29,4.63,0,9.64.29l-.58,5.61H416.86v4.06Zm0,10.18h2.5a2.78,2.78,0,0,0,2-.53,5.34,5.34,0,0,0,0-4.38,2.78,2.78,0,0,0-2-.53h-2.5Z"/><path class="cls-5" d="M443.23,149a17.15,17.15,0,0,1,6.9,1.11,7,7,0,0,1,3.6,3.91,21.7,21.7,0,0,1,1.16,8,21.73,21.73,0,0,1-1.16,8,7,7,0,0,1-3.6,3.91,21.88,21.88,0,0,1-13.76,0,7,7,0,0,1-3.61-3.91,21.73,21.73,0,0,1-1.16-8,21.7,21.7,0,0,1,1.16-8,7,7,0,0,1,3.61-3.91,17,17,0,0,1,6.86-1.11Zm2.7,7.26a3.26,3.26,0,0,0-5.4,0q-.67,1.44-.67,5.74t.67,5.74a3.25,3.25,0,0,0,5.4,0c.44-.95.67-2.86.67-5.74S446.37,157.21,445.93,156.25Z"/><path class="cls-5" d="M471.52,141.53h4.59a4.68,4.68,0,0,1-1.37,4.35,7.65,7.65,0,0,1-10.14,0,4.82,4.82,0,0,1-1.42-4.35h4.6a3,3,0,0,0,.26,2.19,2,2,0,0,0,1.63.6,1.89,1.89,0,0,0,1.59-.6,3,3,0,0,0,.26-2.19Zm9.05,33h-7.46V163a24.29,24.29,0,0,1,.4-3.88h-.26a19.82,19.82,0,0,1-1.52,3.84l-6.12,11.52h-7.5v-25h7.47v11.08a28.31,28.31,0,0,1-.4,4.06h.25A22.19,22.19,0,0,1,467,160.8l6.09-11.3h7.46Z"/><path class="cls-6" d="M449.82,71.7a10.13,10.13,0,0,1-3.27-7.58,9.81,9.81,0,0,1,3.22-7.55,11.82,11.82,0,0,1,8.31-3,12,12,0,0,1,8.37,3,9.75,9.75,0,0,1,3.27,7.55,10.13,10.13,0,0,1-3.27,7.58,11.57,11.57,0,0,1-8.37,3.11,11.4,11.4,0,0,1-8.26-3.11Zm1.43-32.21a43.41,43.41,0,0,1,6.54-7.3,37.67,37.67,0,0,0,4.36-4.63,6.55,6.55,0,0,0,1.44-4,5.58,5.58,0,0,0-2.49-4.75A11,11,0,0,0,454.61,17a14.35,14.35,0,0,0-7.39,2,14.82,14.82,0,0,0-5.35,5.4l-15.2-8.15A28.73,28.73,0,0,1,438.51,5.06c5.09-2.64,11.24-4,18.45-4q12.12,0,19.52,5.06a16.1,16.1,0,0,1,7.41,14.12,18.28,18.28,0,0,1-1.43,7.39A20.28,20.28,0,0,1,479,33.07,62,62,0,0,1,473.88,38a38.69,38.69,0,0,0-5.08,5.06,7.61,7.61,0,0,0-1.63,4.84H449A14.62,14.62,0,0,1,451.25,39.49Z"/><path class="cls-7" d="M469.72,64.12a10.13,10.13,0,0,1-3.27,7.58,11.57,11.57,0,0,1-8.37,3.11,11.4,11.4,0,0,1-8.26-3.11,10.13,10.13,0,0,1-3.27-7.58,9.81,9.81,0,0,1,3.22-7.55,11.82,11.82,0,0,1,8.31-3,13.22,13.22,0,0,1,5.51,1.1M436,6.53c.82-.52,1.66-1,2.54-1.47a33.59,33.59,0,0,1,8-2.89m0,0A46.52,46.52,0,0,1,457,1.08q12.12,0,19.52,5.06a16.1,16.1,0,0,1,7.41,14.12,18.28,18.28,0,0,1-1.43,7.39A20.28,20.28,0,0,1,479,33.07c-.59.65-1.26,1.33-2,2.06m-6.9,6.4c-.51.54-.95,1-1.32,1.52a7.61,7.61,0,0,0-1.63,4.84H449a14.62,14.62,0,0,1,2.24-8.4,43.41,43.41,0,0,1,6.54-7.3m0,0a37.67,37.67,0,0,0,4.36-4.63m0,0a6.55,6.55,0,0,0,1.44-4m-9-6.54a14.35,14.35,0,0,0-7.39,2,14.82,14.82,0,0,0-5.35,5.4l-15.2-8.15A28.36,28.36,0,0,1,436,6.53"/><path class="cls-3" d="M63.87,47.28l-2.31-1.86,1.26-1.56,2.3,1.86-.23,1.7-1-.14Zm1.25-1.56a1,1,0,0,1,.16,1.4,1,1,0,0,1-1.41.16l1.25-1.56Zm2.46.54-2.69,1.16-.79-1.84,2.69-1.16,1.31,1.33-.52.51Zm-.79-1.84a1,1,0,0,1,.79,1.84l-.79-1.84Zm-1.59,2.9,1.07-2.39,1.83.82L67,48.14l-1.72.19-.11-1Zm1.83.82a1,1,0,1,1-1.83-.82l1.83.82Zm0,2.44-1.69-2.25,1.6-1.2,1.69,2.25L67.89,51l-.89-.4Zm1.6-1.2a1,1,0,0,1-.2,1.4,1,1,0,0,1-1.4-.2l1.6-1.2ZM65,49.24,67.71,49l.18,2-2.71.25-1-1.45.79-.54Zm.19,2a1,1,0,1,1-.19-2l.19,2Zm-2.4,1.3,1.42-2.75L66,50.7l-1.41,2.75-1.82-.1,0-.82Zm1.78.92a1,1,0,0,1-1.35.43,1,1,0,0,1-.43-1.35l1.78.92Zm-1.23-4.09,1.27,3.27-1.86.72-1.28-3.26,1.25-1.31.62.58Zm-1.87.73a1,1,0,0,1,1.87-.73l-1.87.73Zm-1.57-2.23,2.82.92-.62,1.9-2.82-.92-.15-1.84.77-.06Zm-.62,1.9a1,1,0,0,1,.62-1.9l-.62,1.9Zm3.31-1.38L60,49.7l-.92-1.78,2.54-1.31,1.46.91-.54.86Zm-.92-1.77a1,1,0,1,1,.92,1.77l-.92-1.77Zm1.53-1.94-.07,2.85-2-.05.07-2.85,1.63-.76.37.81Zm-2-.05a1,1,0,1,1,2,.05Z"/><path class="cls-3" d="M62.57,76.53H81.24L78.1,113.26H65.64L62.57,76.53Zm2.56,56a8.16,8.16,0,0,1-2.63-6.14,7.88,7.88,0,0,1,2.63-6.11,9.74,9.74,0,0,1,6.78-2.41,9.57,9.57,0,0,1,6.72,2.41,7.93,7.93,0,0,1,2.61,6.11,8.18,8.18,0,0,1-2.65,6.14,9.22,9.22,0,0,1-6.68,2.52A9.38,9.38,0,0,1,65.13,132.54Z"/><path class="cls-6" d="M76.84,77.38a.86.86,0,1,1,0-1.71h4.4a.86.86,0,0,1,.86.86c-.48,7.68-1.32,15.5-2,23.19a.86.86,0,0,1-1.71-.14l1.89-22.2Zm.82,31-.35,4H66.43l-2.92-35h6.61a.86.86,0,1,0,0-1.71H62.5a.86.86,0,0,0-.78.93l3.06,36.7a.85.85,0,0,0,.86.82H78.1a.86.86,0,0,0,.86-.79l.41-4.8a.86.86,0,0,0-1.71-.14Zm-.35,11.93-.06,0a8,8,0,0,0-2.36-1.14,10.69,10.69,0,0,0-3-.4,10.48,10.48,0,0,0-3.47.55,8.2,8.2,0,0,0-2.74,1.64.86.86,0,0,1-1.15-1.27,9.75,9.75,0,0,1,3.32-2,12.7,12.7,0,0,1,7.5-.18,9.6,9.6,0,0,1,2.88,1.39l.06,0c.13.1.29.21.46.35l.44.38a.86.86,0,0,1,.05,1.21.85.85,0,0,1-1.21,0l-.36-.31-.38-.29Zm3.07,6.08a.86.86,0,1,1,1.72,0,9.33,9.33,0,0,1-.73,3.68,9.86,9.86,0,0,1-5.47,5.16,11.37,11.37,0,0,1-4,.68,11.55,11.55,0,0,1-4.07-.69,9.63,9.63,0,0,1-3.31-2.07l-.25-.25a9.24,9.24,0,0,1-2-3,9.35,9.35,0,0,1-.66-3.53.86.86,0,0,1,1.72,0,7.82,7.82,0,0,0,.53,2.89,7.46,7.46,0,0,0,1.62,2.42l.21.22a7.8,7.8,0,0,0,2.72,1.7,9.9,9.9,0,0,0,3.47.57,9.57,9.57,0,0,0,3.39-.57,7.67,7.67,0,0,0,2.7-1.7,8,8,0,0,0,1.79-2.53A7.54,7.54,0,0,0,80.38,126.4Z"/></g></g></svg>