<svg xmlns="http://www.w3.org/2000/svg" viewBox="0 0 228.93 66.78">
    <defs>
        <style>
            .cls-1{fill:#1aa6e0;}.cls-1,.cls-2,.cls-3,.cls-5,.cls-7{fill-rule:evenodd;}.cls-2,.cls-3,.cls-4,.cls-5,.cls-6,.cls-8{fill:none;stroke:#1b215d;stroke-linecap:round;stroke-linejoin:round;}.cls-2,.cls-4{stroke-width:2.15px;}.cls-3,.cls-8{stroke-width:2.16px;}.cls-5,.cls-6{stroke-width:2.15px;}.cls-7{fill:#fff;}
        </style>
    </defs>
    <g id="Слой_2" data-name="Слой 2">
        <g id="Слой_1-2" data-name="Слой 1">
            <path class="cls-1"
                  d="M195.54,65.7H33.39A32.31,32.31,0,0,1,1.08,33.39h0A32.3,32.3,0,0,1,33.39,1.08H195.54a32.31,32.31,0,0,1,32.31,32.31h0A32.32,32.32,0,0,1,195.54,65.7Z"/>
            <path class="cls-2" d="M161.82,65.7H33.39A32.31,32.31,0,0,1,1.08,33.39h0A32.33,32.33,0,0,1,22.91,2.81"/>
            <path class="cls-3" d="M37.44,1.08h158.1a32.31,32.31,0,0,1,32.31,32.31h0A32.32,32.32,0,0,1,195.54,65.7"/>
            <path class="cls-1"
                  d="M195.54,65.7H114.46V1.08h81.08a32.31,32.31,0,0,1,32.31,32.31h0A32.32,32.32,0,0,1,195.54,65.7Z"/>
            <line class="cls-4" x1="161.82" y1="65.7" x2="114.46" y2="65.7"/>
            <path class="cls-5" d="M114.46,1.08h81.08a32.31,32.31,0,0,1,32.31,32.31h0A32.32,32.32,0,0,1,195.54,65.7"/>
            <path class="cls-1"
                  d="M114.46,65.7H33.39A32.31,32.31,0,0,1,1.08,33.39h0A32.3,32.3,0,0,1,33.39,1.08h81.07Z"/>
            <path class="cls-2" d="M114.46,65.7H33.39A32.31,32.31,0,0,1,1.08,33.39h0A32.33,32.33,0,0,1,22.91,2.81"/>
            <line class="cls-6" x1="37.44" y1="1.08" x2="114.46" y2="1.08"/>
            <path class="cls-7"
                  d="M39.19,36.32H37.34a14.94,14.94,0,0,1,.41,3.24V51.13H26.59V15.65H37.75v8.94a19.28,19.28,0,0,1-.51,4.53h1.95L46.6,15.65h12L50.4,29.53a6.59,6.59,0,0,1-3.13,3.14v.2a6.45,6.45,0,0,1,1.87,1.37,8.07,8.07,0,0,1,1.67,2.13l8.28,14.76H46.7L39.19,36.32Zm49.12,7v7.82H60.12V43.31L75.45,23.46H60.64V15.65H87.79v7.81L72.47,43.31Z"/>
            <path class="cls-7"
                  d="M167.83,51H156.15l-2.31-10.54a3.24,3.24,0,0,0-1-1.93,3.48,3.48,0,0,0-2.09-.49h-3.44V51h-11V15.54q5.25-.51,15.07-.51,8,0,11.5,2.36t3.47,8.44q0,7.71-7.2,8.43v.31q4.83.61,5.81,5.56L167.83,51ZM147.36,30.2h3.85a5,5,0,0,0,3.22-.72,4,4,0,0,0,.8-2.93c0-1.48-.27-2.45-.8-2.93a5,5,0,0,0-3.22-.72h-3.85v7.3Zm55-14.66V36.37q0,8.49-3.39,11.93t-11.73,3.45q-9,0-12.65-3.45t-3.65-11.93V15.54h11.16V36.37q0,4.27.93,5.68c.61,1,1.83,1.42,3.65,1.42s3-.47,3.6-1.42.92-2.83.92-5.68V15.54Z"/>
            <line class="cls-8" x1="114.46" y1="11.24" x2="114.46" y2="55.54"/>
        </g>
    </g>
</svg>
