<svg xmlns="http://www.w3.org/2000/svg" viewBox="0 0 595.28 841.89"><defs><style>.cls-1{fill:#1b215d;}.cls-2{fill:#fff;}.cls-2,.cls-3{fill-rule:evenodd;}.cls-3{fill:#f8aa00;}</style></defs><g id="Слой_2" data-name="Слой 2"><g id="Слой_1-2" data-name="Слой 1"><rect class="cls-1" width="595.28" height="841.89"/><path class="cls-2" d="M346,21.19,349.76,23l-.84,1.81L345.13,23,345,21.24l.93,0ZM345.13,23a1,1,0,1,1,.84-1.81L345.13,23Zm-3.7.35L345,21.24l1,1.72-3.61,2.12-1.5-1,.48-.74Zm1,1.73a1,1,0,0,1-1-1.73l1,1.73Zm1-4.9-.52,4.16-2-.25.51-4.15,1.66-.63.33.87Zm-2-.24a1,1,0,0,1,2,.24l-2-.24ZM340,16.53l3.13,2.78-1.33,1.5L338.67,18l.47-1.73.85.23ZM338.67,18a1,1,0,0,1,1.32-1.5L338.67,18Zm5-.56-4.11.79-.38-2,4.11-.79,1.1,1.38-.72.58Zm-.38-2a1,1,0,0,1,.38,2l-.38-2ZM346,13.06l-1.68,3.83-1.83-.8,1.68-3.83,1.79-.09,0,.89Zm-1.83-.8a1,1,0,1,1,1.83.8l-1.83-.8Zm2.06,4.54-2-3.66,1.75-1,2,3.67-1,1.48-.78-.52Zm1.75-1a1,1,0,1,1-1.75,1l1.75-1Zm3.19,1.89L347,17.32l.2-2,4.16.41.63,1.67-.83.32Zm.2-2a1,1,0,0,1,.9,1.09,1,1,0,0,1-1.1.9l.2-2Zm-3.69,3.36,2.86-3.05L352,17.41l-2.86,3.06-1.7-.47.24-.9Zm1.46,1.37a1,1,0,0,1-1.41.05,1,1,0,0,1-.05-1.42l1.46,1.37Zm-.81,3.62L347.47,20l1.95-.43.9,4.09-1.4,1.12-.56-.69Zm2-.43a1,1,0,0,1-.77,1.19,1,1,0,0,1-1.19-.76Z"/><path class="cls-2" d="M73.25,157.78l1-.24.4,1.66-6.34,6.24L66.91,164l6.34-6.23Zm1.4,1.42-1.4-1.42a1,1,0,1,1,1.4,1.42Zm8,1,.56.46L82,162.1l-8.37-2.66.6-1.9,8.38,2.65ZM82,162.1l.61-1.91A1,1,0,1,1,82,162.1Zm-4.48-7.29v-1l1.72,0,3.92,6.83-1.73,1-3.92-6.83Zm1.73-1-1.73,1a1,1,0,1,1,1.73-1Zm2.65-7.26.85-.48.86,1.51-4.37,7.24-1.71-1,4.37-7.24Zm1.71,1-1.71-1a1,1,0,0,1,1.71,1Zm-9,.54-.84-.46.83-1.54,8.19,0v2l-8.19,0Zm0-2v2a1,1,0,1,1,0-2Zm-5.9-6.26-.13-.81,1.81-.28,5.06,7.8-1.67,1.09-5.07-7.8Zm1.68-1.09-1.68,1.09a1,1,0,0,1,1.68-1.09Zm-2.7,10.95-.56.65-1.37-1.18,2.82-10.14,1.93.53-2.82,10.14Zm-1.93-.53,1.93.53a1,1,0,1,1-1.93-.53ZM59,154h-.77l0-1.84,8.13-3.59.81,1.83L59,154Zm-.8-1.83L59,154a1,1,0,0,1-1.32-.51,1,1,0,0,1,.52-1.32Zm8.75,3.15.62.8-1.36,1.06-8-3.17.74-1.86,8,3.17Zm-.74,1.86.74-1.86a1,1,0,0,1,.56,1.29,1,1,0,0,1-1.3.57Zm2.43,7.45-.29.84-1.7-.59-1.06-8.51,2-.25,1.07,8.51Zm-2,.25,2-.25a1,1,0,1,1-2,.25Z"/><path class="cls-3" d="M468.62,46.34l1-.41.67,1.56L467.09,52l-1.64-1.15,3.17-4.55Zm1.64,1.15-1.64-1.15a1,1,0,0,1,1.4-.24,1,1,0,0,1,.24,1.39Zm4.32-.84.58.3-.86,1.68-5-.72.29-2,5,.72Zm-.28,2,.28-2a1,1,0,1,1-.28,2Zm-3.89-3.75-.17-1.14,1.61-.24L475.16,47l-1.44,1.39-3.31-3.46Zm1.44-1.38-1.44,1.38a1,1,0,1,1,1.44-1.38Zm1.56-6.06.47-.46,1.31,1.36L472,44.64l-1.78-.9,3.17-6.3Zm1.78.9-1.78-.9a1,1,0,0,1,1.34-.45,1,1,0,0,1,.44,1.35Zm-6.33,3.21-1-.06.11-1.75L473.88,37l.85,1.81-5.87,2.76ZM468,39.74l.85,1.81a1,1,0,1,1-.85-1.81Zm-5.22-1.5-.45-.67,1.52-1L469,39.8l-1.07,1.69-5.11-3.25Zm1.07-1.69-1.07,1.69a1,1,0,0,1-.31-1.39,1,1,0,0,1,1.38-.3Zm1.35,5.74-.43,1-1.54-.66-.9-5.07,2-.35.9,5.07Zm-2,.35,2-.35a1,1,0,0,1-.81,1.16,1,1,0,0,1-1.16-.81Zm-2.75,3.53-.8.14-.31-1.8,4.29-2.87,1.11,1.66-4.29,2.87Zm-1.11-1.66,1.11,1.66a1,1,0,0,1-1.39-.28,1,1,0,0,1,.28-1.38Zm5.67,1.11.71.68-1.2,1.25-4.87-1.24.49-1.94,4.87,1.25Zm-.49,1.93.49-1.93a1,1,0,1,1-.49,1.93Zm2.66,3.63-.13.86-1.78-.29-1.46-4.88,1.91-.57,1.46,4.88Zm-1.91.57,1.91-.57a1,1,0,1,1-1.91.57Z"/><path class="cls-2" d="M415.54,61.9l-4.94-4.85L412,55.62l4.93,4.85-.4,1.67-1-.24Zm1.4-1.43a1,1,0,0,1,0,1.42,1,1,0,0,1-1.41,0l1.4-1.43Zm6.12-.4-6.52,2.07-.6-1.91,6.52-2.06,1.17,1.45-.57.45Zm-.6-1.9a1,1,0,1,1,.6,1.9l-.6-1.9Zm-3.62,5.77,3.05-5.32,1.74,1-3.05,5.31-1.73,0v-1Zm1.74,1a1,1,0,0,1-1.74-1l1.74,1Zm1.67,5.65L418.85,65l1.72-1L424,69.55l-.86,1.52-.85-.49Zm1.71-1a1,1,0,0,1-1.71,1l1.71-1ZM416.74,69l6.37,0v2l-6.37,0-.83-1.55.84-.45Zm0,2a1,1,0,0,1-1-1,1,1,0,0,1,1-1v2ZM412,75.55l3.95-6.07,1.67,1.09-3.94,6.07-1.8-.27.12-.82Zm1.68,1.09A1,1,0,1,1,412,75.55l1.68,1.09Zm-2.07-8.7,2.2,7.89-1.93.54-2.2-7.89L411,67.29l.56.65Zm-1.93.54a1,1,0,0,1,1.93-.54l-1.93.54Zm-5-4L411,67.29l-.81,1.83-6.33-2.79,0-1.84Zm-.81,1.83a1,1,0,0,1,.81-1.83l-.81,1.83Zm7-2.45-6.21,2.47-.73-1.86L410.11,62l1.36,1-.63.8ZM410.11,62a1,1,0,1,1,.73,1.85L410.11,62Zm2.19-5.57-.83,6.62-2-.25.83-6.62,1.7-.59.29.84Zm-2-.25a1,1,0,1,1,2,.25Z"/><path class="cls-3" d="M118.56,90.2l-2.3-1.85,1.25-1.56,2.31,1.85-.23,1.7-1-.14Zm1.26-1.56a1,1,0,1,1-1.26,1.56l1.26-1.56Zm2.45.55-2.68,1.15-.8-1.83,2.69-1.16,1.31,1.33-.52.51Zm-.79-1.84a1,1,0,0,1,1.31.52,1,1,0,0,1-.52,1.32l-.79-1.84Zm-1.59,2.9L121,87.86l1.83.82-1.07,2.39-1.72.19-.11-1Zm1.83.82a1,1,0,0,1-1.83-.82l1.83.82Zm0,2.44L120,91.26l1.61-1.2,1.68,2.25-.71,1.6-.89-.4Zm1.6-1.2a1,1,0,0,1-1.6,1.2l1.6-1.2Zm-3.6-.14,2.71-.26.18,2-2.71.25-1-1.45.8-.54Zm.18,2a1,1,0,1,1-.18-2l.18,2Zm-2.4,1.3,1.42-2.75,1.78.91-1.42,2.76-1.82-.1,0-.82Zm1.78.92a1,1,0,0,1-1.78-.92l1.78.92ZM118,92.29l1.27,3.26-1.86.73L116.16,93l1.24-1.32.62.59Zm-1.86.73a1,1,0,1,1,1.86-.73l-1.86.73Zm-1.57-2.23,2.81.91-.62,1.9L114,92.69l-.15-1.84.77-.06Zm-.62,1.9a1,1,0,0,1,.62-1.9l-.62,1.9Zm3.3-1.38-2.53,1.31-.92-1.77,2.53-1.32,1.46.92-.54.86Zm-.92-1.78a1,1,0,0,1,.92,1.78l-.92-1.78Zm1.53-1.94-.07,2.86-2,0,.07-2.85,1.63-.76.37.8Zm-2,0a1,1,0,0,1,1-1,1,1,0,0,1,1,1Z"/><path class="cls-2" d="M118.24,35.29l1-.11.19,1.69-4.75,3.71L113.49,39l4.75-3.71Zm1.23,1.58-1.23-1.58a1,1,0,0,1,1.23,1.58Zm4.76.65.47.46-1.32,1.35-5-2.34.86-1.81,5,2.34Zm-.85,1.81.85-1.81a1,1,0,0,1-.85,1.81Zm-2.8-5.09.17-1.14,1.61.24L124.7,38l-1.79.9-2.33-4.64Zm1.78-.9-1.78.9a1,1,0,0,1,1.78-.9ZM126,27.57l.59-.3.86,1.68-5.3,5.53-1.44-1.38L126,27.57ZM127.49,29,126,27.57A1,1,0,1,1,127.49,29ZM120,30.24,119,29.9l.62-1.64,7-1,.28,2-7,1Zm-.29-2,.29,2a1,1,0,0,1-1.14-.85,1,1,0,0,1,.85-1.13Zm-4.88-3.36-.24-.77,1.76-.53,4.27,5L119,29.9l-4.26-5Zm1.52-1.3-1.52,1.3a1,1,0,1,1,1.52-1.3Zm-.45,6.33-.71.83-1.28-1.08.68-5.55,2,.24-.68,5.56Zm-2-.25,2,.25a1,1,0,0,1-1.11.87,1,1,0,0,1-.88-1.12Zm-4.09,2.69-.8-.1.23-1.81,5.37-1.61.57,1.91-5.37,1.61Zm-.57-1.91.57,1.91a1,1,0,0,1-.57-1.91Zm5.47,2.95.48.86-1.52.84L109,32.27l1-1.71,4.66,2.85Zm-1,1.7,1-1.7a1,1,0,1,1-1,1.7Zm1.48,4.69-.39.78-1.61-.8,0-5.53,2,0,0,5.53Zm-2,0,2,0a1,1,0,0,1-1,1A1,1,0,0,1,113.11,39.78Z"/><path class="cls-2" d="M555.38,177.52l.93,0-.09,1.77-4,1.85-.85-1.81,4-1.85Zm.84,1.81-.84-1.81a1,1,0,0,1,1.33.48,1,1,0,0,1-.49,1.33Zm3.86.44.48.74-1.5,1-3.77-2.2,1-1.73,3.77,2.21Zm-1,1.72,1-1.72a1,1,0,1,1-1,1.72Zm-1-5.07.33-.87,1.65.62.54,4.34-2,.24-.54-4.33Zm2-.25-2,.25a1,1,0,0,1,.87-1.12,1,1,0,0,1,1.11.87Zm1.61-3.53.86-.23.47,1.73L559.7,177l-1.33-1.49,3.26-2.91Zm1.33,1.5-1.33-1.5a1,1,0,0,1,1.33,1.5Zm-5.14-.59-.73-.58,1.1-1.39,4.3.83-.38,2-4.29-.82Zm.37-2-.37,2a1,1,0,0,1,.37-2ZM555.34,169l0-.88,1.79.08,1.75,4-1.83.81-1.75-4Zm1.83-.8-1.83.8a1,1,0,0,1,1.83-.8ZM555,172.87l-.78.51-1-1.47,2.11-3.83,1.75,1L555,172.87Zm-1.75-1,1.75,1a1,1,0,0,1-1.75-1Zm-3.38,1.9-.83-.31.64-1.68,4.34-.43.2,2-4.35.43Zm-.19-2,.19,2a1,1,0,0,1-.19-2Zm3.81,3.51.25.89-1.71.47-3-3.19,1.46-1.37,3,3.2Zm-1.46,1.36,1.46-1.36a1,1,0,0,1-1.46,1.36Zm.77,3.8-.55.69-1.4-1.12.93-4.27,2,.43-.94,4.27Zm-2-.43,2,.43a1,1,0,1,1-2-.43Z"/><path class="cls-3" d="M421.79,244.94l3.67,5.27-1.64,1.14-3.67-5.26.67-1.56,1,.41Zm-1.64,1.15a1,1,0,0,1,1.64-1.15l-1.64,1.15Zm-5.1-.72,5.77-.84.29,2-5.78.84-.86-1.69.58-.29Zm.28,2a1,1,0,1,1-.28-2l.28,2Zm4.41-4.29-3.83,4-1.44-1.39,3.82-4,1.62.24-.17,1.14Zm-1.45-1.38a1,1,0,0,1,1.45,1.38l-1.45-1.38Zm-2.05-7.05,3.67,7.29-1.79.9-3.66-7.29,1.32-1.36.46.46Zm-1.78.9a1,1,0,0,1,.44-1.35,1,1,0,0,1,1.34.45l-1.78.9Zm7.24,3.64L414.93,236l.85-1.81,6.78,3.19.11,1.75-1,.06Zm.86-1.81a1,1,0,0,1-.86,1.81l.86-1.81Zm6-2-5.91,3.76-1.08-1.69,5.91-3.76,1.52,1-.44.67Zm-1.08-1.69a1,1,0,0,1,1.38.31,1,1,0,0,1-.3,1.38l-1.08-1.69ZM426,240.2l1-5.87,2,.35-1,5.87-1.54.66-.43-1Zm2,.35a1,1,0,0,1-1.16.81,1,1,0,0,1-.81-1.16l2,.35Zm3.43,4-5-3.31,1.11-1.67,5,3.32-.31,1.8-.8-.14Zm1.11-1.66a1,1,0,0,1,.27,1.39,1,1,0,0,1-1.38.27l1.11-1.66Zm-6.44,1.3,5.63-1.44.5,1.94-5.63,1.44-1.21-1.25.71-.69Zm.5,1.94a1,1,0,1,1-.5-1.94l.5,1.94Zm-2.9,4.39,1.69-5.64,1.92.57-1.69,5.64-1.78.29-.14-.86Zm1.92.57a1,1,0,0,1-1.25.68,1,1,0,0,1-.67-1.25Z"/><path class="cls-2" d="M534.47,249.32l-1,.24-.4-1.67,8-7.88,1.4,1.42-8,7.89Zm-1.4-1.43,1.4,1.43a1,1,0,0,1-1.42,0,1,1,0,0,1,0-1.41Zm-10.2-1.69-.56-.46,1.17-1.45,10.59,3.36-.6,1.91-10.6-3.36Zm.61-1.91-.61,1.91a1,1,0,1,1,.61-1.91Zm5.52,9.1v1l-1.73,0-5-8.64,1.73-1,5,8.64Zm-1.74,1,1.74-1a1,1,0,0,1-1.74,1Zm-3.79,9.17-.85.48-.87-1.51,5.53-9.15,1.71,1-5.52,9.15Zm-1.72-1,1.72,1a1,1,0,0,1-1.72-1ZM533,262l.84.45L533,264l-10.35.06,0-2L533,262Zm0,2v-2a1,1,0,0,1,1,1,1,1,0,0,1-1,1Zm7.24,8.32.12.81-1.8.28-6.4-9.87,1.67-1.09,6.41,9.87Zm-1.68,1.09,1.68-1.09a1,1,0,0,1-1.68,1.09ZM542,259.75l.56-.65,1.36,1.18-3.57,12.82-1.92-.54L542,259.75Zm1.92.53-1.92-.53a1,1,0,1,1,1.92.53Zm8.92-5.72h.77l0,1.84-10.29,4.54-.8-1.83,10.28-4.54Zm.81,1.83-.81-1.83a1,1,0,0,1,.81,1.83Zm-10.87-4-.62-.81,1.36-1,10.09,4-.73,1.86-10.1-4Zm.74-1.86-.74,1.86a1,1,0,0,1-.56-1.3,1,1,0,0,1,1.3-.56Zm-2.71-9.71.3-.83,1.69.59,1.34,10.75-2,.25-1.35-10.76Zm2-.24-2,.24a1,1,0,0,1,2-.24Z"/><path class="cls-3" d="M99,236.89l-3.35-2.69,1.26-1.56,3.34,2.69L100,237l-1-.14Zm1.25-1.56a1,1,0,0,1,.16,1.41,1,1,0,0,1-1.41.15l1.25-1.56Zm3.67,0L100,237l-.79-1.84,3.89-1.68,1.31,1.33-.51.51Zm-.8-1.84a1,1,0,0,1,1.32.53,1,1,0,0,1-.52,1.31l-.8-1.84Zm-2.07,4,1.56-3.47,1.82.82-1.55,3.47-1.71.19-.12-1Zm1.83.82a1,1,0,1,1-1.83-.82l1.83.82Zm.73,3.46-2.44-3.27,1.6-1.2,2.44,3.27-.7,1.59-.9-.39Zm1.6-1.2a1,1,0,0,1-1.6,1.2l1.6-1.2Zm-4.83,0,3.94-.37.19,2-3.94.37-1-1.45.79-.54Zm.19,2a1,1,0,1,1-.19-2l.19,2Zm-3,2.54,2.06-4,1.78.91-2.06,4-1.82-.09,0-.82Zm1.78.91a1,1,0,1,1-1.78-.91l1.78.91Zm-1.8-5.55,1.84,4.73-1.86.73-1.84-4.73,1.24-1.32.62.59Zm-1.86.73a1,1,0,1,1,1.86-.73l-1.86.73Zm-2.84-2.65,4.08,1.33-.62,1.91-4.08-1.34L92,238.58l.77-.07Zm-.62,1.9a1,1,0,0,1,.62-1.9l-.62,1.9Zm4.45-2-3.68,1.9L92,238.58l3.68-1.91,1.46.91-.54.87Zm-.92-1.78a1,1,0,0,1,.92,1.78l-.92-1.78Zm1.56-3.22-.1,4.13-2,0,.1-4.14,1.63-.76.37.81Zm-2,0a1,1,0,1,1,2,0Z"/><path class="cls-3" d="M245.77,107l1-.13.23,1.69-4.68,3.77-1.26-1.56,4.69-3.77Zm1.25,1.56L245.77,107a1,1,0,0,1,1.4.16,1,1,0,0,1-.15,1.4Zm5.22.65.52.52-1.31,1.32L246,108.73l.79-1.83,5.45,2.34Zm-.79,1.84.79-1.84a1,1,0,0,1,.52,1.32,1,1,0,0,1-1.31.52Zm-2.69-5.36.11-1,1.71.19,2.18,4.86-1.83.81-2.17-4.85Zm1.82-.82-1.82.82a1,1,0,0,1,.5-1.33,1,1,0,0,1,1.32.51Zm1.71-4.76.9-.4.7,1.6-3.42,4.57-1.6-1.2,3.42-4.57Zm1.6,1.2-1.6-1.2a1,1,0,0,1,1.6,1.2Zm-6.4-.12-.79-.54,1-1.46,5.51.52-.19,2-5.51-.51Zm.19-2-.19,2a1,1,0,0,1,.19-2Zm-3.86-4.13,0-.82,1.83-.09,2.87,5.58-1.77.92-2.88-5.59Zm1.78-.91-1.78.91a1,1,0,0,1,.43-1.34,1,1,0,0,1,1.35.43Zm-2.54,7.44-.62.59-1.25-1.31,2.58-6.63,1.87.73-2.58,6.62Zm-1.87-.72,1.87.72a1,1,0,0,1-1.87-.72Zm-4.46,3.17L236,104l.15-1.84,5.71-1.86.62,1.9-5.71,1.86Zm-.62-1.9.62,1.9a1,1,0,0,1-.62-1.9ZM242,104.9l.54.86-1.46.91L236,104l.92-1.78L242,104.9Zm-.92,1.77.92-1.77a1,1,0,1,1-.92,1.77Zm1.6,4.88-.37.81-1.63-.76-.14-5.79,2,0,.14,5.79Zm-2,0,2,0a1,1,0,1,1-2,0Z"/><path class="cls-2" d="M254.84,230.88l3.79,1.78-.85,1.81L254,232.69l-.08-1.77.93,0Zm-.85,1.81a1,1,0,1,1,.85-1.81l-.85,1.81Zm-3.69.35,3.61-2.12,1,1.73-3.61,2.12-1.5-1,.49-.74Zm1,1.73a1,1,0,0,1-1.37-.36,1,1,0,0,1,.36-1.37l1,1.73Zm1-4.9-.52,4.16-2-.25.52-4.15L252,229l.33.87Zm-2-.24a1,1,0,0,1,1.11-.87,1,1,0,0,1,.87,1.11l-2-.24Zm-1.47-3.41L252,229l-1.33,1.5-3.12-2.78L248,226l.86.23Zm-1.33,1.5a1,1,0,1,1,1.33-1.5l-1.33,1.5Zm5-.56-4.11.79-.38-2,4.11-.79,1.11,1.38-.73.58Zm-.38-2a1,1,0,1,1,.38,2l-.38-2Zm2.78-2.45-1.67,3.83-1.84-.8,1.68-3.84,1.79-.08,0,.89Zm-1.83-.81a1,1,0,0,1,1.83.81l-1.83-.81Zm2.06,4.55-2-3.66,1.75-1,2,3.67-1,1.47-.78-.51Zm1.76-1a1,1,0,0,1-1.76,1l1.76-1Zm3.19,1.88L255.9,227l.2-2,4.16.41.63,1.68-.82.31Zm.19-2a1,1,0,0,1,.9,1.1,1,1,0,0,1-1.09.89l.19-2Zm-3.68,3.37,2.85-3,1.46,1.36L258,230.16l-1.71-.47.25-.9Zm1.46,1.37a1,1,0,1,1-1.46-1.37l1.46,1.37Zm-.81,3.62-.9-4.09,1.95-.43.9,4.09-1.4,1.12-.55-.69Zm1.95-.43a1,1,0,0,1-1.95.43Z"/><path class="cls-2" d="M186,242.92l-4.94-4.85,1.4-1.43,4.94,4.85-.4,1.67-1-.24Zm1.4-1.43a1,1,0,0,1,0,1.42,1,1,0,0,1-1.41,0l1.4-1.43Zm6.12-.4L187,243.16l-.6-1.91,6.52-2.07,1.16,1.46-.56.45Zm-.6-1.91a1,1,0,0,1,1.25.66,1,1,0,0,1-.65,1.25l-.6-1.91ZM189.31,245l3.05-5.32,1.73,1L191,246l-1.72,0v-1Zm1.73,1a1,1,0,1,1-1.73-1l1.73,1Zm1.68,5.65-3.4-5.63,1.71-1,3.4,5.63-.86,1.52-.85-.49Zm1.71-1a1,1,0,1,1-1.71,1l1.71-1Zm-7.22-.52,6.37,0v2l-6.37,0-.84-1.55.85-.45Zm0,2a1,1,0,1,1,0-2v2Zm-4.78,4.52,3.94-6.07,1.68,1.09-3.94,6.07-1.8-.27.12-.82Zm1.68,1.09a1,1,0,1,1-1.68-1.09l1.68,1.09ZM182,249l2.19,7.89-1.92.54-2.2-7.89,1.37-1.19.56.65Zm-1.93.54a1,1,0,0,1,.7-1.23A1,1,0,0,1,182,249l-1.93.54Zm-5-4,6.33,2.79-.81,1.83-6.33-2.79,0-1.84Zm-.81,1.83a1,1,0,0,1,.81-1.83l-.81,1.83Zm7-2.45-6.21,2.47-.74-1.86,6.22-2.47,1.36,1.06-.63.8Zm-.73-1.86a1,1,0,0,1,1.29.57,1,1,0,0,1-.56,1.29l-.73-1.86Zm2.18-5.56-.82,6.62-2-.25.83-6.62,1.69-.59.29.84Zm-2-.25a1,1,0,1,1,2,.25Z"/><path class="cls-2" d="M120.09,747.38,113.6,741l1.4-1.43,6.49,6.39-.4,1.66-1-.24Zm1.4-1.42a1,1,0,1,1-1.4,1.42l1.4-1.42Zm8.18-1.05-8.58,2.71-.6-1.9,8.58-2.72,1.17,1.45-.57.46Zm-.6-1.91a1,1,0,0,1,1.25.65,1,1,0,0,1-.65,1.26l-.6-1.91Zm-4.58,7.45,4-7,1.74,1-4,7-1.72,0v-1Zm1.73,1a1,1,0,1,1-1.73-1l1.73,1Zm2.75,7.43-4.47-7.41,1.71-1,4.47,7.41-.86,1.52-.85-.49Zm1.71-1a1,1,0,0,1-1.71,1l1.71-1Zm-9.23-.54,8.38.06v2l-8.38-.06-.84-1.54.85-.46Zm0,2a1,1,0,0,1-1-1,1,1,0,0,1,1-1v2Zm-6,6.45,5.18-8,1.68,1.09-5.19,8-1.8-.28.13-.81Zm1.67,1.09a1,1,0,0,1-1.67-1.09l1.67,1.09Zm-2.76-11.2L117.22,766l-1.93.54-2.89-10.38,1.37-1.18.56.64Zm-1.93.54a1,1,0,0,1,1.93-.54l-1.93.54Zm-7-4.86,8.33,3.68-.81,1.83-8.33-3.68,0-1.84Zm-.81,1.83a1,1,0,0,1-.51-1.31,1,1,0,0,1,1.32-.52l-.81,1.83Zm9-3.22-8.17,3.24-.74-1.86,8.17-3.24,1.36,1-.62.81Zm-.74-1.86a1,1,0,1,1,.74,1.86l-.74-1.86Zm2.45-7.66-1.09,8.71-2-.25,1.09-8.71,1.69-.59.29.84Zm-2-.25a1,1,0,0,1,1.11-.86,1,1,0,0,1,.87,1.11Z"/><path class="cls-3" d="M178.36,729l1-.14.23,1.7-4.68,3.76-1.25-1.56,4.68-3.76Zm1.25,1.56L178.36,729a1,1,0,0,1,1.41.15,1,1,0,0,1-.16,1.41Zm5.22.65.52.51L184,733l-5.45-2.35.79-1.84,5.45,2.35ZM184,733l.79-1.84A1,1,0,1,1,184,733Zm-2.69-5.37.11-1,1.72.2,2.17,4.85-1.82.82-2.18-4.86Zm1.83-.81-1.83.81a1,1,0,0,1,1.83-.81Zm1.71-4.77.89-.39.71,1.59-3.42,4.57-1.61-1.2,3.43-4.57Zm1.6,1.2-1.6-1.2a1,1,0,0,1,1.6,1.2Zm-6.4-.12-.8-.53,1-1.46,5.51.52-.19,2-5.5-.52Zm.18-2-.18,2a1,1,0,1,1,.18-2ZM176.41,717l0-.82,1.82-.1,2.88,5.59-1.78.92L176.41,717Zm1.78-.92-1.78.92a1,1,0,1,1,1.78-.92Zm-2.54,7.45-.62.59-1.24-1.32,2.58-6.62,1.86.72-2.58,6.63Zm-1.86-.73,1.86.73a1,1,0,1,1-1.86-.73ZM169.32,726l-.77-.06.15-1.84,5.71-1.87.62,1.91L169.32,726Zm-.62-1.9.62,1.9a1,1,0,0,1-.62-1.9Zm5.92,2.72.54.87-1.46.91L168.55,726l.92-1.78,5.15,2.66Zm-.92,1.78.92-1.78a1,1,0,0,1-.92,1.78Zm1.6,4.88-.37.8-1.63-.75-.14-5.79,2,0,.14,5.79Zm-2,0,2,0a1,1,0,0,1-1,1A1,1,0,0,1,173.3,733.55Z"/><path class="cls-3" d="M445.21,756.12l3.67,5.26-1.64,1.15-3.67-5.26.67-1.57,1,.42Zm-1.64,1.15a1,1,0,1,1,1.64-1.15l-1.64,1.15Zm-5.1-.73,5.77-.84.29,2-5.78.84-.86-1.68.58-.3Zm.28,2a1,1,0,1,1-.28-2l.28,2Zm4.41-4.28-3.83,4-1.44-1.39,3.82-4,1.62.25-.17,1.14Zm-1.45-1.39a1,1,0,1,1,1.45,1.39l-1.45-1.39Zm-2-7.05,3.66,7.3-1.79.89-3.66-7.29,1.32-1.35.47.45Zm-1.79.9a1,1,0,0,1,1.79-.9l-1.79.9Zm7.24,3.65-6.77-3.19.85-1.81,6.78,3.19.11,1.75-1,.06Zm.86-1.81a1,1,0,0,1,.47,1.33,1,1,0,0,1-1.33.48l.86-1.81Zm6-2-5.91,3.76L445,748.6l5.91-3.76,1.52,1-.44.67Zm-1.08-1.69a1,1,0,0,1,1.38.3,1,1,0,0,1-.3,1.39l-1.08-1.69Zm-1.49,6.54,1.05-5.87,2,.35-1,5.87-1.54.65-.43-1Zm2,.35a1,1,0,0,1-2-.35l2,.35Zm3.43,4-5-3.32,1.11-1.66,5,3.32-.31,1.8-.8-.14Zm1.11-1.66a1,1,0,0,1-1.11,1.66l1.11-1.66Zm-6.44,1.3,5.63-1.44.5,1.94L450,757.28,448.79,756l.71-.68Zm.5,1.94a1,1,0,0,1-.5-1.94l.5,1.94Zm-2.9,4.39,1.69-5.65,1.92.58L449,762.24l-1.78.29-.14-.86Zm1.92.57a1,1,0,0,1-1.25.67,1,1,0,0,1-.67-1.24Z"/><path class="cls-2" d="M417.2,727.62l1-.11.19,1.69-7,5.46-1.23-1.58,7-5.46Zm1.23,1.58-1.23-1.58a1,1,0,0,1,1.23,1.58Zm7.1,1.76.46.45-1.32,1.35-7.28-3.44.85-1.81,7.29,3.45Zm-.86,1.8.86-1.8a1,1,0,0,1-.86,1.8Zm-3.9-7.26.17-1.15,1.62.25,3.43,6.81-1.78.9-3.44-6.81Zm1.79-.9-1.79.9a1,1,0,1,1,1.79-.9Zm6.17-8.38.58-.3.87,1.68-7.79,8.14-1.45-1.39,7.79-8.13Zm1.45,1.38-1.45-1.38a1,1,0,1,1,1.45,1.38Zm-10.82,1.76-.9-.34.62-1.64,10.23-1.46.29,2-10.24,1.46Zm-.28-2,.28,2a1,1,0,1,1-.28-2Zm-6.9-5.72-.23-.77,1.75-.52,6.28,7.35-1.52,1.3-6.28-7.36Zm1.52-1.29-1.52,1.29a1,1,0,0,1,.11-1.41,1,1,0,0,1,1.41.12Zm-.77,8.94-.7.83L411,719.06l1-8.17,2,.25-1,8.17Zm-2-.25,2,.25a1,1,0,1,1-2-.25Zm-6.62,3.45-.81-.1.24-1.82,7.89-2.36.58,1.91-7.9,2.37Zm-.57-1.92.57,1.92a1,1,0,0,1-1.24-.67,1,1,0,0,1,.67-1.25Zm7.66,4.29.48.86-1.52.85-6.86-4.18,1-1.71,6.86,4.18Zm-1,1.71,1-1.71a1,1,0,0,1-1,1.71Zm1.46,7.28-.39.79-1.61-.8.06-8.13h2l-.06,8.13Zm-2,0h2a1,1,0,1,1-2,0Z"/><path class="cls-2" d="M196.75,814.9l3.79,1.77-.84,1.81-3.79-1.77-.08-1.77.92,0Zm-.84,1.81a1,1,0,0,1-.48-1.33,1,1,0,0,1,1.32-.48l-.84,1.81Zm-3.69.34,3.61-2.11,1,1.73-3.61,2.11-1.5-1,.49-.74Zm1,1.73a1,1,0,0,1-1-1.73l1,1.73Zm1-4.89-.52,4.15-2-.25.51-4.15,1.66-.62.33.87Zm-2-.25a1,1,0,0,1,2,.25l-2-.25Zm-1.47-3.4L193.9,813l-1.33,1.49-3.12-2.78.47-1.73.85.24Zm-1.32,1.49a1,1,0,1,1,1.32-1.49l-1.32,1.49Zm5-.55-4.11.79-.38-2,4.11-.79,1.1,1.38-.72.59Zm-.38-2a1,1,0,0,1,.38,2l-.38-2Zm2.78-2.45-1.68,3.83-1.83-.8L195,806l1.79-.08,0,.88ZM195,806a1,1,0,1,1,1.83.8L195,806Zm2.06,4.55-2-3.67,1.75-1,2,3.66-1,1.48-.78-.51Zm1.75-1a1,1,0,0,1-1.75,1l1.75-1Zm3.19,1.89-4.16-.41.2-2,4.16.41.63,1.68-.83.31Zm.2-2a1,1,0,0,1,.9,1.09,1,1,0,0,1-1.1.9l.2-2Zm-3.69,3.37,2.86-3.06,1.46,1.37-2.86,3-1.7-.47.24-.89Zm1.46,1.36a1,1,0,0,1-1.41.05,1,1,0,0,1,0-1.41l1.46,1.36Zm-.81,3.62-.89-4.09,1.95-.42.9,4.08-1.4,1.12-.56-.69Zm2-.43a1,1,0,0,1-2,.43Z"/><path class="cls-2" d="M491.23,779.66l-1,.42-.67-1.57,7.15-10.24,1.64,1.14-7.15,10.25Zm-1.64-1.15,1.64,1.15a1,1,0,0,1-1.4.25,1,1,0,0,1-.24-1.4ZM479,778.44l-.58-.3.87-1.68,11.25,1.64-.29,2L479,778.44Zm.29-2-.29,2a1,1,0,1,1,.29-2Zm8,8.07.17,1.14-1.62.24-7.45-7.77,1.45-1.38,7.45,7.77Zm-1.45,1.38,1.45-1.38a1,1,0,0,1,0,1.41,1,1,0,0,1-1.42,0Zm-5.52,14-.47.45L478.58,799l7.13-14.2,1.79.9-7.14,14.2Zm-1.78-.9,1.78.9a1,1,0,1,1-1.78-.9Zm13.67-6.66,1,.06-.11,1.75-13.21,6.2-.85-1.81,13.21-6.2Zm.85,1.81-.85-1.81a1,1,0,1,1,.85,1.81Zm11.62,5.57.45.67-1.53,1-11.51-7.32,1.08-1.69,11.51,7.32Zm-1.08,1.69,1.08-1.69a1,1,0,0,1-1.08,1.69Zm-2.48-12.1.43-1,1.54.66,2,11.43-2,.35-2-11.43Zm2-.35-2,.35a1,1,0,0,1,.81-1.16,1,1,0,0,1,1.16.81Zm8.13-7.12.81-.14.31,1.8-9.68,6.46-1.11-1.66,9.67-6.46Zm1.12,1.66-1.12-1.66a1,1,0,0,1,1.12,1.66ZM500.6,780.8l-.71-.68,1.2-1.25,11,2.8-.5,1.94-11-2.81Zm.49-1.93-.49,1.93a1,1,0,0,1,.49-1.93Zm-4.49-9.74.14-.86,1.78.28,3.28,11-1.91.57-3.29-11Zm1.92-.58-1.92.58a1,1,0,0,1,1.92-.58Z"/><path class="cls-3" d="M93.67,792.74l-2.31-1.86,1.26-1.56,2.3,1.86-.23,1.69-1-.13Zm1.25-1.56a1,1,0,0,1,.16,1.4,1,1,0,0,1-1.41.16l1.25-1.56Zm2.46.54-2.69,1.15L93.9,791l2.69-1.16,1.31,1.33-.52.51Zm-.79-1.84a1,1,0,0,1,.79,1.84l-.79-1.84ZM95,792.78l1.07-2.39,1.83.82-1.07,2.39-1.72.19-.11-1Zm1.83.82a1,1,0,0,1-1.83-.82l1.83.82Zm0,2.44-1.69-2.25,1.6-1.2,1.69,2.25-.71,1.6-.89-.4Zm1.6-1.2a1,1,0,0,1-1.6,1.2l1.6-1.2Zm-3.61-.14,2.72-.25.18,2-2.71.25-1-1.45.79-.54Zm.19,2a1,1,0,0,1-.19-2l.19,2Zm-2.4,1.3L94,795.24l1.78.91-1.42,2.76-1.82-.1,0-.82Zm1.78.92a1,1,0,0,1-1.78-.92l1.78.92Zm-1.23-4.09,1.27,3.27-1.86.72-1.28-3.26,1.25-1.32.62.59Zm-1.87.73a1,1,0,1,1,1.87-.73l-1.87.73Zm-1.57-2.23,2.82.91-.62,1.91-2.82-.92-.15-1.84.77-.06Zm-.62,1.9a1,1,0,0,1,.62-1.9l-.62,1.9Zm3.31-1.38-2.54,1.32-.92-1.78,2.54-1.31,1.46.91-.54.86Zm-.92-1.77a1,1,0,1,1,.92,1.77l-.92-1.77ZM93,790.13,92.92,793l-2-.05.07-2.85,1.63-.76.37.81Zm-2,0a1,1,0,1,1,2,0Z"/><path class="cls-2" d="M506.39,729.19l3.79,1.77-.85,1.81L505.54,731l-.08-1.77.93,0Zm-.85,1.81a1,1,0,0,1,.85-1.81l-.85,1.81Zm-3.69.34,3.61-2.11,1,1.73-3.61,2.11-1.5-1,.49-.74Zm1,1.73a1,1,0,0,1-1-1.73l1,1.73Zm1-4.89-.52,4.15-2-.25.52-4.15,1.66-.62.33.87Zm-2-.25a1,1,0,1,1,2,.25l-2-.25Zm-1.47-3.4,3.13,2.78-1.33,1.49L499.08,726l.48-1.73.85.24ZM499.08,726a1,1,0,0,1,1.33-1.49L499.08,726Zm5-.55-4.1.79-.38-2,4.11-.79,1.1,1.38-.73.59Zm-.37-2a1,1,0,1,1,.37,2l-.37-2Zm2.78-2.45-1.68,3.83-1.83-.8,1.68-3.83,1.79-.08,0,.88Zm-1.83-.8a1,1,0,0,1,1.31-.52,1,1,0,0,1,.52,1.32l-1.83-.8Zm2.06,4.55-2-3.67,1.75-1,2,3.66-1,1.48-.78-.51Zm1.75-1a1,1,0,0,1-1.75,1l1.75-1Zm3.19,1.89-4.16-.41.19-2,4.17.41.63,1.68-.83.31Zm.2-2a1,1,0,0,1,.89,1.09,1,1,0,0,1-1.09.9l.2-2Zm-3.69,3.37L511,724l1.46,1.37-2.86,3.05-1.71-.47.25-.89Zm1.46,1.36a1,1,0,0,1-1.46-1.36l1.46,1.36Zm-.81,3.62-.9-4.09,2-.42.89,4.08-1.4,1.12-.55-.69Zm2-.43a1,1,0,0,1-2,.43Z"/></g></g></svg>