<svg xmlns="http://www.w3.org/2000/svg" viewBox="0 0 485.9 178.08"><defs><style>.cls-1,.cls-3{fill:none;stroke-linecap:round;stroke-linejoin:round;stroke-width:4px;}.cls-1{stroke:#1aa6e0;}.cls-1,.cls-2,.cls-3,.cls-4,.cls-5,.cls-6{fill-rule:evenodd;}.cls-2{fill:#fff;}.cls-3{stroke:#fff;}.cls-4{fill:#d0005a;}.cls-5{fill:#1aa6e0;}.cls-6{fill:#f8aa00;}</style></defs><g id="Слой_2" data-name="Слой 2"><g id="Слой_1-2" data-name="Слой 1"><polygon class="cls-1" points="22.38 33.31 16.85 20.79 11.28 33.31 2 33.31 9.38 18.11 2.6 3.52 11.84 3.52 16.85 15.31 21.82 3.52 31.06 3.52 24.28 18.11 31.66 33.31 22.38 33.31"/><path class="cls-1" d="M43.92,11.12c4.41,0,7.51.85,9.33,2.57S56,18.36,56,22.56s-.91,7.06-2.72,8.74-4.92,2.53-9.33,2.53S36.37,33,34.55,31.3s-2.72-4.6-2.72-8.74.91-7.16,2.72-8.87,4.94-2.57,9.37-2.57Zm0,6.13a2.11,2.11,0,0,0-2.09,1,11.69,11.69,0,0,0-.5,4.32,11,11,0,0,0,.5,4.17,2.13,2.13,0,0,0,2.09,1,2.08,2.08,0,0,0,2-1,11,11,0,0,0,.5-4.17,11.69,11.69,0,0,0-.5-4.32A2.06,2.06,0,0,0,43.92,17.25Z"/><path class="cls-1" d="M81.22,11.72V33.31h-9V26.14a19.21,19.21,0,0,1-6.35,1.08Q62,27.22,60.22,26a4.4,4.4,0,0,1-1.79-3.9V11.72h9v7.73c0,.86.51,1.3,1.51,1.3a8.91,8.91,0,0,0,3.24-.61V11.72Z"/><path class="cls-1" d="M99.4,24.5H94a2.75,2.75,0,0,0,1.06,1.86,4.83,4.83,0,0,0,2.53.52,83.17,83.17,0,0,0,8.76-.48l.82,5.44q-3.93,2-10.58,2t-9.45-2.74q-2.85-2.74-2.85-8.4,0-6.35,2.76-9t9.5-2.61q6,0,8.57,1.9a6.77,6.77,0,0,1,2.66,5.78c0,2.05-.59,3.51-1.84,4.39s-3.43,1.31-6.54,1.31Zm-5.57-4.27h3A3.76,3.76,0,0,0,98.71,20c.26-.19.39-.64.39-1.36a1.49,1.49,0,0,0-.5-1.32A3.59,3.59,0,0,0,96.81,17a3.15,3.15,0,0,0-2.31.56A4.5,4.5,0,0,0,93.83,20.23Z"/><polygon class="cls-1" points="144.26 11.72 144.26 33.31 110.67 33.31 110.67 11.72 119.39 11.72 119.39 27.44 123.49 27.44 123.49 11.72 131.44 11.72 131.44 27.44 135.54 27.44 135.54 11.72 144.26 11.72"/><path class="cls-1" d="M156.91,18.5h1.68q6.48,0,8.87,1.56c1.6,1,2.4,3,2.4,6s-.75,4.83-2.27,5.92-4,1.64-7.44,1.64q-7.56,0-11.66-.26h-.26V11.72h8.68V18.5Zm0,9.28h1.68a2.85,2.85,0,0,0,1.79-.38,2.47,2.47,0,0,0,.41-1.73,2.55,2.55,0,0,0-.41-1.77,2.77,2.77,0,0,0-1.79-.39h-1.68Z"/><polygon class="cls-2" points="22.38 33.31 16.85 20.79 11.28 33.31 2 33.31 9.38 18.11 2.6 3.52 11.84 3.52 16.85 15.31 21.82 3.52 31.06 3.52 24.28 18.11 31.66 33.31 22.38 33.31"/><path class="cls-2" d="M43.92,11.12c4.41,0,7.51.85,9.33,2.57S56,18.36,56,22.56s-.91,7.06-2.72,8.74-4.92,2.53-9.33,2.53S36.37,33,34.55,31.3s-2.72-4.6-2.72-8.74.91-7.16,2.72-8.87,4.94-2.57,9.37-2.57Zm0,6.13a2.11,2.11,0,0,0-2.09,1,11.69,11.69,0,0,0-.5,4.32,11,11,0,0,0,.5,4.17,2.13,2.13,0,0,0,2.09,1,2.08,2.08,0,0,0,2-1,11,11,0,0,0,.5-4.17,11.69,11.69,0,0,0-.5-4.32A2.06,2.06,0,0,0,43.92,17.25Z"/><path class="cls-2" d="M81.22,11.72V33.31h-9V26.14a19.21,19.21,0,0,1-6.35,1.08Q62,27.22,60.22,26a4.4,4.4,0,0,1-1.79-3.9V11.72h9v7.73c0,.86.51,1.3,1.51,1.3a8.91,8.91,0,0,0,3.24-.61V11.72Z"/><path class="cls-2" d="M99.4,24.5H94a2.75,2.75,0,0,0,1.06,1.86,4.83,4.83,0,0,0,2.53.52,83.17,83.17,0,0,0,8.76-.48l.82,5.44q-3.93,2-10.58,2t-9.45-2.74q-2.85-2.74-2.85-8.4,0-6.35,2.76-9t9.5-2.61q6,0,8.57,1.9a6.77,6.77,0,0,1,2.66,5.78c0,2.05-.59,3.51-1.84,4.39s-3.43,1.31-6.54,1.31Zm-5.57-4.27h3A3.76,3.76,0,0,0,98.71,20c.26-.19.39-.64.39-1.36a1.49,1.49,0,0,0-.5-1.32A3.59,3.59,0,0,0,96.81,17a3.15,3.15,0,0,0-2.31.56A4.5,4.5,0,0,0,93.83,20.23Z"/><polygon class="cls-2" points="144.26 11.72 144.26 33.31 110.67 33.31 110.67 11.72 119.39 11.72 119.39 27.44 123.49 27.44 123.49 11.72 131.44 11.72 131.44 27.44 135.54 27.44 135.54 11.72 144.26 11.72"/><path class="cls-2" d="M156.91,18.5h1.68q6.48,0,8.87,1.56c1.6,1,2.4,3,2.4,6s-.75,4.83-2.27,5.92-4,1.64-7.44,1.64q-7.56,0-11.66-.26h-.26V11.72h8.68V18.5Zm0,9.28h1.68a2.85,2.85,0,0,0,1.79-.38,2.47,2.47,0,0,0,.41-1.73,2.55,2.55,0,0,0-.41-1.77,2.77,2.77,0,0,0-1.79-.39h-1.68Z"/><polygon class="cls-1" points="123.86 44.04 123.86 75.26 114.04 75.26 114.04 50.46 106.35 50.46 106.35 75.26 96.53 75.26 96.53 44.04 123.86 44.04"/><path class="cls-1" d="M142.41,43.41A21.53,21.53,0,0,1,151,44.79a8.75,8.75,0,0,1,4.5,4.88q1.46,3.51,1.45,10t-1.45,10a8.78,8.78,0,0,1-4.5,4.88,21.53,21.53,0,0,1-8.62,1.38,21.42,21.42,0,0,1-8.58-1.38,8.78,8.78,0,0,1-4.5-4.88c-1-2.34-1.45-5.67-1.45-10s.49-7.64,1.45-10a8.75,8.75,0,0,1,4.5-4.88,21.42,21.42,0,0,1,8.58-1.38Zm3.37,9.07a4.07,4.07,0,0,0-6.74,0q-.84,1.79-.84,7.17t.84,7.17a4.07,4.07,0,0,0,6.74,0q.84-1.78.84-7.17T145.78,52.48Z"/><polygon class="cls-1" points="188.34 44.04 188.34 75.26 178.52 75.26 178.52 50.46 170.82 50.46 170.82 75.26 161 75.26 161 44.04 188.34 44.04"/><path class="cls-1" d="M193.45,75.26V44q4.61-.45,13.21-.45,7.47,0,10.2,2.21t2.74,8.42q0,6.11-2.53,8.33t-9,2.21a40.73,40.73,0,0,1-4.75-.27V75.26Zm9.82-17.42h3.16a3.68,3.68,0,0,0,2.67-.72,4.38,4.38,0,0,0,.68-2.9,4.52,4.52,0,0,0-.68-3,3.58,3.58,0,0,0-2.67-.75h-3.16Z"/><path class="cls-1" d="M236.3,43.41a21.53,21.53,0,0,1,8.62,1.38,8.75,8.75,0,0,1,4.5,4.88c1,2.34,1.45,5.67,1.45,10s-.49,7.64-1.45,10a8.78,8.78,0,0,1-4.5,4.88,27.49,27.49,0,0,1-17.2,0,8.78,8.78,0,0,1-4.5-4.88c-1-2.34-1.45-5.67-1.45-10s.49-7.64,1.45-10a8.75,8.75,0,0,1,4.5-4.88,21.42,21.42,0,0,1,8.58-1.38Zm3.37,9.07a3.35,3.35,0,0,0-3.37-1.79c-1.69,0-2.82.6-3.37,1.79s-.84,3.58-.84,7.17.28,6,.84,7.17,1.68,1.79,3.37,1.79a3.35,3.35,0,0,0,3.37-1.79q.84-1.78.84-7.17T239.67,52.48Z"/><path class="cls-1" d="M264.67,56.12h3.12c4.89,0,8.26.68,10.14,2s2.8,3.89,2.8,7.6-.9,6.28-2.71,7.71-4.79,2.15-8.92,2.15q-9.14,0-14-.36h-.27V44q5.29-.36,11.63-.36,5.79,0,12,.36l-.72,7H264.67v5.07Zm0,12.71h3.12a3.45,3.45,0,0,0,2.53-.65,4.33,4.33,0,0,0,.59-2.74,4.33,4.33,0,0,0-.59-2.74,3.5,3.5,0,0,0-2.53-.65h-3.12Z"/><path class="cls-1" d="M297.61,43.41a21.53,21.53,0,0,1,8.62,1.38,8.75,8.75,0,0,1,4.5,4.88q1.45,3.51,1.45,10t-1.45,10a8.78,8.78,0,0,1-4.5,4.88,27.49,27.49,0,0,1-17.2,0,8.78,8.78,0,0,1-4.5-4.88c-1-2.34-1.45-5.67-1.45-10s.49-7.64,1.45-10a8.75,8.75,0,0,1,4.5-4.88,21.42,21.42,0,0,1,8.58-1.38ZM301,52.48a4.07,4.07,0,0,0-6.74,0q-.84,1.79-.84,7.17t.84,7.17a4.07,4.07,0,0,0,6.74,0q.84-1.78.84-7.17T301,52.48Z"/><path class="cls-1" d="M335.71,58.93v.27q3.62.31,5.18,2.35a9.62,9.62,0,0,1,1.56,5.93c0,3.1-.87,5.24-2.6,6.4s-4.64,1.74-8.71,1.74q-9.92,0-15-.36V44q4.62-.36,13.48-.36,6.66,0,9.21,1.69t2.56,6.45a8.23,8.23,0,0,1-1.34,5.11,5.91,5.91,0,0,1-4.36,2Zm-10-2.72h3.49a3.14,3.14,0,0,0,2.26-.59,3.72,3.72,0,0,0,.54-2.4,3.44,3.44,0,0,0-.56-2.35,3.54,3.54,0,0,0-2.33-.54h-3.4v5.88Zm0,12.76h3.62a3.75,3.75,0,0,0,2.67-.68,4.33,4.33,0,0,0,.64-2.8,4.42,4.42,0,0,0-.64-2.85,3.78,3.78,0,0,0-2.71-.68h-3.58Z"/><path class="cls-1" d="M363.4,68.52h-8.55l-1.59,6.74h-10l8.1-28.69a3.45,3.45,0,0,1,1.22-1.83,3.31,3.31,0,0,1,2.09-.7h8.91a3.29,3.29,0,0,1,2.08.7,3.45,3.45,0,0,1,1.22,1.83L375,75.26H365l-1.58-6.74Zm-1.59-6.88-1.53-6.7c-.28-1.41-.46-2.61-.55-3.57h-1.22q-.27,2.13-.54,3.57l-1.54,6.7Z"/><polygon class="cls-1" points="399.78 51.37 391.05 51.37 391.05 75.26 381.23 75.26 381.23 51.37 372.49 51.37 372.49 44.04 399.78 44.04 399.78 51.37"/><path class="cls-1" d="M412.63,54.76h2.76q7.19,0,9.91,2.2T428,65.17q0,5.92-2.51,8.19c-1.67,1.51-4.46,2.26-8.35,2.26q-9.31,0-14.07-.36h-.27V44h9.82V54.76Zm0,14.07h2.76c1.17,0,1.94-.25,2.28-.76a6.62,6.62,0,0,0,.52-3.26,6.94,6.94,0,0,0-.52-3.31c-.34-.54-1.11-.81-2.28-.81h-2.76Z"/><polygon class="cls-2" points="123.86 44.04 123.86 75.26 114.04 75.26 114.04 50.46 106.35 50.46 106.35 75.26 96.53 75.26 96.53 44.04 123.86 44.04"/><path class="cls-2" d="M142.41,43.41A21.53,21.53,0,0,1,151,44.79a8.75,8.75,0,0,1,4.5,4.88q1.46,3.51,1.45,10t-1.45,10a8.78,8.78,0,0,1-4.5,4.88,21.53,21.53,0,0,1-8.62,1.38,21.42,21.42,0,0,1-8.58-1.38,8.78,8.78,0,0,1-4.5-4.88c-1-2.34-1.45-5.67-1.45-10s.49-7.64,1.45-10a8.75,8.75,0,0,1,4.5-4.88,21.42,21.42,0,0,1,8.58-1.38Zm3.37,9.07a4.07,4.07,0,0,0-6.74,0q-.84,1.79-.84,7.17t.84,7.17a4.07,4.07,0,0,0,6.74,0q.84-1.78.84-7.17T145.78,52.48Z"/><polygon class="cls-2" points="188.34 44.04 188.34 75.26 178.52 75.26 178.52 50.46 170.82 50.46 170.82 75.26 161 75.26 161 44.04 188.34 44.04"/><path class="cls-2" d="M193.45,75.26V44q4.61-.45,13.21-.45,7.47,0,10.2,2.21t2.74,8.42q0,6.11-2.53,8.33t-9,2.21a40.73,40.73,0,0,1-4.75-.27V75.26Zm9.82-17.42h3.16a3.68,3.68,0,0,0,2.67-.72,4.38,4.38,0,0,0,.68-2.9,4.52,4.52,0,0,0-.68-3,3.58,3.58,0,0,0-2.67-.75h-3.16Z"/><path class="cls-2" d="M236.3,43.41a21.53,21.53,0,0,1,8.62,1.38,8.75,8.75,0,0,1,4.5,4.88c1,2.34,1.45,5.67,1.45,10s-.49,7.64-1.45,10a8.78,8.78,0,0,1-4.5,4.88,27.49,27.49,0,0,1-17.2,0,8.78,8.78,0,0,1-4.5-4.88c-1-2.34-1.45-5.67-1.45-10s.49-7.64,1.45-10a8.75,8.75,0,0,1,4.5-4.88,21.42,21.42,0,0,1,8.58-1.38Zm3.37,9.07a3.35,3.35,0,0,0-3.37-1.79c-1.69,0-2.82.6-3.37,1.79s-.84,3.58-.84,7.17.28,6,.84,7.17,1.68,1.79,3.37,1.79a3.35,3.35,0,0,0,3.37-1.79q.84-1.78.84-7.17T239.67,52.48Z"/><path class="cls-2" d="M264.67,56.12h3.12c4.89,0,8.26.68,10.14,2s2.8,3.89,2.8,7.6-.9,6.28-2.71,7.71-4.79,2.15-8.92,2.15q-9.14,0-14-.36h-.27V44q5.29-.36,11.63-.36,5.79,0,12,.36l-.72,7H264.67v5.07Zm0,12.71h3.12a3.45,3.45,0,0,0,2.53-.65,4.33,4.33,0,0,0,.59-2.74,4.33,4.33,0,0,0-.59-2.74,3.5,3.5,0,0,0-2.53-.65h-3.12Z"/><path class="cls-2" d="M297.61,43.41a21.53,21.53,0,0,1,8.62,1.38,8.75,8.75,0,0,1,4.5,4.88q1.45,3.51,1.45,10t-1.45,10a8.78,8.78,0,0,1-4.5,4.88,27.49,27.49,0,0,1-17.2,0,8.78,8.78,0,0,1-4.5-4.88c-1-2.34-1.45-5.67-1.45-10s.49-7.64,1.45-10a8.75,8.75,0,0,1,4.5-4.88,21.42,21.42,0,0,1,8.58-1.38ZM301,52.48a4.07,4.07,0,0,0-6.74,0q-.84,1.79-.84,7.17t.84,7.17a4.07,4.07,0,0,0,6.74,0q.84-1.78.84-7.17T301,52.48Z"/><path class="cls-2" d="M335.71,58.93v.27q3.62.31,5.18,2.35a9.62,9.62,0,0,1,1.56,5.93c0,3.1-.87,5.24-2.6,6.4s-4.64,1.74-8.71,1.74q-9.92,0-15-.36V44q4.62-.36,13.48-.36,6.66,0,9.21,1.69t2.56,6.45a8.23,8.23,0,0,1-1.34,5.11,5.91,5.91,0,0,1-4.36,2Zm-10-2.72h3.49a3.14,3.14,0,0,0,2.26-.59,3.72,3.72,0,0,0,.54-2.4,3.44,3.44,0,0,0-.56-2.35,3.54,3.54,0,0,0-2.33-.54h-3.4v5.88Zm0,12.76h3.62a3.75,3.75,0,0,0,2.67-.68,4.33,4.33,0,0,0,.64-2.8,4.42,4.42,0,0,0-.64-2.85,3.78,3.78,0,0,0-2.71-.68h-3.58Z"/><path class="cls-2" d="M363.4,68.52h-8.55l-1.59,6.74h-10l8.1-28.69a3.45,3.45,0,0,1,1.22-1.83,3.31,3.31,0,0,1,2.09-.7h8.91a3.29,3.29,0,0,1,2.08.7,3.45,3.45,0,0,1,1.22,1.83L375,75.26H365l-1.58-6.74Zm-1.59-6.88-1.53-6.7c-.28-1.41-.46-2.61-.55-3.57h-1.22q-.27,2.13-.54,3.57l-1.54,6.7Z"/><polygon class="cls-2" points="399.78 51.37 391.05 51.37 391.05 75.26 381.23 75.26 381.23 51.37 372.49 51.37 372.49 44.04 399.78 44.04 399.78 51.37"/><path class="cls-2" d="M412.63,54.76h2.76q7.19,0,9.91,2.2T428,65.17q0,5.92-2.51,8.19c-1.67,1.51-4.46,2.26-8.35,2.26q-9.31,0-14.07-.36h-.27V44h9.82V54.76Zm0,14.07h2.76c1.17,0,1.94-.25,2.28-.76a6.62,6.62,0,0,0,.52-3.26,6.94,6.94,0,0,0-.52-3.31c-.34-.54-1.11-.81-2.28-.81h-2.76Z"/><path class="cls-3" d="M97.51,113.12l-.7-6.47a50,50,0,0,1,11-1q6.21,0,8.59,1.64c1.58,1.1,2.38,3.17,2.38,6.23a8.22,8.22,0,0,1-1.23,5,5.29,5.29,0,0,1-4,1.9v.27a6.27,6.27,0,0,1,4.77,2.27,9.61,9.61,0,0,1,1.44,5.73q0,4.5-2.43,6.18c-1.61,1.12-4.32,1.69-8.1,1.69a42.31,42.31,0,0,1-12.9-1.67l.7-6.16a68.17,68.17,0,0,0,10.32,1,3,3,0,0,0,2.16-.59,3.72,3.72,0,0,0,.55-2.39,3.89,3.89,0,0,0-.55-2.47,3.17,3.17,0,0,0-2.21-.63l-6.64-.13v-5.9l6.55-.13a2.52,2.52,0,0,0,1.8-.55,3.31,3.31,0,0,0,.43-2,3,3,0,0,0-.45-1.93,2.56,2.56,0,0,0-1.82-.48A86.77,86.77,0,0,0,97.51,113.12Z"/><path class="cls-3" d="M140.13,129.64h-8.26l-1.53,6.52h-9.66l7.82-27.72a3.34,3.34,0,0,1,1.18-1.77,3.23,3.23,0,0,1,2-.68h8.62a3.23,3.23,0,0,1,2,.68,3.34,3.34,0,0,1,1.18,1.77l7.82,27.72h-9.66l-1.53-6.52ZM138.6,123l-1.48-6.47c-.27-1.37-.44-2.52-.53-3.46h-1.18c-.17,1.37-.35,2.53-.52,3.46L133.4,123Z"/><polygon class="cls-3" points="179.82 105.99 179.82 136.16 170.34 136.16 170.34 112.2 162.91 112.2 162.91 136.16 153.42 136.16 153.42 105.99 179.82 105.99"/><path class="cls-3" d="M197.75,105.38a20.9,20.9,0,0,1,8.32,1.33,8.44,8.44,0,0,1,4.35,4.73c.94,2.25,1.4,5.47,1.4,9.63s-.46,7.38-1.4,9.64a8.39,8.39,0,0,1-4.35,4.72,26.41,26.41,0,0,1-16.61,0,8.39,8.39,0,0,1-4.35-4.72,26.22,26.22,0,0,1-1.4-9.64,26.16,26.16,0,0,1,1.4-9.63,8.44,8.44,0,0,1,4.35-4.73,20.84,20.84,0,0,1,8.29-1.33Zm3.25,8.77a3.93,3.93,0,0,0-6.51,0q-.81,1.72-.81,6.92t.81,6.93a3.93,3.93,0,0,0,6.51,0q.81-1.73.81-6.93T201,114.15Z"/><path class="cls-3" d="M241.42,106v30.17h-9.49v-24h-1.84c-1.45,0-2.23.67-2.31,2q-.79,10.46-2.1,14.78-1.44,5-4.55,6.6a12,12,0,0,1-7.78.78L212.7,129a13.86,13.86,0,0,0,1.9-.31A3.43,3.43,0,0,0,216,128a3.31,3.31,0,0,0,1-1.55q1.19-3.49,1.84-12.89.48-7.57,8-7.57Z"/><polygon class="cls-3" points="272.98 105.99 272.98 136.16 263.49 136.16 263.49 123.48 255.88 123.48 255.88 136.16 246.4 136.16 246.4 105.99 255.88 105.99 255.88 116.83 263.49 116.83 263.49 105.99 272.98 105.99"/><path class="cls-3" d="M305.06,136.16h-9V122.3a29.75,29.75,0,0,1,.48-4.68h-.31a24.28,24.28,0,0,1-1.83,4.63L287,136.16H278V106h9v13.38a32.26,32.26,0,0,1-.49,4.9h.31a26.78,26.78,0,0,1,1.92-4.64L296.06,106h9Z"/><path class="cls-3" d="M340.65,104.07v3.63q7.61.52,10.66,3.39t3.06,9.55q0,6.42-3.06,9.2t-10.66,3.3v3.63h-9.49v-3.63q-7.61-.48-10.67-3.28t-3.06-9.22q0-6.69,3.06-9.55t10.67-3.39v-3.63Zm-9,22.42V114.34c-1.93.21-3.19.74-3.78,1.6s-.9,2.42-.9,4.7q0,3.15.9,4.35t3.78,1.5Zm8.61-12.15v12.15q2.88-.3,3.78-1.5t.9-4.35q0-3.37-.9-4.68T340.21,114.34Z"/><path class="cls-3" d="M370.5,105.38a21,21,0,0,1,8.33,1.33,8.44,8.44,0,0,1,4.35,4.73,26.16,26.16,0,0,1,1.4,9.63,26.22,26.22,0,0,1-1.4,9.64,8.39,8.39,0,0,1-4.35,4.72,26.41,26.41,0,0,1-16.61,0,8.39,8.39,0,0,1-4.35-4.72,26.22,26.22,0,0,1-1.4-9.64,26.16,26.16,0,0,1,1.4-9.63,8.44,8.44,0,0,1,4.35-4.73,20.82,20.82,0,0,1,8.28-1.33Zm3.26,8.77a3.93,3.93,0,0,0-6.51,0q-.81,1.72-.81,6.92t.81,6.93a3.93,3.93,0,0,0,6.51,0q.81-1.73.81-6.93T373.76,114.15Z"/><path class="cls-3" d="M388.43,136.16V106q4.45-.43,12.76-.43,7.21,0,9.86,2.14t2.64,8.13c0,3.93-.81,6.61-2.45,8S406.7,126,402.5,126a38.27,38.27,0,0,1-4.59-.26v10.41Zm9.48-16.83H401a3.59,3.59,0,0,0,2.58-.7,4.24,4.24,0,0,0,.66-2.8,4.4,4.4,0,0,0-.66-2.86,3.44,3.44,0,0,0-2.58-.73h-3.06Z"/><path class="cls-3" d="M441.71,106h8.35c2.13,0,3.24,1.1,3.32,3.28l1.05,26.89h-8.52L445,113.07h-.65l-3,15.39q-.48,2.89-3.58,2.89h-4.9a3.26,3.26,0,0,1-3.63-2.89l-3-15.39h-.66l-.74,23.09h-8.53l1.05-26.89c.09-2.18,1.2-3.28,3.33-3.28h8.17a3.26,3.26,0,0,1,3.59,2.93l2.18,12q.22,1.39.48,4.5h.4c0-.09.06-.71.19-1.88s.24-2,.33-2.62l2.05-12A3.28,3.28,0,0,1,441.71,106Z"/><path class="cls-3" d="M483.9,106l-6.56,22a17,17,0,0,1-3.06,6.47,7.79,7.79,0,0,1-5.25,2.32,37.93,37.93,0,0,1-9.31-.61l1-6.47a38.05,38.05,0,0,0,5.09,0c1.09-.12,1.76-.53,2-1.23l.17-.7h-1.79a4.24,4.24,0,0,1-3.06-1.05,6.66,6.66,0,0,1-1.66-3.06L456.05,106h9.71l3.4,14.65c.06.32.3.48.7.48h.4L474.19,106Z"/><path class="cls-4" d="M97.51,113.12l-.7-6.47a50,50,0,0,1,11-1q6.21,0,8.59,1.64c1.58,1.1,2.38,3.17,2.38,6.23a8.22,8.22,0,0,1-1.23,5,5.29,5.29,0,0,1-4,1.9v.27a6.27,6.27,0,0,1,4.77,2.27,9.61,9.61,0,0,1,1.44,5.73q0,4.5-2.43,6.18c-1.61,1.12-4.32,1.69-8.1,1.69a42.31,42.31,0,0,1-12.9-1.67l.7-6.16a68.17,68.17,0,0,0,10.32,1,3,3,0,0,0,2.16-.59,3.72,3.72,0,0,0,.55-2.39,3.89,3.89,0,0,0-.55-2.47,3.17,3.17,0,0,0-2.21-.63l-6.64-.13v-5.9l6.55-.13a2.52,2.52,0,0,0,1.8-.55,3.31,3.31,0,0,0,.43-2,3,3,0,0,0-.45-1.93,2.56,2.56,0,0,0-1.82-.48A86.77,86.77,0,0,0,97.51,113.12Z"/><path class="cls-4" d="M140.13,129.64h-8.26l-1.53,6.52h-9.66l7.82-27.72a3.34,3.34,0,0,1,1.18-1.77,3.23,3.23,0,0,1,2-.68h8.62a3.23,3.23,0,0,1,2,.68,3.34,3.34,0,0,1,1.18,1.77l7.82,27.72h-9.66l-1.53-6.52ZM138.6,123l-1.48-6.47c-.27-1.37-.44-2.52-.53-3.46h-1.18c-.17,1.37-.35,2.53-.52,3.46L133.4,123Z"/><polygon class="cls-4" points="179.82 105.99 179.82 136.16 170.34 136.16 170.34 112.2 162.91 112.2 162.91 136.16 153.42 136.16 153.42 105.99 179.82 105.99"/><path class="cls-4" d="M197.75,105.38a20.9,20.9,0,0,1,8.32,1.33,8.44,8.44,0,0,1,4.35,4.73c.94,2.25,1.4,5.47,1.4,9.63s-.46,7.38-1.4,9.64a8.39,8.39,0,0,1-4.35,4.72,26.41,26.41,0,0,1-16.61,0,8.39,8.39,0,0,1-4.35-4.72,26.22,26.22,0,0,1-1.4-9.64,26.16,26.16,0,0,1,1.4-9.63,8.44,8.44,0,0,1,4.35-4.73,20.84,20.84,0,0,1,8.29-1.33Zm3.25,8.77a3.93,3.93,0,0,0-6.51,0q-.81,1.72-.81,6.92t.81,6.93a3.93,3.93,0,0,0,6.51,0q.81-1.73.81-6.93T201,114.15Z"/><path class="cls-4" d="M241.42,106v30.17h-9.49v-24h-1.84c-1.45,0-2.23.67-2.31,2q-.79,10.46-2.1,14.78-1.44,5-4.55,6.6a12,12,0,0,1-7.78.78L212.7,129a13.86,13.86,0,0,0,1.9-.31A3.43,3.43,0,0,0,216,128a3.31,3.31,0,0,0,1-1.55q1.19-3.49,1.84-12.89.48-7.57,8-7.57Z"/><polygon class="cls-4" points="272.98 105.99 272.98 136.16 263.49 136.16 263.49 123.48 255.88 123.48 255.88 136.16 246.4 136.16 246.4 105.99 255.88 105.99 255.88 116.83 263.49 116.83 263.49 105.99 272.98 105.99"/><path class="cls-4" d="M305.06,136.16h-9V122.3a29.75,29.75,0,0,1,.48-4.68h-.31a24.28,24.28,0,0,1-1.83,4.63L287,136.16H278V106h9v13.38a32.26,32.26,0,0,1-.49,4.9h.31a26.78,26.78,0,0,1,1.92-4.64L296.06,106h9Z"/><path class="cls-4" d="M340.65,104.07v3.63q7.61.52,10.66,3.39t3.06,9.55q0,6.42-3.06,9.2t-10.66,3.3v3.63h-9.49v-3.63q-7.61-.48-10.67-3.28t-3.06-9.22q0-6.69,3.06-9.55t10.67-3.39v-3.63Zm-9,22.42V114.34c-1.93.21-3.19.74-3.78,1.6s-.9,2.42-.9,4.7q0,3.15.9,4.35t3.78,1.5Zm8.61-12.15v12.15q2.88-.3,3.78-1.5t.9-4.35q0-3.37-.9-4.68T340.21,114.34Z"/><path class="cls-4" d="M370.5,105.38a21,21,0,0,1,8.33,1.33,8.44,8.44,0,0,1,4.35,4.73,26.16,26.16,0,0,1,1.4,9.63,26.22,26.22,0,0,1-1.4,9.64,8.39,8.39,0,0,1-4.35,4.72,26.41,26.41,0,0,1-16.61,0,8.39,8.39,0,0,1-4.35-4.72,26.22,26.22,0,0,1-1.4-9.64,26.16,26.16,0,0,1,1.4-9.63,8.44,8.44,0,0,1,4.35-4.73,20.82,20.82,0,0,1,8.28-1.33Zm3.26,8.77a3.93,3.93,0,0,0-6.51,0q-.81,1.72-.81,6.92t.81,6.93a3.93,3.93,0,0,0,6.51,0q.81-1.73.81-6.93T373.76,114.15Z"/><path class="cls-4" d="M388.43,136.16V106q4.45-.43,12.76-.43,7.21,0,9.86,2.14t2.64,8.13c0,3.93-.81,6.61-2.45,8S406.7,126,402.5,126a38.27,38.27,0,0,1-4.59-.26v10.41Zm9.48-16.83H401a3.59,3.59,0,0,0,2.58-.7,4.24,4.24,0,0,0,.66-2.8,4.4,4.4,0,0,0-.66-2.86,3.44,3.44,0,0,0-2.58-.73h-3.06Z"/><path class="cls-4" d="M441.71,106h8.35c2.13,0,3.24,1.1,3.32,3.28l1.05,26.89h-8.52L445,113.07h-.65l-3,15.39q-.48,2.89-3.58,2.89h-4.9a3.26,3.26,0,0,1-3.63-2.89l-3-15.39h-.66l-.74,23.09h-8.53l1.05-26.89c.09-2.18,1.2-3.28,3.33-3.28h8.17a3.26,3.26,0,0,1,3.59,2.93l2.18,12q.22,1.39.48,4.5h.4c0-.09.06-.71.19-1.88s.24-2,.33-2.62l2.05-12A3.28,3.28,0,0,1,441.71,106Z"/><path class="cls-4" d="M483.9,106l-6.56,22a17,17,0,0,1-3.06,6.47,7.79,7.79,0,0,1-5.25,2.32,37.93,37.93,0,0,1-9.31-.61l1-6.47a38.05,38.05,0,0,0,5.09,0c1.09-.12,1.76-.53,2-1.23l.17-.7h-1.79a4.24,4.24,0,0,1-3.06-1.05,6.66,6.66,0,0,1-1.66-3.06L456.05,106h9.71l3.4,14.65c.06.32.3.48.7.48h.4L474.19,106Z"/><path class="cls-3" d="M27.78,175.57H20.32V164.09a24.29,24.29,0,0,1,.4-3.88h-.25a20.74,20.74,0,0,1-1.53,3.84l-6.12,11.52H5.33v-25h7.46v11.08a26.92,26.92,0,0,1-.4,4.06h.25a21.43,21.43,0,0,1,1.6-3.84l6.08-11.3h7.46Z"/><path class="cls-3" d="M60.09,150.58H67a2.47,2.47,0,0,1,2.75,2.71l.87,22.28H63.57l-.77-19.12h-.54L59.8,169.19a2.66,2.66,0,0,1-3,2.39H52.77a2.7,2.7,0,0,1-3-2.39l-2.5-12.74h-.55l-.61,19.12H39.05l.86-22.28a2.48,2.48,0,0,1,2.76-2.71h6.77a2.69,2.69,0,0,1,3,2.43l1.81,9.92c.12.77.25,2,.4,3.73H55c0-.07,0-.59.16-1.56s.2-1.69.27-2.17l1.7-9.92A2.71,2.71,0,0,1,60.09,150.58Z"/><path class="cls-3" d="M82.18,159.16h2q5.69,0,7.84,1.76t2.16,6.57q0,4.74-2,6.56c-1.32,1.2-3.52,1.81-6.59,1.81q-7.35,0-11.12-.29h-.21v-25h7.89v8.58Zm22.56-8.58v25H96.85v-25ZM82.18,170.43h2c.87,0,1.44-.21,1.7-.62a5.46,5.46,0,0,0,.4-2.61,5.68,5.68,0,0,0-.4-2.66c-.26-.42-.83-.63-1.7-.63h-2Z"/><path class="cls-3" d="M135.1,169.09l.57,5.72a27.49,27.49,0,0,1-8.76,1.19q-6.22,0-8.78-2.89t-2.56-10q0-7.12,2.56-10t8.78-2.9a31.19,31.19,0,0,1,8.22,1l-.58,5.72c-3.38,0-5.93-.07-7.64-.07a2.47,2.47,0,0,0-2.46,1.25,13.36,13.36,0,0,0-.62,5,13.43,13.43,0,0,0,.62,5.06,2.47,2.47,0,0,0,2.46,1.25Q132.31,169.38,135.1,169.09Z"/><path class="cls-3" d="M154,162.49v.22a5.6,5.6,0,0,1,4.15,1.88,7.73,7.73,0,0,1,1.25,4.75c0,2.49-.7,4.19-2.09,5.12s-3.71,1.4-7,1.4q-7.93,0-12-.29v-25q3.71-.29,10.8-.29c3.55,0,6,.45,7.37,1.36s2,2.62,2,5.16a6.61,6.61,0,0,1-1.06,4.09,4.71,4.71,0,0,1-3.5,1.59Zm-8-2.17h2.79a2.52,2.52,0,0,0,1.81-.47,3,3,0,0,0,.44-1.92,2.65,2.65,0,0,0-.46-1.88,2.79,2.79,0,0,0-1.86-.44H146v4.71Zm0,10.21h2.9a3,3,0,0,0,2.14-.54,3.45,3.45,0,0,0,.5-2.24,3.58,3.58,0,0,0-.5-2.29,3.1,3.1,0,0,0-2.18-.54H146Z"/><path class="cls-3" d="M166.71,164v-.22q-4.85-.51-4.85-5.94,0-4.27,2.37-5.94t7.88-1.66c4.47,0,7.89.12,10.29.36v25h-7.86v-9.13h-2a2.14,2.14,0,0,0-1.38.35,2.43,2.43,0,0,0-.58,1.35l-1.55,7.43h-8.22l1.88-7.68a4.39,4.39,0,0,1,4-3.91Zm7.83-3.08v-5.14h-2.25a3,3,0,0,0-2,.5,3.15,3.15,0,0,0-.48,2.07,3.1,3.1,0,0,0,.48,2.06,2.93,2.93,0,0,0,2,.51Z"/><path class="cls-3" d="M211,162.42v.22c.87.14,1.57.28,2.09.42a4,4,0,0,1,1.5.76,5.22,5.22,0,0,1,1.14,1.17,10.48,10.48,0,0,1,.94,2c.35.92.66,1.86.93,2.81s.63,2.3,1.12,4c.19.75.35,1.33.47,1.74H211c-1.52-5.24-2.41-8.14-2.65-8.69-.38-1-.85-1.52-1.41-1.67a2.71,2.71,0,0,0-.72-.07h-.84a9.88,9.88,0,0,1,.29,2.28v8.15h-7.49v-8.15a10.71,10.71,0,0,1,.32-2.28h-.87a1.74,1.74,0,0,0-1.36.51,6,6,0,0,0-.95,1.9q-.51,1.39-1.56,5c-.36,1.26-.65,2.26-.87,3h-8.22c1.37-5,2.28-8.08,2.71-9.09A5.61,5.61,0,0,1,190,163.4a10.1,10.1,0,0,1,2.89-.76v-.22c-.58-.07-1.07-.16-1.48-.25a4.66,4.66,0,0,1-1.16-.45c-.36-.21-.66-.38-.89-.53a2.5,2.5,0,0,1-.74-.87,11.37,11.37,0,0,1-.6-1,13.25,13.25,0,0,1-.56-1.52c-.24-.75-.43-1.36-.56-1.85s-.36-1.29-.67-2.42-.58-2.1-.8-2.9h8q1.92,6.88,2.24,7.68c.42,1,.93,1.63,1.56,1.77a2.64,2.64,0,0,0,.51,0h.9a13.49,13.49,0,0,1-.36-3.19v-6.3h7.46v6.3a16.51,16.51,0,0,1-.32,3.19h.79a1.92,1.92,0,0,0,1.82-1.14,40.47,40.47,0,0,0,1.81-5.64c.31-1.13.56-2,.76-2.71h8c-.21.8-.48,1.76-.79,2.9s-.54,1.94-.67,2.42-.32,1.1-.56,1.85a12.73,12.73,0,0,1-.57,1.52c-.13.27-.33.62-.59,1a2.62,2.62,0,0,1-.75.87c-.22.15-.52.32-.88.53a4.66,4.66,0,0,1-1.16.45C212.12,162.26,211.62,162.35,211,162.42Z"/><path class="cls-3" d="M239.76,169.7l.37,5.54a117.34,117.34,0,0,1-13,.47,5.86,5.86,0,0,1-4.22-1.57,5.45,5.45,0,0,1-1.64-4.11V156.12A5.45,5.45,0,0,1,222.9,152a5.87,5.87,0,0,1,4.22-1.58,120,120,0,0,1,13,.47l-.37,5.55H230.6a1.58,1.58,0,0,0-1.09.36,1.21,1.21,0,0,0-.39.94v2.43h9.34v5.21h-9.34v3a1.23,1.23,0,0,0,.39.94,1.58,1.58,0,0,0,1.09.36Z"/><path class="cls-3" d="M263.78,150.58h6.91a2.48,2.48,0,0,1,2.76,2.71l.87,22.28h-7.07l-.76-19.12H266l-2.46,12.74a2.66,2.66,0,0,1-3,2.39h-4.06a2.7,2.7,0,0,1-3-2.39L251,156.45h-.55l-.61,19.12h-7.07l.87-22.28a2.48,2.48,0,0,1,2.76-2.71h6.77a2.69,2.69,0,0,1,3,2.43l1.81,9.92c.12.77.25,2,.4,3.73h.32c0-.07.06-.59.17-1.56s.2-1.69.27-2.17l1.7-9.92A2.71,2.71,0,0,1,263.78,150.58Z"/><path class="cls-3" d="M296.59,169.09l.58,5.72A27.56,27.56,0,0,1,288.4,176q-6.22,0-8.78-2.89t-2.55-10q0-7.12,2.55-10t8.78-2.9a31.22,31.22,0,0,1,8.23,1l-.58,5.72c-3.38,0-5.93-.07-7.65-.07a2.47,2.47,0,0,0-2.46,1.25,13.42,13.42,0,0,0-.61,5,13.49,13.49,0,0,0,.61,5.06,2.47,2.47,0,0,0,2.46,1.25Q293.8,169.38,296.59,169.09Z"/><path class="cls-3" d="M304.16,164v-.22c-3.24-.34-4.85-2.32-4.85-5.94q0-4.27,2.37-5.94t7.88-1.66q6.69,0,10.28.36v25H312v-9.13h-2a2.12,2.12,0,0,0-1.38.35,2.3,2.3,0,0,0-.58,1.35l-1.56,7.43h-8.22l1.89-7.68a4.39,4.39,0,0,1,4-3.91ZM312,160.9v-5.14h-2.24a3,3,0,0,0-2.05.5,3.08,3.08,0,0,0-.49,2.07,3,3,0,0,0,.49,2.06,2.93,2.93,0,0,0,2.05.51Z"/><path class="cls-3" d="M350.16,169.09l.58,5.72A27.56,27.56,0,0,1,342,176q-6.23,0-8.78-2.89t-2.56-10q0-7.12,2.56-10t8.78-2.9a31.08,31.08,0,0,1,8.22,1l-.58,5.72c-3.38,0-5.92-.07-7.64-.07a2.47,2.47,0,0,0-2.46,1.25,13.36,13.36,0,0,0-.62,5,13.43,13.43,0,0,0,.62,5.06,2.47,2.47,0,0,0,2.46,1.25Q347.37,169.38,350.16,169.09Z"/><polygon class="cls-3" points="381.19 156.44 374.2 156.44 374.2 175.57 366.35 175.57 366.35 156.44 359.36 156.44 359.36 150.58 381.19 150.58 381.19 156.44"/><path class="cls-3" d="M394.16,150.07a17.15,17.15,0,0,1,6.9,1.11,7,7,0,0,1,3.6,3.91,21.49,21.49,0,0,1,1.16,8,21.52,21.52,0,0,1-1.16,8,7,7,0,0,1-3.6,3.91,21.88,21.88,0,0,1-13.76,0,7,7,0,0,1-3.61-3.91,21.73,21.73,0,0,1-1.16-8,21.7,21.7,0,0,1,1.16-8,7,7,0,0,1,3.61-3.91,17,17,0,0,1,6.86-1.11Zm2.7,7.26a3.26,3.26,0,0,0-5.4,0c-.44,1-.67,2.87-.67,5.74s.23,4.79.67,5.74a3.26,3.26,0,0,0,5.4,0q.67-1.42.67-5.74T396.86,157.33Z"/><path class="cls-3" d="M416.87,160.25h2.5q5.86,0,8.11,1.63t2.25,6.08q0,4.46-2.18,6.18c-1.45,1.14-3.82,1.72-7.13,1.72q-7.32,0-11.19-.29H409v-25q4.25-.29,9.31-.29,4.64,0,9.63.29l-.58,5.61h-10.5v4.06Zm0,10.18h2.5a2.79,2.79,0,0,0,2-.53,5.34,5.34,0,0,0,0-4.38,2.79,2.79,0,0,0-2-.53h-2.5Z"/><path class="cls-3" d="M443.24,150.07a17.15,17.15,0,0,1,6.9,1.11,7,7,0,0,1,3.6,3.91,21.7,21.7,0,0,1,1.16,8,21.73,21.73,0,0,1-1.16,8,7,7,0,0,1-3.6,3.91,21.91,21.91,0,0,1-13.77,0,7,7,0,0,1-3.6-3.91,21.73,21.73,0,0,1-1.16-8,21.7,21.7,0,0,1,1.16-8,7,7,0,0,1,3.6-3.91,17.06,17.06,0,0,1,6.87-1.11Zm2.69,7.26a3.25,3.25,0,0,0-5.39,0q-.68,1.44-.67,5.74t.67,5.74a3.25,3.25,0,0,0,5.39,0q.68-1.42.67-5.74T445.93,157.33Z"/><path class="cls-3" d="M471.52,142.61h4.6a4.68,4.68,0,0,1-1.37,4.35,7.67,7.67,0,0,1-10.15,0,4.78,4.78,0,0,1-1.41-4.35h4.6a3.08,3.08,0,0,0,.25,2.19,2,2,0,0,0,1.63.6,1.93,1.93,0,0,0,1.6-.6,3,3,0,0,0,.25-2.19Zm9.06,33h-7.46V164.09a25.3,25.3,0,0,1,.39-3.88h-.25a20.08,20.08,0,0,1-1.52,3.84l-6.12,11.52h-7.5v-25h7.46v11.08a26.92,26.92,0,0,1-.4,4.06h.26a22.19,22.19,0,0,1,1.59-3.84l6.09-11.3h7.46Z"/><path class="cls-5" d="M27.78,175.57H20.32V164.09a24.29,24.29,0,0,1,.4-3.88h-.25a20.74,20.74,0,0,1-1.53,3.84l-6.12,11.52H5.33v-25h7.46v11.08a26.92,26.92,0,0,1-.4,4.06h.25a21.43,21.43,0,0,1,1.6-3.84l6.08-11.3h7.46Z"/><path class="cls-5" d="M60.09,150.58H67a2.47,2.47,0,0,1,2.75,2.71l.87,22.28H63.57l-.77-19.12h-.54L59.8,169.19a2.66,2.66,0,0,1-3,2.39H52.77a2.7,2.7,0,0,1-3-2.39l-2.5-12.74h-.55l-.61,19.12H39.05l.86-22.28a2.48,2.48,0,0,1,2.76-2.71h6.77a2.69,2.69,0,0,1,3,2.43l1.81,9.92c.12.77.25,2,.4,3.73H55c0-.07,0-.59.16-1.56s.2-1.69.27-2.17l1.7-9.92A2.71,2.71,0,0,1,60.09,150.58Z"/><path class="cls-5" d="M82.18,159.16h2q5.69,0,7.84,1.76t2.16,6.57q0,4.74-2,6.56c-1.32,1.2-3.52,1.81-6.59,1.81q-7.35,0-11.12-.29h-.21v-25h7.89v8.58Zm22.56-8.58v25H96.85v-25ZM82.18,170.43h2c.87,0,1.44-.21,1.7-.62a5.46,5.46,0,0,0,.4-2.61,5.68,5.68,0,0,0-.4-2.66c-.26-.42-.83-.63-1.7-.63h-2Z"/><path class="cls-5" d="M135.1,169.09l.57,5.72a27.49,27.49,0,0,1-8.76,1.19q-6.22,0-8.78-2.89t-2.56-10q0-7.12,2.56-10t8.78-2.9a31.19,31.19,0,0,1,8.22,1l-.58,5.72c-3.38,0-5.93-.07-7.64-.07a2.47,2.47,0,0,0-2.46,1.25,13.36,13.36,0,0,0-.62,5,13.43,13.43,0,0,0,.62,5.06,2.47,2.47,0,0,0,2.46,1.25Q132.31,169.38,135.1,169.09Z"/><path class="cls-5" d="M154,162.49v.22a5.6,5.6,0,0,1,4.15,1.88,7.73,7.73,0,0,1,1.25,4.75c0,2.49-.7,4.19-2.09,5.12s-3.71,1.4-7,1.4q-7.93,0-12-.29v-25q3.71-.29,10.8-.29c3.55,0,6,.45,7.37,1.36s2,2.62,2,5.16a6.61,6.61,0,0,1-1.06,4.09,4.71,4.71,0,0,1-3.5,1.59Zm-8-2.17h2.79a2.52,2.52,0,0,0,1.81-.47,3,3,0,0,0,.44-1.92,2.65,2.65,0,0,0-.46-1.88,2.79,2.79,0,0,0-1.86-.44H146v4.71Zm0,10.21h2.9a3,3,0,0,0,2.14-.54,3.45,3.45,0,0,0,.5-2.24,3.58,3.58,0,0,0-.5-2.29,3.1,3.1,0,0,0-2.18-.54H146Z"/><path class="cls-5" d="M166.71,164v-.22q-4.85-.51-4.85-5.94,0-4.27,2.37-5.94t7.88-1.66c4.47,0,7.89.12,10.29.36v25h-7.86v-9.13h-2a2.14,2.14,0,0,0-1.38.35,2.43,2.43,0,0,0-.58,1.35l-1.55,7.43h-8.22l1.88-7.68a4.39,4.39,0,0,1,4-3.91Zm7.83-3.08v-5.14h-2.25a3,3,0,0,0-2,.5,3.15,3.15,0,0,0-.48,2.07,3.1,3.1,0,0,0,.48,2.06,2.93,2.93,0,0,0,2,.51Z"/><path class="cls-5" d="M211,162.42v.22c.87.14,1.57.28,2.09.42a4,4,0,0,1,1.5.76,5.22,5.22,0,0,1,1.14,1.17,10.48,10.48,0,0,1,.94,2c.35.92.66,1.86.93,2.81s.63,2.3,1.12,4c.19.75.35,1.33.47,1.74H211c-1.52-5.24-2.41-8.14-2.65-8.69-.38-1-.85-1.52-1.41-1.67a2.71,2.71,0,0,0-.72-.07h-.84a9.88,9.88,0,0,1,.29,2.28v8.15h-7.49v-8.15a10.71,10.71,0,0,1,.32-2.28h-.87a1.74,1.74,0,0,0-1.36.51,6,6,0,0,0-.95,1.9q-.51,1.39-1.56,5c-.36,1.26-.65,2.26-.87,3h-8.22c1.37-5,2.28-8.08,2.71-9.09A5.61,5.61,0,0,1,190,163.4a10.1,10.1,0,0,1,2.89-.76v-.22c-.58-.07-1.07-.16-1.48-.25a4.66,4.66,0,0,1-1.16-.45c-.36-.21-.66-.38-.89-.53a2.5,2.5,0,0,1-.74-.87,11.37,11.37,0,0,1-.6-1,13.25,13.25,0,0,1-.56-1.52c-.24-.75-.43-1.36-.56-1.85s-.36-1.29-.67-2.42-.58-2.1-.8-2.9h8q1.92,6.88,2.24,7.68c.42,1,.93,1.63,1.56,1.77a2.64,2.64,0,0,0,.51,0h.9a13.49,13.49,0,0,1-.36-3.19v-6.3h7.46v6.3a16.51,16.51,0,0,1-.32,3.19h.79a1.92,1.92,0,0,0,1.82-1.14,40.47,40.47,0,0,0,1.81-5.64c.31-1.13.56-2,.76-2.71h8c-.21.8-.48,1.76-.79,2.9s-.54,1.94-.67,2.42-.32,1.1-.56,1.85a12.73,12.73,0,0,1-.57,1.52c-.13.27-.33.62-.59,1a2.62,2.62,0,0,1-.75.87c-.22.15-.52.32-.88.53a4.66,4.66,0,0,1-1.16.45C212.12,162.26,211.62,162.35,211,162.42Z"/><path class="cls-5" d="M239.76,169.7l.37,5.54a117.34,117.34,0,0,1-13,.47,5.86,5.86,0,0,1-4.22-1.57,5.45,5.45,0,0,1-1.64-4.11V156.12A5.45,5.45,0,0,1,222.9,152a5.87,5.87,0,0,1,4.22-1.58,120,120,0,0,1,13,.47l-.37,5.55H230.6a1.58,1.58,0,0,0-1.09.36,1.21,1.21,0,0,0-.39.94v2.43h9.34v5.21h-9.34v3a1.23,1.23,0,0,0,.39.94,1.58,1.58,0,0,0,1.09.36Z"/><path class="cls-5" d="M263.78,150.58h6.91a2.48,2.48,0,0,1,2.76,2.71l.87,22.28h-7.07l-.76-19.12H266l-2.46,12.74a2.66,2.66,0,0,1-3,2.39h-4.06a2.7,2.7,0,0,1-3-2.39L251,156.45h-.55l-.61,19.12h-7.07l.87-22.28a2.48,2.48,0,0,1,2.76-2.71h6.77a2.69,2.69,0,0,1,3,2.43l1.81,9.92c.12.77.25,2,.4,3.73h.32c0-.07.06-.59.17-1.56s.2-1.69.27-2.17l1.7-9.92A2.71,2.71,0,0,1,263.78,150.58Z"/><path class="cls-5" d="M296.59,169.09l.58,5.72A27.56,27.56,0,0,1,288.4,176q-6.22,0-8.78-2.89t-2.55-10q0-7.12,2.55-10t8.78-2.9a31.22,31.22,0,0,1,8.23,1l-.58,5.72c-3.38,0-5.93-.07-7.65-.07a2.47,2.47,0,0,0-2.46,1.25,13.42,13.42,0,0,0-.61,5,13.49,13.49,0,0,0,.61,5.06,2.47,2.47,0,0,0,2.46,1.25Q293.8,169.38,296.59,169.09Z"/><path class="cls-5" d="M304.16,164v-.22c-3.24-.34-4.85-2.32-4.85-5.94q0-4.27,2.37-5.94t7.88-1.66q6.69,0,10.28.36v25H312v-9.13h-2a2.12,2.12,0,0,0-1.38.35,2.3,2.3,0,0,0-.58,1.35l-1.56,7.43h-8.22l1.89-7.68a4.39,4.39,0,0,1,4-3.91ZM312,160.9v-5.14h-2.24a3,3,0,0,0-2.05.5,3.08,3.08,0,0,0-.49,2.07,3,3,0,0,0,.49,2.06,2.93,2.93,0,0,0,2.05.51Z"/><path class="cls-5" d="M350.16,169.09l.58,5.72A27.56,27.56,0,0,1,342,176q-6.23,0-8.78-2.89t-2.56-10q0-7.12,2.56-10t8.78-2.9a31.08,31.08,0,0,1,8.22,1l-.58,5.72c-3.38,0-5.92-.07-7.64-.07a2.47,2.47,0,0,0-2.46,1.25,13.36,13.36,0,0,0-.62,5,13.43,13.43,0,0,0,.62,5.06,2.47,2.47,0,0,0,2.46,1.25Q347.37,169.38,350.16,169.09Z"/><polygon class="cls-5" points="381.19 156.44 374.2 156.44 374.2 175.57 366.35 175.57 366.35 156.44 359.36 156.44 359.36 150.58 381.19 150.58 381.19 156.44"/><path class="cls-5" d="M394.16,150.07a17.15,17.15,0,0,1,6.9,1.11,7,7,0,0,1,3.6,3.91,21.49,21.49,0,0,1,1.16,8,21.52,21.52,0,0,1-1.16,8,7,7,0,0,1-3.6,3.91,21.88,21.88,0,0,1-13.76,0,7,7,0,0,1-3.61-3.91,21.73,21.73,0,0,1-1.16-8,21.7,21.7,0,0,1,1.16-8,7,7,0,0,1,3.61-3.91,17,17,0,0,1,6.86-1.11Zm2.7,7.26a3.26,3.26,0,0,0-5.4,0c-.44,1-.67,2.87-.67,5.74s.23,4.79.67,5.74a3.26,3.26,0,0,0,5.4,0q.67-1.42.67-5.74T396.86,157.33Z"/><path class="cls-5" d="M416.87,160.25h2.5q5.86,0,8.11,1.63t2.25,6.08q0,4.46-2.18,6.18c-1.45,1.14-3.82,1.72-7.13,1.72q-7.32,0-11.19-.29H409v-25q4.25-.29,9.31-.29,4.64,0,9.63.29l-.58,5.61h-10.5v4.06Zm0,10.18h2.5a2.79,2.79,0,0,0,2-.53,5.34,5.34,0,0,0,0-4.38,2.79,2.79,0,0,0-2-.53h-2.5Z"/><path class="cls-5" d="M443.24,150.07a17.15,17.15,0,0,1,6.9,1.11,7,7,0,0,1,3.6,3.91,21.7,21.7,0,0,1,1.16,8,21.73,21.73,0,0,1-1.16,8,7,7,0,0,1-3.6,3.91,21.91,21.91,0,0,1-13.77,0,7,7,0,0,1-3.6-3.91,21.73,21.73,0,0,1-1.16-8,21.7,21.7,0,0,1,1.16-8,7,7,0,0,1,3.6-3.91,17.06,17.06,0,0,1,6.87-1.11Zm2.69,7.26a3.25,3.25,0,0,0-5.39,0q-.68,1.44-.67,5.74t.67,5.74a3.25,3.25,0,0,0,5.39,0q.68-1.42.67-5.74T445.93,157.33Z"/><path class="cls-5" d="M471.52,142.61h4.6a4.68,4.68,0,0,1-1.37,4.35,7.67,7.67,0,0,1-10.15,0,4.78,4.78,0,0,1-1.41-4.35h4.6a3.08,3.08,0,0,0,.25,2.19,2,2,0,0,0,1.63.6,1.93,1.93,0,0,0,1.6-.6,3,3,0,0,0,.25-2.19Zm9.06,33h-7.46V164.09a25.3,25.3,0,0,1,.39-3.88h-.25a20.08,20.08,0,0,1-1.52,3.84l-6.12,11.52h-7.5v-25h7.46v11.08a26.92,26.92,0,0,1-.4,4.06h.26a22.19,22.19,0,0,1,1.59-3.84l6.09-11.3h7.46Z"/><path class="cls-5" d="M449.83,71.7a10.09,10.09,0,0,1-3.27-7.58,9.77,9.77,0,0,1,3.22-7.55,11.8,11.8,0,0,1,8.31-3,12,12,0,0,1,8.37,3,9.74,9.74,0,0,1,3.26,7.55,10.12,10.12,0,0,1-3.26,7.58,11.57,11.57,0,0,1-8.37,3.11,11.4,11.4,0,0,1-8.26-3.11Zm1.43-32.21a43.74,43.74,0,0,1,6.53-7.3,37.11,37.11,0,0,0,4.37-4.63,6.58,6.58,0,0,0,1.43-4,5.57,5.57,0,0,0-2.48-4.75A11,11,0,0,0,454.62,17a14.35,14.35,0,0,0-7.39,2,14.74,14.74,0,0,0-5.35,5.4l-15.2-8.15A28.73,28.73,0,0,1,438.52,5.06c5.08-2.64,11.24-4,18.45-4q12.12,0,19.52,5.06a16.12,16.12,0,0,1,7.41,14.12,18.28,18.28,0,0,1-1.44,7.39A20.26,20.26,0,0,1,479,33.07,63.61,63.61,0,0,1,473.89,38a37.46,37.46,0,0,0-5.08,5.06,7.55,7.55,0,0,0-1.63,4.84H449A14.62,14.62,0,0,1,451.26,39.49Z"/><path class="cls-2" d="M468.65,64.12a1.08,1.08,0,1,1,2.15,0,11.47,11.47,0,0,1-.9,4.55A12.12,12.12,0,0,1,463.12,75a14.32,14.32,0,0,1-5,.85,14.05,14.05,0,0,1-4.95-.84,11.91,11.91,0,0,1-4.06-2.57,11.69,11.69,0,0,1-2.69-3.81,11.27,11.27,0,0,1-.91-4.55,10.82,10.82,0,0,1,3.57-8.34h0a12,12,0,0,1,4.05-2.45,14.71,14.71,0,0,1,5-.81,16.52,16.52,0,0,1,3.12.29h0a13.18,13.18,0,0,1,2.79.89,1.08,1.08,0,1,1-.89,2,11.24,11.24,0,0,0-2.32-.74h0a13.67,13.67,0,0,0-2.7-.26,12.28,12.28,0,0,0-4.26.69,9.42,9.42,0,0,0-3.32,2h0a8.72,8.72,0,0,0-2.86,6.75,9.1,9.1,0,0,0,.73,3.69,9.37,9.37,0,0,0,2.2,3.12A9.59,9.59,0,0,0,453.9,73a11.8,11.8,0,0,0,4.19.71,12.27,12.27,0,0,0,4.28-.71,9.94,9.94,0,0,0,5.55-5.22,9.27,9.27,0,0,0,.73-3.69ZM435.4,5.62q.59-.37,1.29-.78c.46-.27.91-.51,1.33-.73a31.69,31.69,0,0,1,4-1.73,36.8,36.8,0,0,1,4.33-1.26,45.19,45.19,0,0,1,5.12-.84A52.35,52.35,0,0,1,457,0a45.08,45.08,0,0,1,11.2,1.3,28.32,28.32,0,0,1,8.92,4l.06,0a17.57,17.57,0,0,1,5.84,6.4,18.09,18.09,0,0,1,2,8.57,21.54,21.54,0,0,1-.38,4.1,17.71,17.71,0,0,1-1.15,3.72l0,0a24.44,24.44,0,0,1-1.63,3.06,18.15,18.15,0,0,1-2,2.61c-.29.32-.62.66-1,1s-.7.71-1.09,1.08a1.08,1.08,0,1,1-1.49-1.55c.37-.35.71-.69,1-1s.62-.65.92-1A15.59,15.59,0,0,0,480,30a23.17,23.17,0,0,0,1.49-2.81h0a15.88,15.88,0,0,0,1-3.26,19.64,19.64,0,0,0,.34-3.7,16.14,16.14,0,0,0-1.73-7.58,15.67,15.67,0,0,0-5.15-5.62l-.06,0a25.94,25.94,0,0,0-8.25-3.64A42.48,42.48,0,0,0,457,2.16a52.75,52.75,0,0,0-5.31.26,42.68,42.68,0,0,0-4.87.79,35.1,35.1,0,0,0-4.07,1.19A29.81,29.81,0,0,0,439,6h0c-.45.23-.87.46-1.25.68s-.78.46-1.2.73a27.25,27.25,0,0,0-8.37,8.35l13.31,7.14a16.12,16.12,0,0,1,2-2.42A14.8,14.8,0,0,1,446.66,18l0,0a15,15,0,0,1,3.77-1.57,16.24,16.24,0,0,1,4.16-.52,1.08,1.08,0,0,1,0,2.15,14.11,14.11,0,0,0-3.61.45,12.77,12.77,0,0,0-3.24,1.35l0,0A12.8,12.8,0,0,0,445,22a14.83,14.83,0,0,0-2.2,2.87,1.08,1.08,0,0,1-1.47.38l-15.16-8.12a1.08,1.08,0,0,1-.44-1.46l0,0A30.07,30.07,0,0,1,430,10.07a29.43,29.43,0,0,1,5.44-4.45Zm33.94,35.17-.74.82c-.23.27-.44.53-.64.78a8.36,8.36,0,0,0-1.4,2.57,8.7,8.7,0,0,0-.4,1.85h-16a16.55,16.55,0,0,1,.5-3.3,10.93,10.93,0,0,1,1.53-3.41l0-.06a31.87,31.87,0,0,1,2.65-3.35c1.05-1.17,2.28-2.41,3.68-3.7l0,0c1-.93,1.86-1.79,2.6-2.57A25.22,25.22,0,0,0,463,28.27l0-.06A8.22,8.22,0,0,0,464.25,26a7.21,7.21,0,0,0,.42-2.42,1.08,1.08,0,1,0-2.16,0,5,5,0,0,1-.29,1.71,6.16,6.16,0,0,1-.92,1.67l0,.06a24.29,24.29,0,0,1-1.68,2c-.71.75-1.54,1.58-2.51,2.48h0c-1.44,1.32-2.71,2.61-3.83,3.85a36.36,36.36,0,0,0-2.83,3.58l0,.06A12.94,12.94,0,0,0,448.54,43h0a19.08,19.08,0,0,0-.6,4.93A1.07,1.07,0,0,0,449,49h18.16a1.07,1.07,0,0,0,1.07-1.07,7.07,7.07,0,0,1,.35-2.25,6.46,6.46,0,0,1,1-1.92h0q.25-.33.57-.69c.2-.24.43-.49.68-.76a1.07,1.07,0,0,0,0-1.52A1.1,1.1,0,0,0,469.34,40.79Z"/><path class="cls-6" d="M63.88,48.36,61.57,46.5l1.25-1.56,2.31,1.86-.23,1.7-1-.14Zm1.25-1.56a1,1,0,0,1,.15,1.4,1,1,0,0,1-1.4.16l1.25-1.56Zm2.46.54L64.9,48.5l-.79-1.84,2.68-1.16,1.31,1.33-.51.51Zm-.8-1.84a1,1,0,0,1,.8,1.84l-.8-1.84Zm-1.58,2.9L66.28,46l1.82.82L67,49.22l-1.71.19-.11-1Zm1.82.82a1,1,0,1,1-1.82-.82l1.82.82Zm0,2.44-1.68-2.25,1.6-1.2,1.69,2.25-.71,1.6-.9-.4Zm1.61-1.2A1,1,0,0,1,67,51.66l1.61-1.2ZM65,50.32l2.71-.25.19,2-2.71.25-1-1.45.8-.54Zm.19,2a1,1,0,1,1-.19-2l.19,2Zm-2.41,1.3,1.42-2.75,1.78.92-1.42,2.75-1.82-.1,0-.82Zm1.78.92a1,1,0,0,1-1.78-.92l1.78.92Zm-1.23-4.09,1.28,3.27-1.87.72-1.27-3.26,1.24-1.31.62.58Zm-1.86.73a1,1,0,1,1,1.86-.73l-1.86.73ZM59.9,48.94l2.81.92-.62,1.9-2.81-.92L59.13,49l.77-.06Zm-.62,1.9a1,1,0,1,1,.62-1.9l-.62,1.9Zm3.31-1.38-2.54,1.32L59.13,49l2.54-1.31,1.46.91-.54.86Zm-.92-1.77a1,1,0,1,1,.92,1.77l-.92-1.77Zm1.53-1.94-.07,2.85-2-.05.07-2.85,1.62-.76.38.81Zm-2,0a1,1,0,0,1,1-1,1,1,0,0,1,1,1Z"/><path class="cls-6" d="M62.58,77.6H81.25l-3.14,36.74H65.64L62.58,77.6Zm2.55,56a8.19,8.19,0,0,1-2.62-6.14,7.9,7.9,0,0,1,2.62-6.11A9.76,9.76,0,0,1,71.91,119a9.58,9.58,0,0,1,6.73,2.41,7.93,7.93,0,0,1,2.61,6.11,8.18,8.18,0,0,1-2.65,6.14,9.26,9.26,0,0,1-6.69,2.52A9.39,9.39,0,0,1,65.13,133.62Z"/><path class="cls-4" d="M76.85,78.46a.86.86,0,1,1,0-1.71h4.4a.85.85,0,0,1,.85.85c-.47,7.69-1.32,15.51-2,23.2a.86.86,0,0,1-1.71-.14l1.89-22.2Zm.81,31-.34,4H66.43l-2.92-35h6.61a.86.86,0,1,0,0-1.71H62.51a.87.87,0,0,0-.79.92l3.06,36.71a.86.86,0,0,0,.86.82H78.11a.87.87,0,0,0,.86-.79l.41-4.8a.86.86,0,0,0-1.72-.14Zm-.35,11.93,0,0a8.07,8.07,0,0,0-2.36-1.14,10.76,10.76,0,0,0-3-.4,10.52,10.52,0,0,0-3.47.55A8.16,8.16,0,0,0,65.71,122,.86.86,0,0,1,64.5,122a.85.85,0,0,1,.06-1.21,9.7,9.7,0,0,1,3.31-2,12.74,12.74,0,0,1,7.51-.18A9.44,9.44,0,0,1,78.25,120l.06,0a4,4,0,0,1,.46.35c.14.11.29.24.44.38a.86.86,0,0,1,.06,1.21.85.85,0,0,1-1.21,0l-.37-.31c-.1-.09-.23-.18-.38-.29Zm3.08,6.08a.86.86,0,1,1,1.71,0,9,9,0,0,1-2.91,6.76,9.53,9.53,0,0,1-3.28,2.08,11.42,11.42,0,0,1-4,.68,11.63,11.63,0,0,1-4.07-.69,9.59,9.59,0,0,1-3.3-2.07l-.26-.25a9,9,0,0,1-2.63-6.51.86.86,0,0,1,1.72,0,7.53,7.53,0,0,0,.53,2.88,7.36,7.36,0,0,0,1.61,2.43l.22.22a7.86,7.86,0,0,0,2.71,1.7,10,10,0,0,0,3.47.57,9.62,9.62,0,0,0,3.4-.57A7.85,7.85,0,0,0,78,133a8,8,0,0,0,1.79-2.53A7.54,7.54,0,0,0,80.39,127.48Z"/></g></g></svg>