<svg xmlns="http://www.w3.org/2000/svg" viewBox="0 0 221.58 72.31"><defs><style>.cls-1{fill:#1aa6e0;}.cls-1,.cls-2,.cls-3,.cls-4{fill-rule:evenodd;}.cls-2,.cls-3{fill:none;stroke:#fff;stroke-linecap:round;stroke-linejoin:round;}.cls-2{stroke-width:2.33px;}.cls-3{stroke-width:2.33px;}.cls-4,.cls-5{fill:#1b215d;}</style></defs><g id="Слой_2" data-name="Слой 2"><g id="Слой_1-2" data-name="Слой 1"><path class="cls-1" d="M185.43,71.14H36.15a35,35,0,0,1-35-35h0a35,35,0,0,1,35-35H185.43a35,35,0,0,1,35,35h0A35,35,0,0,1,185.43,71.14Z"/><path class="cls-2" d="M153.3,71.14H36.15a35,35,0,0,1-35-35h0A35,35,0,0,1,24.81,3.05"/><path class="cls-3" d="M36.15,1.17H185.43a35,35,0,0,1,35,35h0a35,35,0,0,1-35,35"/><path class="cls-4" d="M71.16,35.39v.2c.81.14,1.45.27,1.93.39a3.79,3.79,0,0,1,1.4.71,4.66,4.66,0,0,1,1.05,1.09,9.68,9.68,0,0,1,.88,1.84c.32.85.61,1.72.85,2.61s.6,2.13,1,3.74c.18.7.33,1.23.44,1.61H71.13Q69,40.3,68.68,39.52c-.36-.89-.8-1.41-1.31-1.54a2.39,2.39,0,0,0-.68-.07h-.77A9.61,9.61,0,0,1,66.19,40v7.55H59.24V40a10.37,10.37,0,0,1,.3-2.12h-.81a1.59,1.59,0,0,0-1.25.47,5.81,5.81,0,0,0-.89,1.76q-.48,1.3-1.45,4.66c-.33,1.16-.6,2.09-.8,2.78H46.71q1.92-7,2.52-8.43a5.19,5.19,0,0,1,2.38-2.85,9.57,9.57,0,0,1,2.69-.71v-.2a12,12,0,0,1-1.38-.23,4.11,4.11,0,0,1-1.07-.42c-.34-.19-.61-.35-.82-.49a2.24,2.24,0,0,1-.69-.81c-.25-.4-.43-.72-.56-1a14.58,14.58,0,0,1-.52-1.41c-.22-.69-.39-1.26-.52-1.71s-.33-1.2-.62-2.25-.54-2-.74-2.69h7.39C56,28.66,56.65,31,56.85,31.53c.38,1,.87,1.51,1.45,1.65a3.18,3.18,0,0,0,.47,0h.84a12.14,12.14,0,0,1-.34-3V24.41h6.92v5.84a14.87,14.87,0,0,1-.3,3h.74a1.77,1.77,0,0,0,1.68-1.06A38.76,38.76,0,0,0,70,26.93c.29-1.05.52-1.89.7-2.52h7.39c-.2.74-.45,1.64-.74,2.69s-.5,1.8-.62,2.25-.3,1-.52,1.71a14.58,14.58,0,0,1-.52,1.41c-.13.25-.31.57-.56,1a2.34,2.34,0,0,1-.68.81c-.22.14-.49.3-.83.49a4,4,0,0,1-1.07.42A11.6,11.6,0,0,1,71.16,35.39Z"/><rect class="cls-5" x="80.9" y="24.41" width="7.22" height="23.17"/><path class="cls-4" d="M99.2,33.38h2.32q5.45,0,7.52,1.51t2.09,5.64c0,2.75-.68,4.66-2,5.73s-3.55,1.59-6.62,1.59q-6.78,0-10.37-.27h-.2V24.41c2.62-.18,5.49-.27,8.63-.27q4.29,0,8.93.27l-.54,5.21H99.2v3.76Zm0,9.43h2.32a2.61,2.61,0,0,0,1.88-.48,3.25,3.25,0,0,0,.44-2,3.29,3.29,0,0,0-.44-2,2.61,2.61,0,0,0-1.88-.48H99.2Z"/><path class="cls-4" d="M130.6,42.14l.34,5.14a110.16,110.16,0,0,1-12.06.44A5.44,5.44,0,0,1,115,46.26a5,5,0,0,1-1.53-3.81V29.55A5,5,0,0,1,115,25.74a5.4,5.4,0,0,1,3.91-1.46,110.93,110.93,0,0,1,12.06.43l-.34,5.14h-8.49a1.42,1.42,0,0,0-1,.34,1.1,1.1,0,0,0-.37.87v2.25h8.67v4.84h-8.67v2.78a1.13,1.13,0,0,0,.37.88,1.46,1.46,0,0,0,1,.33Z"/><path class="cls-4" d="M133.76,47.58V24.41c2.28-.22,5.55-.34,9.81-.34,3.69,0,6.22.55,7.57,1.65s2,3.18,2,6.25-.62,5.08-1.88,6.18-3.49,1.64-6.71,1.64a31.17,31.17,0,0,1-3.53-.2v8Zm7.29-12.93h2.35a2.75,2.75,0,0,0,2-.53,3.25,3.25,0,0,0,.51-2.15,3.38,3.38,0,0,0-.51-2.2,2.64,2.64,0,0,0-2-.56h-2.35Z"/><path class="cls-4" d="M174.87,24.41l-5,16.89a13,13,0,0,1-2.35,5,6,6,0,0,1-4,1.78,28.53,28.53,0,0,1-7.15-.47l.77-5a27.45,27.45,0,0,0,3.91,0c.84-.09,1.35-.4,1.53-.94l.13-.53h-1.37a3.24,3.24,0,0,1-2.35-.81A5.12,5.12,0,0,1,157.64,38l-4.16-13.57h7.45l2.62,11.25c0,.25.22.37.54.37h.3l3-11.62Z"/></g></g></svg>