<svg xmlns="http://www.w3.org/2000/svg" viewBox="0 0 485.89 182.21"><defs><style>.cls-1{fill:#1aa6e0;}.cls-1,.cls-2,.cls-3,.cls-4,.cls-5,.cls-7,.cls-9{fill-rule:evenodd;}.cls-2,.cls-3,.cls-5,.cls-6{fill:none;stroke-linecap:round;stroke-linejoin:round;}.cls-2,.cls-5,.cls-6{stroke:#fff;}.cls-2{stroke-width:2.16px;}.cls-3{stroke:#1aa6e0;}.cls-3,.cls-5,.cls-6{stroke-width:4px;}.cls-4{fill:#fff;}.cls-7,.cls-8{fill:#d0005a;}.cls-9{fill:#f8aa00;}</style></defs><g id="Слой_2" data-name="Слой 2"><g id="Слой_1-2" data-name="Слой 1"><path class="cls-1" d="M449.82,79a10.13,10.13,0,0,1-3.27-7.59,9.78,9.78,0,0,1,3.22-7.54,11.82,11.82,0,0,1,8.31-3,12,12,0,0,1,8.37,3,9.72,9.72,0,0,1,3.27,7.54A10.13,10.13,0,0,1,466.45,79a11.61,11.61,0,0,1-8.37,3.11A11.44,11.44,0,0,1,449.82,79Zm1.43-32.21a43,43,0,0,1,6.54-7.3,38.4,38.4,0,0,0,4.36-4.63,6.55,6.55,0,0,0,1.44-4,5.58,5.58,0,0,0-2.49-4.75,11,11,0,0,0-6.49-1.79,14.35,14.35,0,0,0-7.39,1.95,14.79,14.79,0,0,0-5.35,5.39l-15.2-8.15a28.77,28.77,0,0,1,11.84-11.12c5.09-2.64,11.24-4,18.45-4q12.12,0,19.52,5.05a16.13,16.13,0,0,1,7.41,14.13,18.28,18.28,0,0,1-1.43,7.39A20.22,20.22,0,0,1,479,40.35a61.91,61.91,0,0,1-5.15,4.93,38.69,38.69,0,0,0-5.08,5.06,7.6,7.6,0,0,0-1.63,4.83H449A14.58,14.58,0,0,1,451.25,46.78Z"/><path class="cls-2" d="M469.72,71.4A10.13,10.13,0,0,1,466.45,79a11.61,11.61,0,0,1-8.37,3.11A11.44,11.44,0,0,1,449.82,79a10.13,10.13,0,0,1-3.27-7.59,9.78,9.78,0,0,1,3.22-7.54,11.82,11.82,0,0,1,8.31-3,13.22,13.22,0,0,1,5.51,1.1M436,13.81c.82-.52,1.66-1,2.54-1.46a33.6,33.6,0,0,1,8-2.9m0,0A47.14,47.14,0,0,1,457,8.37q12.12,0,19.52,5.05a16.13,16.13,0,0,1,7.41,14.13,18.28,18.28,0,0,1-1.43,7.39A20.22,20.22,0,0,1,479,40.35c-.59.65-1.26,1.34-2,2.06m-6.9,6.4c-.51.55-.95,1-1.32,1.53a7.6,7.6,0,0,0-1.63,4.83H449a14.58,14.58,0,0,1,2.24-8.39,43,43,0,0,1,6.54-7.3m0,0a38.4,38.4,0,0,0,4.36-4.63m0,0a6.55,6.55,0,0,0,1.44-4m-9-6.54a14.35,14.35,0,0,0-7.39,1.95,14.79,14.79,0,0,0-5.35,5.39l-15.2-8.15a28.54,28.54,0,0,1,9.3-9.66"/><path class="cls-3" d="M277,70.52v.25l.84.13c2.06.31,3.38.88,3.95,1.74s1.53,3.67,2.87,8.47q.09.3.12.42h-9.12c-1-3.63-1.6-5.85-1.88-6.66s-.67-1.25-1.17-1.33h-1.93a7.81,7.81,0,0,1,.21,1.63v6.36H262.1V60.6h8.75v4.57a13.33,13.33,0,0,1-.29,2.76h.75c1.06,0,1.74-.26,2.05-.78A26.81,26.81,0,0,0,274.83,62c.14-.62.25-1.09.33-1.43H284q-2,6.66-2.13,7.16a3.47,3.47,0,0,1-1.84,2.13A18.38,18.38,0,0,1,277,70.52Z"/><path class="cls-3" d="M300.48,73h-5.23a2.62,2.62,0,0,0,1,1.8,4.6,4.6,0,0,0,2.45.5,80.74,80.74,0,0,0,8.5-.46l.79,5.28Q304.2,82,297.76,82c-4.27,0-7.32-.88-9.17-2.66s-2.76-4.48-2.76-8.14c0-4.1.9-7,2.68-8.68S293.37,60,297.72,60q5.77,0,8.31,1.84a6.61,6.61,0,0,1,2.57,5.61,4.72,4.72,0,0,1-1.78,4.24c-1.21.86-3.33,1.28-6.34,1.28Zm-5.4-4.14H298a3.68,3.68,0,0,0,1.8-.27c.25-.19.38-.62.38-1.32a1.44,1.44,0,0,0-.48-1.28,3.41,3.41,0,0,0-1.74-.31,3,3,0,0,0-2.24.54A4.37,4.37,0,0,0,295.08,68.85Z"/><path class="cls-3" d="M333.42,60.6V81.53h-8.75V66.3h-1.09c-1.09,0-1.67.48-1.76,1.46q-.4,3.76-1,8.24a7,7,0,0,1-2,4.29A6,6,0,0,1,315,82a19.43,19.43,0,0,1-4.68-.25l-.88-6.4c.19,0,.5-.06.92-.09a8.21,8.21,0,0,0,.92-.1,7,7,0,0,0,.69-.21,1.24,1.24,0,0,0,.61-.46,2.74,2.74,0,0,0,.33-.82,55.15,55.15,0,0,0,.92-7.62c.25-3.62,2.16-5.44,5.73-5.44Z"/><path class="cls-3" d="M351,73H345.8a2.59,2.59,0,0,0,1,1.8,4.58,4.58,0,0,0,2.45.5,80.69,80.69,0,0,0,8.49-.46l.8,5.28Q354.76,82,348.32,82c-4.27,0-7.33-.88-9.17-2.66s-2.76-4.48-2.76-8.14q0-6.15,2.68-8.68t9.2-2.53q5.78,0,8.31,1.84a6.59,6.59,0,0,1,2.58,5.61,4.75,4.75,0,0,1-1.78,4.24c-1.22.86-3.33,1.28-6.34,1.28Zm-5.4-4.14h2.93a3.68,3.68,0,0,0,1.8-.27c.25-.19.37-.62.37-1.32a1.44,1.44,0,0,0-.48-1.28,3.39,3.39,0,0,0-1.73-.31,3,3,0,0,0-2.24.54A4.3,4.3,0,0,0,345.64,68.85Z"/><path class="cls-3" d="M390.79,60.6h7.37q2.89,0,3,3l.46,18h-7.95L393.18,67h-.46L391,75.8a2.91,2.91,0,0,1-3.26,2.67h-3.47c-1.93,0-3-.89-3.31-2.67L379.2,67h-.46l-.29,14.57H370.5l.42-18a2.69,2.69,0,0,1,3-3h7.2a2.88,2.88,0,0,1,3.22,2.72l1.21,6.53q.09.42.3,3.18h.25c0-.22.06-.7.1-1.44a13.47,13.47,0,0,1,.19-1.74l1.13-6.53A2.9,2.9,0,0,1,390.79,60.6Z"/><path class="cls-3" d="M418.92,73h-5.23a2.58,2.58,0,0,0,1,1.8,4.58,4.58,0,0,0,2.45.5,80.88,80.88,0,0,0,8.5-.46l.79,5.28Q422.64,82,416.2,82c-4.27,0-7.33-.88-9.17-2.66s-2.76-4.48-2.76-8.14q0-6.15,2.68-8.68T416.16,60q5.77,0,8.3,1.84A6.59,6.59,0,0,1,427,67.47a4.72,4.72,0,0,1-1.78,4.24c-1.22.86-3.33,1.28-6.34,1.28Zm-5.4-4.14h2.93a3.68,3.68,0,0,0,1.8-.27c.25-.19.38-.62.38-1.32a1.44,1.44,0,0,0-.49-1.28,3.39,3.39,0,0,0-1.73-.31,3,3,0,0,0-2.24.54A4.37,4.37,0,0,0,413.52,68.85Z"/><path class="cls-4" d="M277,70.52v.25l.84.13c2.06.31,3.38.88,3.95,1.74s1.53,3.67,2.87,8.47q.09.3.12.42h-9.12c-1-3.63-1.6-5.85-1.88-6.66s-.67-1.25-1.17-1.33h-1.93a7.81,7.81,0,0,1,.21,1.63v6.36H262.1V60.6h8.75v4.57a13.33,13.33,0,0,1-.29,2.76h.75c1.06,0,1.74-.26,2.05-.78A26.81,26.81,0,0,0,274.83,62c.14-.62.25-1.09.33-1.43H284q-2,6.66-2.13,7.16a3.47,3.47,0,0,1-1.84,2.13A18.38,18.38,0,0,1,277,70.52Z"/><path class="cls-4" d="M300.48,73h-5.23a2.62,2.62,0,0,0,1,1.8,4.6,4.6,0,0,0,2.45.5,80.74,80.74,0,0,0,8.5-.46l.79,5.28Q304.2,82,297.76,82c-4.27,0-7.32-.88-9.17-2.66s-2.76-4.48-2.76-8.14c0-4.1.9-7,2.68-8.68S293.37,60,297.72,60q5.77,0,8.31,1.84a6.61,6.61,0,0,1,2.57,5.61,4.72,4.72,0,0,1-1.78,4.24c-1.21.86-3.33,1.28-6.34,1.28Zm-5.4-4.14H298a3.68,3.68,0,0,0,1.8-.27c.25-.19.38-.62.38-1.32a1.44,1.44,0,0,0-.48-1.28,3.41,3.41,0,0,0-1.74-.31,3,3,0,0,0-2.24.54A4.37,4.37,0,0,0,295.08,68.85Z"/><path class="cls-4" d="M333.42,60.6V81.53h-8.75V66.3h-1.09c-1.09,0-1.67.48-1.76,1.46q-.4,3.76-1,8.24a7,7,0,0,1-2,4.29A6,6,0,0,1,315,82a19.43,19.43,0,0,1-4.68-.25l-.88-6.4c.19,0,.5-.06.92-.09a8.21,8.21,0,0,0,.92-.1,7,7,0,0,0,.69-.21,1.24,1.24,0,0,0,.61-.46,2.74,2.74,0,0,0,.33-.82,55.15,55.15,0,0,0,.92-7.62c.25-3.62,2.16-5.44,5.73-5.44Z"/><path class="cls-4" d="M351,73H345.8a2.59,2.59,0,0,0,1,1.8,4.58,4.58,0,0,0,2.45.5,80.69,80.69,0,0,0,8.49-.46l.8,5.28Q354.76,82,348.32,82c-4.27,0-7.33-.88-9.17-2.66s-2.76-4.48-2.76-8.14q0-6.15,2.68-8.68t9.2-2.53q5.78,0,8.31,1.84a6.59,6.59,0,0,1,2.58,5.61,4.75,4.75,0,0,1-1.78,4.24c-1.22.86-3.33,1.28-6.34,1.28Zm-5.4-4.14h2.93a3.68,3.68,0,0,0,1.8-.27c.25-.19.37-.62.37-1.32a1.44,1.44,0,0,0-.48-1.28,3.39,3.39,0,0,0-1.73-.31,3,3,0,0,0-2.24.54A4.3,4.3,0,0,0,345.64,68.85Z"/><path class="cls-4" d="M390.79,60.6h7.37q2.89,0,3,3l.46,18h-7.95L393.18,67h-.46L391,75.8a2.91,2.91,0,0,1-3.26,2.67h-3.47c-1.93,0-3-.89-3.31-2.67L379.2,67h-.46l-.29,14.57H370.5l.42-18a2.69,2.69,0,0,1,3-3h7.2a2.88,2.88,0,0,1,3.22,2.72l1.21,6.53q.09.42.3,3.18h.25c0-.22.06-.7.1-1.44a13.47,13.47,0,0,1,.19-1.74l1.13-6.53A2.9,2.9,0,0,1,390.79,60.6Z"/><path class="cls-4" d="M418.92,73h-5.23a2.58,2.58,0,0,0,1,1.8,4.58,4.58,0,0,0,2.45.5,80.88,80.88,0,0,0,8.5-.46l.79,5.28Q422.64,82,416.2,82c-4.27,0-7.33-.88-9.17-2.66s-2.76-4.48-2.76-8.14q0-6.15,2.68-8.68T416.16,60q5.77,0,8.3,1.84A6.59,6.59,0,0,1,427,67.47a4.72,4.72,0,0,1-1.78,4.24c-1.22.86-3.33,1.28-6.34,1.28Zm-5.4-4.14h2.93a3.68,3.68,0,0,0,1.8-.27c.25-.19.38-.62.38-1.32a1.44,1.44,0,0,0-.49-1.28,3.39,3.39,0,0,0-1.73-.31,3,3,0,0,0-2.24.54A4.37,4.37,0,0,0,413.52,68.85Z"/><path class="cls-1" d="M15.43,8.62a21.79,21.79,0,0,1,8.8,1.46,9.41,9.41,0,0,1,3.1,2.23,11.05,11.05,0,0,1,2.08,3.35,17.91,17.91,0,0,1,1.14,4.41l.08.61V11.21a2,2,0,0,1,2-2h6.94a9.59,9.59,0,0,1-.88-.81,8.09,8.09,0,0,1-1.94-3.13,7.46,7.46,0,0,1-.22-3.62,2,2,0,0,1,2-1.64h5.32a2,2,0,0,1,2,2,2.71,2.71,0,0,1,0,.41,4.72,4.72,0,0,0,0,.8H46a.33.33,0,0,1,.2.06,4.09,4.09,0,0,0,0-1A2,2,0,0,1,47.85,0h5.58a2,2,0,0,1,2,1.76,7.24,7.24,0,0,1-.2,3.5A8,8,0,0,1,53.28,8.4a9.59,9.59,0,0,1-.88.81h6.18a2,2,0,0,1,2,2V40.08a2,2,0,0,1-2,2H50a2,2,0,0,1-2-2V31.81L43.06,41a2,2,0,0,1-1.76,1.06H32.63a2,2,0,0,1-2-2V30.61l-.08.62a17.94,17.94,0,0,1-1.14,4.4,9.94,9.94,0,0,1-5.18,5.58,15.19,15.19,0,0,1-3.92,1.11,31.42,31.42,0,0,1-4.88.35,21.65,21.65,0,0,1-8.75-1.46A9.41,9.41,0,0,1,3.58,39,11.25,11.25,0,0,1,1.5,35.63a17.94,17.94,0,0,1-1.14-4.4A39,39,0,0,1,0,25.65a26.78,26.78,0,0,1,1.5-10,11.25,11.25,0,0,1,2.08-3.35,9.41,9.41,0,0,1,3.1-2.23,21.65,21.65,0,0,1,8.75-1.46Zm7.16,5.1a18.14,18.14,0,0,0-7.16-1.1,18,18,0,0,0-7.11,1.1A5.53,5.53,0,0,0,6.52,15a7.21,7.21,0,0,0-1.34,2.16A23.23,23.23,0,0,0,4,25.65a35,35,0,0,0,.31,5,14.88,14.88,0,0,0,.87,3.46,7.28,7.28,0,0,0,1.34,2.15,5.39,5.39,0,0,0,1.8,1.3,18,18,0,0,0,7.11,1.1,27.58,27.58,0,0,0,4.26-.29,11.29,11.29,0,0,0,2.9-.81,6.14,6.14,0,0,0,3.14-3.45,14.88,14.88,0,0,0,.87-3.46,35,35,0,0,0,.31-5,35,35,0,0,0-.31-5,14.65,14.65,0,0,0-.87-3.45A7.21,7.21,0,0,0,24.39,15a5.53,5.53,0,0,0-1.8-1.3ZM313.42,34.14V46.4a2,2,0,0,1-2,2h-6.57a2,2,0,0,1-2-2l-.43-4.36h-3.24a2,2,0,0,1-2-2V30H293.9V40.08a2,2,0,0,1-2,2h-9.08a2,2,0,0,1-2-2V11.21a2,2,0,0,1,2-2h9.08a2,2,0,0,1,2,2v8.38h3.28V11.21a2,2,0,0,1,2-2h9.08a2,2,0,0,1,2,2V32.14h1.16a2,2,0,0,1,2,2Zm-4,10.26V36.14h-1.16a2,2,0,0,1-2-2V13.21h-5.08v8.38a2,2,0,0,1-2,2H291.9a2,2,0,0,1-2-2V13.21h-5.08V38.08h5.08V28a2,2,0,0,1,2-2h7.28a2,2,0,0,1,2,2V38.08h3.05a2,2,0,0,1,2,1.8l.45,4.51ZM203.13,29.91h-3.34l.05.33a4.8,4.8,0,0,0,.31,1.2.59.59,0,0,0,.29.31,2.21,2.21,0,0,0,1,.18c.72,0,1.16-.16,1.31-.49a4.8,4.8,0,0,0,.31-1.2l0-.33Zm-5.51-4h7.77A2,2,0,0,1,207.3,28a25.29,25.29,0,0,1-.28,2.89,8.39,8.39,0,0,1-.64,2.23c-.87,1.88-2.52,2.81-4.92,2.81a6,6,0,0,1-2.88-.65,4.56,4.56,0,0,1-2-2.16,8.39,8.39,0,0,1-.64-2.23h0a22.46,22.46,0,0,1-.27-2.72,2,2,0,0,1,2-2.25Zm2.83-6.36h2a2.21,2.21,0,0,0-1-.18,2.11,2.11,0,0,0-1,.19Zm4.71,4h-7.4l-.23,0a2,2,0,0,1-1.76-2.21,16.29,16.29,0,0,1,.28-1.7,7,7,0,0,1,.49-1.45q1.32-2.81,4.92-2.81a6.06,6.06,0,0,1,2.88.65,4.56,4.56,0,0,1,2,2.16,7,7,0,0,1,.49,1.45c.1.47.19,1,.26,1.58a2.07,2.07,0,0,1,0,.35,2,2,0,0,1-2,2Zm72.89,18.53h-9a2,2,0,0,1-2-2V19.73a2,2,0,0,1-1,.25h-9.26V40.08a2,2,0,0,1-2,2h-9.08a2,2,0,0,1-2-2V27a7.5,7.5,0,0,1-2,2.79,9.63,9.63,0,0,1-4.11,2,23.82,23.82,0,0,1-5.57.58c-.74,0-1.52,0-2.34-.08h-.06v7.78a2,2,0,0,1-2,2h-9.08a2,2,0,0,1-2-2V30.93l0,.3a18.89,18.89,0,0,1-1.14,4.4,9.92,9.92,0,0,1-5.19,5.58,15.11,15.11,0,0,1-3.91,1.11,31.51,31.51,0,0,1-4.88.35,21.65,21.65,0,0,1-8.75-1.46,9.41,9.41,0,0,1-3.1-2.23A10.79,10.79,0,0,1,188,36.6l.64,2.26.19.64A2,2,0,0,1,187.48,42a2,2,0,0,1-.58.09h-9.46a2,2,0,0,1-2-1.59c-.74-2.74-1.33-4.88-1.78-6.39l0-.09c-.42-1.44-.72-2.37-.91-2.82a3.11,3.11,0,0,0-.55-.88.94.94,0,0,0-.16-.14c0,.18,0,.34,0,.5v9.41a2,2,0,0,1-2,2H161a2,2,0,0,1-2-2V11.21a2,2,0,0,1,2-2h9.08a2,2,0,0,1,2,2v7.28c0,.48,0,.94,0,1.41a.92.92,0,0,0,.34-.34,14.7,14.7,0,0,0,.9-2.44q.57-1.86,1.35-5.16l0-.17.14-.54.1-.43a2,2,0,0,1,1.95-1.6h9.21a2,2,0,0,1,2,2,1.91,1.91,0,0,1-.12.68L186.11,18q-.6,2-.75,2.46l0,.05a12.87,12.87,0,0,1-1.45,2.95A7.6,7.6,0,0,1,182.56,25a6.3,6.3,0,0,1,1.73,1.72l.06.09a20.91,20.91,0,0,1,1.78,4l.34,1-.09-.55a40.66,40.66,0,0,1-.35-5.58,26.81,26.81,0,0,1,1.49-10,11.27,11.27,0,0,1,2.09-3.35,9.41,9.41,0,0,1,3.1-2.23,27.07,27.07,0,0,1,17.54,0,9.31,9.31,0,0,1,3.1,2.23,11.07,11.07,0,0,1,2.09,3.35,18.85,18.85,0,0,1,1.14,4.41l0,.29V11.21a2,2,0,0,1,2-2c1.43-.14,3.15-.24,5.16-.31q3.28-.11,7.09-.11a29.93,29.93,0,0,1,6.23.56,10.51,10.51,0,0,1,4.46,1.94,8,8,0,0,1,2.52,3.85,9,9,0,0,1,.31-.92,8,8,0,0,1,1.88-2.8,8.2,8.2,0,0,1,2.84-1.79,9.68,9.68,0,0,1,3.4-.59,112,112,0,0,1,14.31.61,2,2,0,0,1,.73.26,2,2,0,0,1,1.53-.7h9a2,2,0,0,1,2,2V40.08a2,2,0,0,1-2,2Zm-7-4h5V13.21h-5V38.08ZM247.74,17.61V38.08h5.08V19.49a3.52,3.52,0,0,1,.29-1.41A3.38,3.38,0,0,1,254,16.9a3.77,3.77,0,0,1,2.58-.91h7.63l.17-2.6q-4-.35-11.9-.35a5.81,5.81,0,0,0-2,.32,4.44,4.44,0,0,0-1.47.94,4,4,0,0,0-.94,1.39,5.29,5.29,0,0,0-.32,1.92ZM220.62,13v25h5.08v-8h0a1.64,1.64,0,0,1,0-.22,2,2,0,0,1,2.21-1.76c.69.08,1.38.14,2,.18s1.34.05,2.12.05a19.89,19.89,0,0,0,4.63-.45,5.63,5.63,0,0,0,2.42-1.1q1.66-1.44,1.66-6.2a14,14,0,0,0-.53-4.19,4.16,4.16,0,0,0-1.26-2,6.8,6.8,0,0,0-2.79-1.14,26.12,26.12,0,0,0-5.39-.46c-2.76,0-5.09,0-7,.1-1.19,0-2.28.09-3.25.15ZM229.7,22h.93a4.27,4.27,0,0,0,1-.09v0a5.39,5.39,0,0,0,.11-1.22,5.79,5.79,0,0,0-.11-1.26v-.08a4.16,4.16,0,0,0-1-.09h-.93V22Zm.93,4a7.82,7.82,0,0,0,2.06-.24,3.9,3.9,0,0,0,1.86-1.06h0a4.16,4.16,0,0,0,1-1.92,9.47,9.47,0,0,0,.21-2.13,9.72,9.72,0,0,0-.21-2.15,4.31,4.31,0,0,0-.94-1.93,3.91,3.91,0,0,0-1.88-1.1,8,8,0,0,0-2.07-.25H227.7a2,2,0,0,0-2,2V24a2,2,0,0,0,2,2Zm1-4s0,.06,0,0h0s0,0,0,0Zm0-2.67s0,0,0,0,0,0,0,0Zm-23-5.53a5.47,5.47,0,0,1,1.81,1.3,7.19,7.19,0,0,1,1.33,2.16,14.18,14.18,0,0,1,.87,3.45,34.9,34.9,0,0,1,.32,5,34.85,34.85,0,0,1-.32,5,14.39,14.39,0,0,1-.87,3.46,6.11,6.11,0,0,1-3.14,3.45,11.17,11.17,0,0,1-2.9.81,27.35,27.35,0,0,1-4.25.29,18,18,0,0,1-7.11-1.1,5.43,5.43,0,0,1-1.81-1.3,7.26,7.26,0,0,1-1.33-2.15,14.88,14.88,0,0,1-.87-3.46,35,35,0,0,1-.31-5,23.23,23.23,0,0,1,1.18-8.47A7.19,7.19,0,0,1,192.54,15a5.58,5.58,0,0,1,1.81-1.3,23.66,23.66,0,0,1,14.26,0ZM175.06,25.14v-.25h0a2,2,0,0,1,1.73-2,13.78,13.78,0,0,0,1.88-.38,4.07,4.07,0,0,0,1-.4l.09-.05a2.94,2.94,0,0,0,.86-.89,9,9,0,0,0,1-2l1.8-6h-4.95q-.72,3-1.36,5.06a17.47,17.47,0,0,1-1.25,3.25,4.84,4.84,0,0,1-2.23,2.06,7.23,7.23,0,0,1-3,.59h-.92a1.82,1.82,0,0,1-.46-.06,2,2,0,0,1-1.47-2.41,13.91,13.91,0,0,0,.35-3.21V13.21H163V38.08h5.08V30.67a8,8,0,0,0-.06-1c0-.32-.1-.67-.19-1.07a2.12,2.12,0,0,1-.08-.57,2,2,0,0,1,2-2h1c.39,0,.79,0,1.19.06a7.13,7.13,0,0,1,1.08.18h0a4.44,4.44,0,0,1,2.1,1.24,7,7,0,0,1,1.35,2l0,0c.23.54.59,1.64,1.07,3.3l0,.08c.41,1.38.88,3.08,1.44,5.11h5.27c-.7-2.41-1.32-4.4-1.87-5.95A19.42,19.42,0,0,0,181,28.94l0-.06a3,3,0,0,0-1.24-1,10.66,10.66,0,0,0-2.86-.79,2,2,0,0,1-1.8-2ZM149.43,11.21V40.08a2,2,0,0,1-2,2h-9.08a2,2,0,0,1-2-2V19.15h-3.11V40.08a2,2,0,0,1-2,2h-9.08a1.9,1.9,0,0,1-1-.27,2.46,2.46,0,0,1-.47.2,2,2,0,0,1-.54.07H110.9a2,2,0,0,1-2-1.64l-1.08-4.59H103.1L102,40.54a2,2,0,0,1-1.94,1.54H90.81a1.93,1.93,0,0,1-1-.27,1.9,1.9,0,0,1-1,.27H79.72a2,2,0,0,1-2-2V30H74.43V40.08a2,2,0,0,1-2,2H63.35a2,2,0,0,1-2-2V11.21a2,2,0,0,1,2-2h9.08a2,2,0,0,1,2,2v8.38h3.29V11.21a2,2,0,0,1,2-2H88.8a2,2,0,0,1,2,2V32.77L96.38,13a5.29,5.29,0,0,1,.69-1.51,4.88,4.88,0,0,1,1.14-1.22,5,5,0,0,1,1.49-.8,5.14,5.14,0,0,1,1.65-.27h8.25a5,5,0,0,1,3.14,1.07,5.25,5.25,0,0,1,1.15,1.21,1.62,1.62,0,0,1,.1.18,5.36,5.36,0,0,1,.59,1.34l5.57,19.76V11.21a2,2,0,0,1,2-2h25.28a2,2,0,0,1,2,2Zm-4,26.87V13.21H124.15V38.08h5.08V17.15a2,2,0,0,1,2-2h7.12a2,2,0,0,1,2,2V38.08Zm-43.91-6.23h7.91a2,2,0,0,1,1.95,1.55l1.1,4.68h5l-6.78-24a1.17,1.17,0,0,0-.12-.3l0-.08a1.16,1.16,0,0,0-.26-.28,1.1,1.1,0,0,0-.7-.22h-8.25a1.42,1.42,0,0,0-.39,0,1.19,1.19,0,0,0-.31.17,1,1,0,0,0-.26.28h0a1.5,1.5,0,0,0-.16.38l-6.77,24h5l1.08-4.58a2,2,0,0,1,2-1.65Zm7-11c-.11-.58-.21-1.16-.29-1.71s-.15-1.05-.18-1.38A2,2,0,0,0,106,16h-1.13a2,2,0,0,0-2,1.91c0,.43-.13,1-.23,1.6s-.16,1-.22,1.37L101,27a2,2,0,0,0,1.5,2.39,1.73,1.73,0,0,0,.45.05h5a2,2,0,0,0,2-2,1.81,1.81,0,0,0-.09-.58l-1.38-6ZM86.8,38.08V13.21H81.72v8.38a2,2,0,0,1-2,2H72.43a2,2,0,0,1-2-2V13.21H65.35V38.08h5.08V28a2,2,0,0,1,2-2h7.29a2,2,0,0,1,2,2V38.08ZM51.42,4H50.13a3.82,3.82,0,0,1-.73,1.77A4.09,4.09,0,0,1,46,7.22a5.49,5.49,0,0,1-1.83-.29,3.72,3.72,0,0,1-1.63-1.16A3.82,3.82,0,0,1,41.8,4H40.54V4a4.33,4.33,0,0,0,1,1.6,4.94,4.94,0,0,0,1.8,1.18A7.44,7.44,0,0,0,46,7.24a7.42,7.42,0,0,0,2.62-.42,4.94,4.94,0,0,0,1.8-1.18,4.08,4.08,0,0,0,1-1.58l0-.06Zm-3.68,7.12a12.44,12.44,0,0,1-1.75.12,12.07,12.07,0,0,1-2.75-.3,2.45,2.45,0,0,1,0,.27v8.24l4.48-8.33ZM46.23,3.31h0s0,0,0,0ZM52,38.08h4.62V13.21H51.15l-6.46,12h0c-.3.56-.6,1.19-.89,1.88s-.53,1.36-.77,2.13a2,2,0,0,1-1.93,1.47H40.8a1.56,1.56,0,0,1-.31,0,2,2,0,0,1-1.66-2.27c.14-.93.25-1.77.33-2.53s.1-1.29.1-1.86V13.21H34.63V38.08H40.1l6.5-12.24h0a18,18,0,0,0,.79-1.7l.05-.15c.27-.67.51-1.36.72-2.08a2,2,0,0,1,2-1.57h.29a1.84,1.84,0,0,1,.33,0,2,2,0,0,1,1.64,2.3Q52.17,24,52.06,25a16.6,16.6,0,0,0-.1,1.78V38.08ZM16.75,19.86a.65.65,0,0,0-.29-.32,2.29,2.29,0,0,0-1-.18c-.72,0-1.15.17-1.31.5a6.66,6.66,0,0,0-.4,1.86,34.84,34.84,0,0,0-.18,3.93,34.65,34.65,0,0,0,.18,3.92,6.75,6.75,0,0,0,.4,1.87.67.67,0,0,0,.29.31,2.27,2.27,0,0,0,1,.18c.72,0,1.16-.16,1.32-.49a7.15,7.15,0,0,0,.4-1.87,34.65,34.65,0,0,0,.18-3.92,34.84,34.84,0,0,0-.18-3.93,7.05,7.05,0,0,0-.4-1.86ZM18.32,16a6.13,6.13,0,0,0-2.89-.65q-3.6,0-4.92,2.81a10.29,10.29,0,0,0-.76,3.1,38.64,38.64,0,0,0-.21,4.38A38.45,38.45,0,0,0,9.75,30a10.29,10.29,0,0,0,.76,3.1,4.56,4.56,0,0,0,2,2.16,6,6,0,0,0,2.88.65c2.41,0,4.05-.93,4.93-2.81a10.6,10.6,0,0,0,.76-3.1,38.45,38.45,0,0,0,.21-4.37,38.64,38.64,0,0,0-.21-4.38,10.6,10.6,0,0,0-.76-3.1A4.56,4.56,0,0,0,18.32,16Z"/><path class="cls-4" d="M15.43,10.62a20,20,0,0,1,8,1.28,8.08,8.08,0,0,1,4.16,4.52,25.11,25.11,0,0,1,1.34,9.23,25.05,25.05,0,0,1-1.34,9.22,8,8,0,0,1-4.16,4.52,20,20,0,0,1-8,1.28A19.81,19.81,0,0,1,7.5,39.39a8,8,0,0,1-4.16-4.52A25.05,25.05,0,0,1,2,25.65a25.11,25.11,0,0,1,1.34-9.23A8.08,8.08,0,0,1,7.5,11.9a19.81,19.81,0,0,1,7.93-1.28Zm296,23.52V46.4h-6.57l-.62-6.32h-5.05V28H291.9V40.08h-9.08V11.21h9.08V21.59h7.28V11.21h9.08V34.14ZM205.3,27.91h-7.68a12.67,12.67,0,0,0,.72,4.37,3.77,3.77,0,0,0,6.24,0,12.67,12.67,0,0,0,.72-4.37Zm-7.54-6.36h7.4a8.45,8.45,0,0,0-.58-2.54,3.77,3.77,0,0,0-6.24,0,8.77,8.77,0,0,0-.58,2.54Zm80.29,18.53h-9V11.21h9V40.08Zm-32.31,0V17.61a6.33,6.33,0,0,1,1.88-4.75A6.73,6.73,0,0,1,252.48,11a111.45,111.45,0,0,1,14,.59L266.08,18h-9.5a1.88,1.88,0,0,0-1.28.42,1.36,1.36,0,0,0-.48,1.08V40.08Zm-27.12,0V11.21q4.26-.42,12.22-.42,6.9,0,9.44,2.05c1.68,1.37,2.53,4,2.53,7.78s-.78,6.34-2.34,7.7-4.36,2.06-8.37,2.06a37,37,0,0,1-4.4-.26v10ZM227.7,24h2.93a3.38,3.38,0,0,0,2.47-.67,4,4,0,0,0,.63-2.68,4.25,4.25,0,0,0-.63-2.74,3.33,3.33,0,0,0-2.47-.69H227.7V24ZM201.46,10.62a19.89,19.89,0,0,1,8,1.28,8.1,8.1,0,0,1,4.17,4.52,25.11,25.11,0,0,1,1.34,9.23,25.05,25.05,0,0,1-1.34,9.22,8.06,8.06,0,0,1-4.17,4.52,25.33,25.33,0,0,1-15.9,0,8,8,0,0,1-4.16-4.52A24.84,24.84,0,0,1,188,25.65a24.9,24.9,0,0,1,1.34-9.23,8.08,8.08,0,0,1,4.16-4.52,19.78,19.78,0,0,1,7.93-1.28Zm-24.4,14.27v.25q4.23.63,5.57,2.64t3.81,10.71c.19.7.34,1.23.46,1.59h-9.46q-2.22-8.23-2.85-9.7a3.49,3.49,0,0,0-2.13-2.18A7.27,7.27,0,0,0,170.7,28h-1a12.18,12.18,0,0,1,.33,2.64v9.41H161V11.21h9.08v7.28a15.42,15.42,0,0,1-.42,3.68h.92c1.73,0,2.91-.54,3.52-1.63s1.44-3.79,2.47-8.12c.14-.53.24-.93.29-1.21h9.21c-1.62,5.41-2.48,8.28-2.6,8.62a7.21,7.21,0,0,1-2.72,4,9.09,9.09,0,0,1-3.68,1.09ZM147.43,11.21V40.08h-9.08V17.15h-7.12V40.08h-9.08V11.21Zm-38,22.64h-7.91l-1.46,6.23H90.81L98.3,13.55a3.1,3.1,0,0,1,1.13-1.69,3,3,0,0,1,1.92-.65h8.25a3,3,0,0,1,1.92.65,3.1,3.1,0,0,1,1.13,1.69l7.49,26.53H110.9l-1.47-6.23ZM108,27.49l-1.43-6.2c-.25-1.31-.42-2.41-.5-3.3h-1.13c-.17,1.31-.33,2.41-.5,3.3L103,27.49ZM88.8,11.21V40.08H79.72V28H72.43V40.08H63.35V11.21h9.08V21.59h7.29V11.21ZM48.12,2h5.31a5.38,5.38,0,0,1-1.59,5A7.72,7.72,0,0,1,46,9.24,7.73,7.73,0,0,1,40.13,7a5.52,5.52,0,0,1-1.64-5h5.32a3.49,3.49,0,0,0,.29,2.53A2.27,2.27,0,0,0,46,5.22a2.22,2.22,0,0,0,1.84-.69A3.49,3.49,0,0,0,48.12,2ZM58.58,40.08H50V26.82a28.06,28.06,0,0,1,.46-4.48h-.29a23.74,23.74,0,0,1-1.76,4.44L41.3,40.08H32.63V11.21h8.63V24a32.65,32.65,0,0,1-.46,4.69h.29a25.46,25.46,0,0,1,1.84-4.44l7-13h8.62V40.08ZM18.55,19a3.09,3.09,0,0,0-3.12-1.65A3.08,3.08,0,0,0,12.32,19c-.52,1.1-.78,3.32-.78,6.64s.26,5.53.78,6.63a3.08,3.08,0,0,0,3.11,1.65,3.09,3.09,0,0,0,3.12-1.65q.78-1.65.78-6.63C19.33,22.33,19.07,20.11,18.55,19Z"/><path class="cls-5" d="M156.91,131.65v9.4h-9.48v-9.31l-10-20.85h9.74l3.81,9.49a24.61,24.61,0,0,1,.91,4.24h.57a29.5,29.5,0,0,1,.92-4.29l3.76-9.44h9.75Z"/><path class="cls-5" d="M195,110.89v30.16H185.5v-24h-1.84q-2.17,0-2.31,2-.79,10.44-2.1,14.77-1.44,5-4.55,6.6a12,12,0,0,1-7.78.79l-.65-7.34a13.86,13.86,0,0,0,1.9-.31,3.71,3.71,0,0,0,1.35-.72,3.36,3.36,0,0,0,1-1.55q1.19-3.49,1.84-12.9.48-7.56,8-7.56Z"/><path class="cls-5" d="M199.84,141.05V117.58a6.55,6.55,0,0,1,2-5,7,7,0,0,1,5.07-1.91,115.52,115.52,0,0,1,14.64.62l-.44,6.64h-9.92a2,2,0,0,0-1.33.44,1.43,1.43,0,0,0-.51,1.14v21.5Z"/><rect class="cls-6" x="224.19" y="110.89" width="9.4" height="30.16"/><polygon class="cls-5" points="265.15 110.89 265.15 141.05 255.66 141.05 255.66 128.38 248.06 128.38 248.06 141.05 238.57 141.05 238.57 110.89 248.06 110.89 248.06 121.73 255.66 121.73 255.66 110.89 265.15 110.89"/><rect class="cls-6" x="270.13" y="110.89" width="9.4" height="30.16"/><polygon class="cls-5" points="318 117.97 309.56 117.97 309.56 141.05 300.07 141.05 300.07 117.97 291.64 117.97 291.64 110.89 318 110.89 318 117.97"/><path class="cls-5" d="M333.65,110.28a20.73,20.73,0,0,1,8.32,1.33,8.42,8.42,0,0,1,4.35,4.72c.94,2.26,1.4,5.47,1.4,9.64s-.46,7.38-1.4,9.64a8.42,8.42,0,0,1-4.35,4.72,26.59,26.59,0,0,1-16.61,0,8.49,8.49,0,0,1-4.35-4.72,26.22,26.22,0,0,1-1.4-9.64,26.22,26.22,0,0,1,1.4-9.64,8.49,8.49,0,0,1,4.35-4.72,20.66,20.66,0,0,1,8.29-1.33ZM336.9,119a3.94,3.94,0,0,0-6.51,0q-.81,1.72-.81,6.93t.81,6.93a3.93,3.93,0,0,0,6.51,0q.81-1.72.81-6.93T336.9,119Z"/><path class="cls-5" d="M377.32,110.89v30.16h-9.49v-24H366c-1.45,0-2.23.67-2.31,2q-.8,10.44-2.1,14.77-1.44,5-4.55,6.6a12,12,0,0,1-7.78.79l-.65-7.34a13.86,13.86,0,0,0,1.9-.31,3.71,3.71,0,0,0,1.35-.72,3.36,3.36,0,0,0,1-1.55q1.19-3.49,1.84-12.9.48-7.56,7.95-7.56Z"/><polygon class="cls-5" points="406.6 117.97 398.17 117.97 398.17 141.05 388.68 141.05 388.68 117.97 380.25 117.97 380.25 110.89 406.6 110.89 406.6 117.97"/><path class="cls-5" d="M419.06,121.25h2.45q6.87,0,9.46,2.12c1.74,1.41,2.61,4.06,2.61,7.93s-.81,6.46-2.41,7.92-4.25,2.18-7.95,2.18q-8.88,0-13.42-.35h-.27V110.89h9.53v10.36Zm27.24-10.36v30.16h-9.53V110.89Zm-27.24,24h2.45c1.05,0,1.73-.24,2.06-.74a6.65,6.65,0,0,0,.48-3.15,7,7,0,0,0-.48-3.21,2.29,2.29,0,0,0-2.06-.76h-2.45Z"/><path class="cls-5" d="M451.24,141.05V110.89q4.45-.44,12.76-.44c4.81,0,8.09.72,9.86,2.14s2.64,4.14,2.64,8.14-.81,6.61-2.45,8-4.54,2.14-8.74,2.14a40.46,40.46,0,0,1-4.59-.26v10.4Zm9.48-16.83h3.06a3.54,3.54,0,0,0,2.58-.7,4.21,4.21,0,0,0,.66-2.79,4.44,4.44,0,0,0-.66-2.87,3.49,3.49,0,0,0-2.58-.72h-3.06Z"/><path class="cls-5" d="M479,133h1.79a3.41,3.41,0,0,1,2.43.67,3.63,3.63,0,0,1,.72,2.47v2.8a15.67,15.67,0,0,1-.7,5.11,15.91,15.91,0,0,1-2.23,4.11L477.55,147a21,21,0,0,0,.83-6c-1.72,0-2.61-.93-2.66-2.8l.13-2.14a3.69,3.69,0,0,1,.7-2.47A3.29,3.29,0,0,1,479,133Z"/><path class="cls-7" d="M156.91,131.65v9.4h-9.48v-9.31l-10-20.85h9.74l3.81,9.49a24.61,24.61,0,0,1,.91,4.24h.57a29.5,29.5,0,0,1,.92-4.29l3.76-9.44h9.75Z"/><path class="cls-7" d="M195,110.89v30.16H185.5v-24h-1.84q-2.17,0-2.31,2-.79,10.44-2.1,14.77-1.44,5-4.55,6.6a12,12,0,0,1-7.78.79l-.65-7.34a13.86,13.86,0,0,0,1.9-.31,3.71,3.71,0,0,0,1.35-.72,3.36,3.36,0,0,0,1-1.55q1.19-3.49,1.84-12.9.48-7.56,8-7.56Z"/><path class="cls-7" d="M199.84,141.05V117.58a6.55,6.55,0,0,1,2-5,7,7,0,0,1,5.07-1.91,115.52,115.52,0,0,1,14.64.62l-.44,6.64h-9.92a2,2,0,0,0-1.33.44,1.43,1.43,0,0,0-.51,1.14v21.5Z"/><rect class="cls-8" x="224.19" y="110.89" width="9.4" height="30.16"/><polygon class="cls-7" points="265.15 110.89 265.15 141.05 255.66 141.05 255.66 128.38 248.06 128.38 248.06 141.05 238.57 141.05 238.57 110.89 248.06 110.89 248.06 121.73 255.66 121.73 255.66 110.89 265.15 110.89"/><rect class="cls-8" x="270.13" y="110.89" width="9.4" height="30.16"/><polygon class="cls-7" points="318 117.97 309.56 117.97 309.56 141.05 300.07 141.05 300.07 117.97 291.64 117.97 291.64 110.89 318 110.89 318 117.97"/><path class="cls-7" d="M333.65,110.28a20.73,20.73,0,0,1,8.32,1.33,8.42,8.42,0,0,1,4.35,4.72c.94,2.26,1.4,5.47,1.4,9.64s-.46,7.38-1.4,9.64a8.42,8.42,0,0,1-4.35,4.72,26.59,26.59,0,0,1-16.61,0,8.49,8.49,0,0,1-4.35-4.72,26.22,26.22,0,0,1-1.4-9.64,26.22,26.22,0,0,1,1.4-9.64,8.49,8.49,0,0,1,4.35-4.72,20.66,20.66,0,0,1,8.29-1.33ZM336.9,119a3.94,3.94,0,0,0-6.51,0q-.81,1.72-.81,6.93t.81,6.93a3.93,3.93,0,0,0,6.51,0q.81-1.72.81-6.93T336.9,119Z"/><path class="cls-7" d="M377.32,110.89v30.16h-9.49v-24H366c-1.45,0-2.23.67-2.31,2q-.8,10.44-2.1,14.77-1.44,5-4.55,6.6a12,12,0,0,1-7.78.79l-.65-7.34a13.86,13.86,0,0,0,1.9-.31,3.71,3.71,0,0,0,1.35-.72,3.36,3.36,0,0,0,1-1.55q1.19-3.49,1.84-12.9.48-7.56,7.95-7.56Z"/><polygon class="cls-7" points="406.6 117.97 398.17 117.97 398.17 141.05 388.68 141.05 388.68 117.97 380.25 117.97 380.25 110.89 406.6 110.89 406.6 117.97"/><path class="cls-7" d="M419.06,121.25h2.45q6.87,0,9.46,2.12c1.74,1.41,2.61,4.06,2.61,7.93s-.81,6.46-2.41,7.92-4.25,2.18-7.95,2.18q-8.88,0-13.42-.35h-.27V110.89h9.53v10.36Zm27.24-10.36v30.16h-9.53V110.89Zm-27.24,24h2.45c1.05,0,1.73-.24,2.06-.74a6.65,6.65,0,0,0,.48-3.15,7,7,0,0,0-.48-3.21,2.29,2.29,0,0,0-2.06-.76h-2.45Z"/><path class="cls-7" d="M451.24,141.05V110.89q4.45-.44,12.76-.44c4.81,0,8.09.72,9.86,2.14s2.64,4.14,2.64,8.14-.81,6.61-2.45,8-4.54,2.14-8.74,2.14a40.46,40.46,0,0,1-4.59-.26v10.4Zm9.48-16.83h3.06a3.54,3.54,0,0,0,2.58-.7,4.21,4.21,0,0,0,.66-2.79,4.44,4.44,0,0,0-.66-2.87,3.49,3.49,0,0,0-2.58-.72h-3.06Z"/><path class="cls-7" d="M479,133h1.79a3.41,3.41,0,0,1,2.43.67,3.63,3.63,0,0,1,.72,2.47v2.8a15.67,15.67,0,0,1-.7,5.11,15.91,15.91,0,0,1-2.23,4.11L477.55,147a21,21,0,0,0,.83-6c-1.72,0-2.61-.93-2.66-2.8l.13-2.14a3.69,3.69,0,0,1,.7-2.47A3.29,3.29,0,0,1,479,133Z"/><path class="cls-4" d="M15.3,177.75l-.08-.79-.79,0c-1.2,0-2.44.07-3.72.07a4.61,4.61,0,0,1-2.08-.46A3.49,3.49,0,0,1,7,175a6.77,6.77,0,0,1-.55-2.1,27.38,27.38,0,0,1,0-5.33,6.77,6.77,0,0,1,.55-2.1,3.54,3.54,0,0,1,1.6-1.62,4.49,4.49,0,0,1,2.08-.46l4.08,0,.08-.82-1-.14a25.53,25.53,0,0,0-3.14-.17,11.28,11.28,0,0,0-3.45.45,4.08,4.08,0,0,0-1.8,1.09,5.4,5.4,0,0,0-1,2.22,20.48,20.48,0,0,0,0,8.35,5.36,5.36,0,0,0,1,2.21,4.09,4.09,0,0,0,1.8,1.1,11.28,11.28,0,0,0,3.45.45,25.14,25.14,0,0,0,3.45-.21c.4-.05.77-.11,1.14-.19Zm3.91,2.42a2,2,0,0,1-1.11,1h0a18.12,18.12,0,0,1-3.4.78,29.45,29.45,0,0,1-4,.25,15,15,0,0,1-4.7-.66,7.87,7.87,0,0,1-3.55-2.25,9.27,9.27,0,0,1-1.91-3.86,24.53,24.53,0,0,1,0-10.33,9.37,9.37,0,0,1,1.91-3.87A7.94,7.94,0,0,1,6,158.94a15,15,0,0,1,4.7-.66,31.81,31.81,0,0,1,3.61.2,21.37,21.37,0,0,1,3.24.63,2,2,0,0,1,1.4,1.4l.25-.24a6,6,0,0,1,2.12-1.33,7.09,7.09,0,0,1,2.49-.44c2.31,0,4.36,0,6.18.1s3.08.16,4.07.29a1.85,1.85,0,0,1,.75.25,2,2,0,0,1,1.36-.53h6a2,2,0,0,1,2,2v4.9h.84v-4.9a2,2,0,0,1,2-2h6a2,2,0,0,1,1.59.78,2,2,0,0,1,1.59-.78h6a2,2,0,0,1,2,2,4,4,0,0,1,.65-.87,4,4,0,0,1,3-1.1h5.2a4.29,4.29,0,0,1,2.8.92,4,4,0,0,1,1.28,1.92,3.9,3.9,0,0,1,1.29-1.93,4.37,4.37,0,0,1,2.81-.91h5.32a4,4,0,0,1,2.94,1.1,3.88,3.88,0,0,1,1.1,2.21,5.75,5.75,0,0,1,1.22-1.65A6.07,6.07,0,0,1,94,158.94a7.09,7.09,0,0,1,2.49-.44c2.31,0,4.36,0,6.17.1s3.09.16,4.08.29a1.85,1.85,0,0,1,.75.25,2,2,0,0,1,1.36-.53h6a2,2,0,0,1,2,2v4.9h.84v-4.9a2,2,0,0,1,2-2h6a2,2,0,0,1,2,2v19.21a2,2,0,0,1-2,2h-6a2,2,0,0,1-2-2v-6.08h-.84v6.08a2,2,0,0,1-2,2h-6a2,2,0,0,1-1.35-.53,2.06,2.06,0,0,1-.89.27c-1,.12-2.29.21-4,.27-1.81.06-3.87.1-6.17.1a6.43,6.43,0,0,1-4.62-1.77,6.15,6.15,0,0,1-.49-.53v.12a2,2,0,0,1-1.93,2.06H83.92a2,2,0,0,1-2-2v-.08l-.09-2.14-.28.25a4.37,4.37,0,0,1-2.81.91H75.62a4.38,4.38,0,0,1-2.81-.9l-.25-.22-.07,2.24a2,2,0,0,1-2,1.93H65.07a2,2,0,0,1-1.4-.58,2,2,0,0,1-1.41.58h-6a2,2,0,0,1-1.59-.79,2,2,0,0,1-1.59.79h-6a2,2,0,0,1-2-2v-6.08h-.84v6.08a2,2,0,0,1-2,2h-6a2,2,0,0,1-1.35-.53,2,2,0,0,1-.89.27c-1,.12-2.29.21-3.94.27-1.81.06-3.87.1-6.18.1a6.44,6.44,0,0,1-4.61-1.76Zm-1.9-12.89v5.58a2.15,2.15,0,0,0-.51,0c-.68.07-1.52.12-2.51.16s-2.09.05-3.58.05h-.15a3.88,3.88,0,0,1-.11-.64,24.14,24.14,0,0,1,0-4.39,4.26,4.26,0,0,1,.11-.65h2.59l3.33,0a2.07,2.07,0,0,0,.83-.14Zm126,6.46h-.14c.09,0,.12.07.13,0v0Zm-2.84-4h5.21a2,2,0,0,1,1.9,2.09,18.52,18.52,0,0,1-.19,2,6.48,6.48,0,0,1-.48,1.65,3.91,3.91,0,0,1-3.88,2.26,4.72,4.72,0,0,1-2.24-.51h0a3.67,3.67,0,0,1-1.65-1.74,6.48,6.48,0,0,1-.48-1.65c-.08-.51-.14-1.12-.18-1.82a2.11,2.11,0,0,1,0-.26,2,2,0,0,1,2-2Zm5-.23h-5.16a2,2,0,0,1-1.76-2.2,11.31,11.31,0,0,1,.2-1.23,5.16,5.16,0,0,1,.37-1.11,3.72,3.72,0,0,1,1.5-1.66l.14-.09a5.17,5.17,0,0,1,4.48,0h0a3.67,3.67,0,0,1,1.65,1.74,5.77,5.77,0,0,1,.37,1.11,9.33,9.33,0,0,1,.18,1.08,1.47,1.47,0,0,1,0,.36,2,2,0,0,1-2,2ZM143,158.22a20.31,20.31,0,0,1,3.35.25,11,11,0,0,1,2.77.78,6.78,6.78,0,0,1,2.28,1.64l.34.39v0a2,2,0,0,1,1.54-2.16,25.78,25.78,0,0,1,3.4-.52c1.28-.11,2.64-.17,4.06-.17a20,20,0,0,1,3.71.3h0a7.44,7.44,0,0,1,2.88,1.1,4.88,4.88,0,0,1,1.42,1.51v-.69a2,2,0,0,1,2-2h6a2,2,0,0,1,2,2,3.84,3.84,0,0,1,3.6-2h5.2a4.3,4.3,0,0,1,2.81.92,4,4,0,0,1,1.28,1.91,4,4,0,0,1,1.28-1.92,4.38,4.38,0,0,1,2.82-.91H201a4,4,0,0,1,3,1.1,4,4,0,0,1,.65.87,2,2,0,0,1,2-2h6a2,2,0,0,1,1.49.67,1.81,1.81,0,0,1,.52-.2,25.62,25.62,0,0,1,3.39-.52c1.29-.11,2.64-.17,4.07-.17a20.09,20.09,0,0,1,3.71.3h0a7.49,7.49,0,0,1,2.89,1.1,5.06,5.06,0,0,1,1.87,2.44,8.93,8.93,0,0,1,.51,3.17,9.25,9.25,0,0,1-.26,2.32,5.37,5.37,0,0,1-.87,2,5.37,5.37,0,0,1,.44.51,6.3,6.3,0,0,1,1,2.24,10.31,10.31,0,0,1,.29,2.59,8.57,8.57,0,0,1-.52,3.14,5.21,5.21,0,0,1-1.89,2.44,7.41,7.41,0,0,1-2.79,1.11,17.33,17.33,0,0,1-3.5.32,28.94,28.94,0,0,1-8.69-1.12,2,2,0,0,1-1.67.9h-6a2,2,0,0,1-1.41-.59,2,2,0,0,1-1.33.58h-5.5a2,2,0,0,1-2-2v-.08l-.08-2.14a3.47,3.47,0,0,1-.29.25,4.35,4.35,0,0,1-2.81.91h-3.12a4.35,4.35,0,0,1-2.8-.9l-.25-.22-.07,2.24a2,2,0,0,1-2,1.93h-5.42a2,2,0,0,1-1.41-.58,2,2,0,0,1-1.41.58h-6a2,2,0,0,1-2-1.94,5.23,5.23,0,0,1-.83.73,7.55,7.55,0,0,1-2.79,1.11,17.36,17.36,0,0,1-3.51.32,29,29,0,0,1-8.83-1.16,2,2,0,0,1-1.32-1.42l-.07.07a7,7,0,0,1-2.28,1.65,11,11,0,0,1-2.77.78,22.44,22.44,0,0,1-6.68,0,11.09,11.09,0,0,1-2.77-.78,7,7,0,0,1-2.27-1.65,8.1,8.1,0,0,1-1.52-2.42,13.11,13.11,0,0,1-.8-3.09,30.28,30.28,0,0,1,0-7.61,13.11,13.11,0,0,1,.8-3.09,8.15,8.15,0,0,1,1.52-2.43,6.85,6.85,0,0,1,2.27-1.64,11.09,11.09,0,0,1,2.77-.78,20.15,20.15,0,0,1,3.33-.25Zm2.72,4.18a7,7,0,0,1,1.76.49,3,3,0,0,1,1,.71,4.36,4.36,0,0,1,.76,1.23,9,9,0,0,1,.53,2.14,26.43,26.43,0,0,1,0,6.49,8.92,8.92,0,0,1-.53,2.13,4.28,4.28,0,0,1-.76,1.24,3,3,0,0,1-1,.71,7.48,7.48,0,0,1-1.76.49,17.57,17.57,0,0,1-2.72.18,17.3,17.3,0,0,1-2.7-.18,7.38,7.38,0,0,1-1.75-.49,3,3,0,0,1-1-.71,4.07,4.07,0,0,1-.76-1.24,9.39,9.39,0,0,1-.54-2.13,27.81,27.81,0,0,1,0-6.49,9.49,9.49,0,0,1,.54-2.14,4.14,4.14,0,0,1,.76-1.23,3,3,0,0,1,1-.71,6.94,6.94,0,0,1,1.75-.49,17.3,17.3,0,0,1,2.7-.18,17.57,17.57,0,0,1,2.72.18Zm8.09,4.71a29.68,29.68,0,0,1,.15,3.1,28,28,0,0,1-.13,2.85h.24l.21,0,.51.08a2,2,0,0,1-.62-1.45h0V168a1.83,1.83,0,0,1,.19-.85,2,2,0,0,1-.55,0Zm317.67-4.45,0,.3c1.67-.15,3.13-.23,4.38-.23a4.71,4.71,0,0,1,1.23.15,2.86,2.86,0,0,1,1.37.78,2.8,2.8,0,0,1,.65,1.13,1.82,1.82,0,0,1,.07.25,5,5,0,0,1,.13,1.22,5.15,5.15,0,0,1-.26,1.72,2.27,2.27,0,0,1,.7-.2,2.72,2.72,0,0,0,.86-.2.78.78,0,0,0,.28-.22,1.56,1.56,0,0,0,.24-.59,5.77,5.77,0,0,0,.14-1.37,5.09,5.09,0,0,0-.25-1.74,1.25,1.25,0,0,0-.4-.59,3.9,3.9,0,0,0-1.37-.46,16.08,16.08,0,0,0-3-.22c-1.42,0-2.65.05-3.7.14l-1.13.13Zm-3.14-3.38a1.87,1.87,0,0,1,.51-.2,25.78,25.78,0,0,1,3.4-.52c1.28-.11,2.64-.17,4.06-.17a20.09,20.09,0,0,1,3.71.3h0a7.44,7.44,0,0,1,2.88,1.1,5.06,5.06,0,0,1,1.87,2.44,8.7,8.7,0,0,1,.52,3.17,9.74,9.74,0,0,1-.26,2.32,5.73,5.73,0,0,1-.87,2,5.27,5.27,0,0,1,.43.51,6.49,6.49,0,0,1,1,2.24,10.8,10.8,0,0,1,.29,2.59,8.57,8.57,0,0,1-.53,3.14,5.13,5.13,0,0,1-1.88,2.44,7.55,7.55,0,0,1-2.79,1.11,17.43,17.43,0,0,1-3.51.32,29,29,0,0,1-8.69-1.12,2,2,0,0,1-1.66.9h-6.07a2,2,0,0,1-2-1.91l-.22.21a6.79,6.79,0,0,1-2.85,1.49,13.25,13.25,0,0,1-3.56.43q-5.6,0-8.59-.22h-.12a1.9,1.9,0,0,0-2.74,0h-5.5a2,2,0,0,1-2-2v-.08l-.08-2.14a3.47,3.47,0,0,1-.29.25,4.35,4.35,0,0,1-2.81.91h-3.12a4.33,4.33,0,0,1-2.8-.9l-.25-.22-.07,2.24a2,2,0,0,1-2,1.93h-5.42a1.63,1.63,0,0,1-.5-.07,2,2,0,0,1-.48.06h-6.15a2,2,0,0,1-2-1.65l-.59-2.5h-2.09l-.61,2.6a2,2,0,0,1-1.95,1.54h-6.15a2,2,0,0,1-1-.29c-.61.15-1.27.27-2,.37a29.45,29.45,0,0,1-4,.25,15,15,0,0,1-4.7-.66,7.87,7.87,0,0,1-3.55-2.25,7.43,7.43,0,0,1-.94-1.34v1.92a2,2,0,0,1-2,2h-6.06a2,2,0,0,1-2-1.91l-.22.21a6.79,6.79,0,0,1-2.85,1.49A13.25,13.25,0,0,1,363,182c-3.73,0-6.6-.07-8.59-.22h-.12a2,2,0,0,0-3.18,0h-6a2,2,0,0,1-2-2v-6.08h-.84v6.08a2,2,0,0,1-2,2h-6a1.85,1.85,0,0,1-.67-.12l-.13,0a2,2,0,0,1-.54.07h-6.15a2,2,0,0,1-2-1.65l-.58-2.5H322l-.61,2.6a2,2,0,0,1-1.95,1.54h-6.15a1.8,1.8,0,0,1-.66-.12,1.89,1.89,0,0,1-.67.12h-6a2,2,0,0,1-2-2v-4.24l-.07.23a11.07,11.07,0,0,1-1.46,3.21,6.62,6.62,0,0,1-2.43,2.2h0a8,8,0,0,1-2.95.85,11.84,11.84,0,0,1-3.27-.16,1.91,1.91,0,0,1-.73-.28,2,2,0,0,1-.82.18h-5.73a2,2,0,0,1-2-2V177l-2,3.75a2,2,0,0,1-1.77,1.07H275a1.91,1.91,0,0,1-.68-.12l-.12,0a2,2,0,0,1-.54.07h-6.15a2,2,0,0,1-2-1.65l-.59-2.5h-2.09l-.61,2.6a2,2,0,0,1-2,1.54h-6.15a2,2,0,0,1-1.68-.93,8.83,8.83,0,0,1-2,.76l-.1,0a16,16,0,0,1-3.65.37q-5.57,0-8.64-.22h-.13a2,2,0,0,1-2-2V160.61a2,2,0,0,1,2-2c1-.07,2.15-.12,3.39-.16s2.62-.06,3.79-.06c2.35,0,4.86.08,7.51.23a2,2,0,0,1,1.88,2.1l-.45,4.41a2,2,0,0,1-2,1.79h-.14a6.31,6.31,0,0,1,1.39.75,5.44,5.44,0,0,1,1.66,1.95l2.26-8a4.36,4.36,0,0,1,.54-1.2,4.21,4.21,0,0,1,.92-1,4.07,4.07,0,0,1,1.18-.63,4,4,0,0,1,1.31-.22h5.49a4,4,0,0,1,2.5.85,4.16,4.16,0,0,1,.91,1l.11.19a4.1,4.1,0,0,1,.43,1l2.4,8.49v-9.51a2,2,0,0,1,2-2h3a5.64,5.64,0,0,1-.93-1.74,5.58,5.58,0,0,1-.17-2.73,2,2,0,0,1,2-1.64h3.54a2,2,0,0,1,1.44.61,2,2,0,0,1,1.16-.59l.27,0h3.53a2,2,0,0,1,2,1.76,5.47,5.47,0,0,1-.17,2.61,5.56,5.56,0,0,1-.92,1.75h2.52a2,2,0,0,1,2,2V173.2l.18,0h0a.36.36,0,0,0,.12-.08s0,0,0-.06a17,17,0,0,0,.58-2.82c.19-1.32.35-2.95.48-4.9v0a7.11,7.11,0,0,1,2-4.88,7,7,0,0,1,5-1.76H312a2,2,0,0,1,2,2v9.51l2.39-8.49a4.38,4.38,0,0,1,.55-1.2,4.16,4.16,0,0,1,.91-1,4.07,4.07,0,0,1,1.18-.63,4,4,0,0,1,1.32-.22h5.48a4,4,0,0,1,2.5.85,4.16,4.16,0,0,1,.91,1l.11.19a4.1,4.1,0,0,1,.43,1l2.4,8.49v-9.51a2,2,0,0,1,2-2h6a2,2,0,0,1,2,2v4.9h.84v-4.9a2,2,0,0,1,2-2h6a2,2,0,0,0,3.18,0h6.06a2,2,0,0,1,2,2v4.6a17.83,17.83,0,0,1,3.68.39,7.56,7.56,0,0,1,3.17,1.41,5.22,5.22,0,0,1,.43.39v-6.79a2,2,0,0,1,2-2h6.06a2,2,0,0,1,2,2v1.92a7.39,7.39,0,0,1,4.49-3.59,15,15,0,0,1,4.7-.66,31.81,31.81,0,0,1,3.61.2,21.37,21.37,0,0,1,3.24.63,2,2,0,0,1,1.45,2.15l-.44,4.36a2,2,0,0,1-2.09,1.8l-3.33,0h-2.59a4.26,4.26,0,0,0-.11.65,24.14,24.14,0,0,0,0,4.39,3.88,3.88,0,0,0,.11.64h.15c1.49,0,2.68,0,3.58-.05s1.83-.09,2.51-.16a2,2,0,0,1,.77.07l3.19-11.29a4.36,4.36,0,0,1,.54-1.2,4.21,4.21,0,0,1,.92-1,4.07,4.07,0,0,1,1.18-.63,4,4,0,0,1,1.31-.22h5.49a4,4,0,0,1,2.5.85,4.16,4.16,0,0,1,.91,1l.11.19a4.1,4.1,0,0,1,.43,1l2.42,8.56.29-7.57a4.16,4.16,0,0,1,1.17-2.91,4,4,0,0,1,2.94-1.1h5.2a4.28,4.28,0,0,1,2.81.92,1.07,1.07,0,0,1,.16.14,4.07,4.07,0,0,1,1.12,1.77,4,4,0,0,1,1.28-1.92,4.38,4.38,0,0,1,2.82-.91h5.31a4,4,0,0,1,2.95,1.1,4,4,0,0,1,.65.87,2,2,0,0,1,2-2h6.07a2,2,0,0,1,2,2v4.6a18,18,0,0,1,3.68.39,7.57,7.57,0,0,1,3.16,1.41,5.22,5.22,0,0,1,.43.39v-6.79a2,2,0,0,1,2-2h6.07a2,2,0,0,1,1.49.67Zm9.62,10.49a1.86,1.86,0,0,1,.05-.42,3.25,3.25,0,0,1-.8.36,3.82,3.82,0,0,1-.75.15,4.81,4.81,0,0,1,.71.11l.23.05a3.32,3.32,0,0,1,.58.22,1.51,1.51,0,0,1,0-.3v-.17Zm2,2.17a2.63,2.63,0,0,1-.49-.07,5.51,5.51,0,0,1,.3,1.93,6.57,6.57,0,0,1-.14,1.4,3.21,3.21,0,0,1-.75,1.47,3.66,3.66,0,0,1-2.84,1c-.87,0-1.9-.06-3.11-.18-.54-.05-1.11-.12-1.7-.19l0,.17a29.31,29.31,0,0,0,6,.54,13.35,13.35,0,0,0,2.69-.22,3.9,3.9,0,0,0,1.34-.49,1.31,1.31,0,0,0,.43-.61,4.6,4.6,0,0,0,.25-1.69,6.76,6.76,0,0,0-.17-1.62,2.5,2.5,0,0,0-.36-.85,1.2,1.2,0,0,0-.47-.36,3,3,0,0,0-1-.26Zm-11.07,1.21a1.94,1.94,0,0,1,.8-.08l.21,0,.51.08a2,2,0,0,1-.62-1.45h0V168a2,2,0,0,1,.19-.85,2,2,0,0,1-1.08-.21v6.22Zm-14.52-3.66a11.24,11.24,0,0,0-1.34-.2,2.76,2.76,0,0,1,1.07,1,6,6,0,0,1,.62,3.11,10.13,10.13,0,0,1-.1,1.56,4,4,0,0,1-.44,1.36l-.09.16a2.81,2.81,0,0,1-1.48,1.15,4.47,4.47,0,0,1-1.51.24h-1.55a2,2,0,0,1-2-2v-5a2,2,0,0,1,1.17-1.82,2,2,0,0,1-1.17-1.82v-4.6h-2.07v15.31q2.59.12,6.71.12a9.66,9.66,0,0,0,2.51-.27,3,3,0,0,0,1.21-.6,2.26,2.26,0,0,0,.59-1.06,8.87,8.87,0,0,0,.29-2.5,8.17,8.17,0,0,0-.32-2.5,2.12,2.12,0,0,0-.6-1,3.82,3.82,0,0,0-1.5-.61Zm10.52,8.33V162.61h-2.07v15.21Zm-27-15.21h-5.31a1.34,1.34,0,0,0-.32,0l0,.18-1.31,7.59-.08.64-.12,1-.1,1a2,2,0,0,1-1.1,1.78h.84a1.49,1.49,0,0,1,0-.21l1.87-9.68a2,2,0,0,1,2-1.74h.41a2,2,0,0,1,2,1.91l.5,12.78h1.44l-.58-15c0-.17,0-.2,0-.22s0,.05-.15.05Zm-10.94,12.14h.52a2,2,0,0,1-1.09-1.62q-.09-1.11-.15-1.65c-.05-.47-.09-.82-.13-1L424.68,163l0-.17c0-.12,0-.18,0-.2h-5.49c-.11,0-.11-.05-.13-.06a1.21,1.21,0,0,1,0,.19l-.59,15.08h1.42l.41-12.6v-.1a2,2,0,0,1,2-2h.41a2,2,0,0,1,2,1.62l1.92,9.8h0v0a1,1,0,0,1,0,.16,1,1,0,0,0,.32,0ZM403,173.67h5.26a2,2,0,0,1,1.94,1.55l.61,2.6h1.93l-4.27-15.14,0-.06h-5.6l0,0,0,.06-4.26,15.11h1.93l.59-2.5a2,2,0,0,1,2-1.65Zm5.29-6.74c-.07-.37-.13-.74-.19-1.11s-.1-.69-.11-.89a2,2,0,0,0-2-1.8h-.75a2,2,0,0,0-2,1.91l-.14,1q-.09.57-.15.87L402,171a2,2,0,0,0,1.5,2.39,1.73,1.73,0,0,0,.45.05h3.31a2,2,0,0,0,2-2,2.2,2.2,0,0,0-.08-.58l-.91-3.93Zm-14.82,10.82-.08-.79-.79,0c-1.2,0-2.44.07-3.72.07a4.65,4.65,0,0,1-2.08-.46,3.49,3.49,0,0,1-1.6-1.62,6.77,6.77,0,0,1-.55-2.1,27.38,27.38,0,0,1,0-5.33,6.77,6.77,0,0,1,.55-2.1,3.54,3.54,0,0,1,1.6-1.62,4.52,4.52,0,0,1,2.08-.46l4.08,0,.08-.82-1-.14a25.53,25.53,0,0,0-3.14-.17,11.28,11.28,0,0,0-3.45.45,4.08,4.08,0,0,0-1.8,1.09,5.4,5.4,0,0,0-1,2.22,20.48,20.48,0,0,0,0,8.35,5.36,5.36,0,0,0,1,2.21,4.09,4.09,0,0,0,1.8,1.1,11.28,11.28,0,0,0,3.45.45,25.14,25.14,0,0,0,3.45-.21c.4-.05.77-.11,1.14-.19Zm-28.3-8.26a10.76,10.76,0,0,0-1.33-.2,2.83,2.83,0,0,1,1.07,1,6,6,0,0,1,.62,3.11,11.57,11.57,0,0,1-.1,1.56,4,4,0,0,1-.44,1.36l-.09.16a2.85,2.85,0,0,1-1.48,1.15,4.47,4.47,0,0,1-1.51.24h-1.56a2,2,0,0,1-2-2v-5a2,2,0,0,1,1.18-1.82,2,2,0,0,1-1.18-1.82v-4.6h-2.06v15.31q2.6.12,6.71.12a9.71,9.71,0,0,0,2.51-.27,3,3,0,0,0,1.21-.6,2.34,2.34,0,0,0,.59-1.06,8.87,8.87,0,0,0,.29-2.5,8.17,8.17,0,0,0-.32-2.5,2.12,2.12,0,0,0-.6-1,3.81,3.81,0,0,0-1.51-.61Zm10.52,8.33V162.61h-2.06v15.21Zm-26.58,0V162.61h-2v4.9a2,2,0,0,1-2,2h-4.84a2,2,0,0,1-2-2v-4.9h-2v15.21h2v-6.08a2,2,0,0,1,2-2h4.84a2,2,0,0,1,2,2v6.08Zm-28.64-4.15h5.26a2,2,0,0,1,1.94,1.55l.61,2.6h1.94l-4.28-15.14,0-.06h-5.59l0,0a.14.14,0,0,0,0,.06L316,177.82h1.93l.59-2.5a2,2,0,0,1,2-1.65Zm5.3-6.74c-.07-.37-.14-.74-.19-1.11s-.1-.69-.12-.89a2,2,0,0,0-2-1.8h-.75a2,2,0,0,0-2,1.91l-.14,1c-.06.38-.11.67-.14.87l-.94,4.09a2,2,0,0,0,1.5,2.39,1.7,1.7,0,0,0,.44.05h3.31a2,2,0,0,0,2-2,2.2,2.2,0,0,0-.08-.58l-.9-3.93ZM310,177.82V162.61h-3.61a2,2,0,0,1,1.57,1.95v13.26Zm-7.58-14.44a3.28,3.28,0,0,1,1.7-.77h-1.45a3.26,3.26,0,0,0-2.27.65,3.36,3.36,0,0,0-.8,2.26v0c-.14,2-.32,3.78-.52,5.19a20.54,20.54,0,0,1-.75,3.52v0a4,4,0,0,1-1.29,1.89,5.08,5.08,0,0,1-.74.5h0a2.86,2.86,0,0,1-.44.2l.12,1.27q.36,0,.69,0a4.16,4.16,0,0,0,1.5-.43h0a2.71,2.71,0,0,0,1-.93,7.07,7.07,0,0,0,.91-2.06v0a47.59,47.59,0,0,0,1.25-9,3.23,3.23,0,0,1,1.1-2.32Zm-18.56-2.08h0a8.56,8.56,0,0,1-1.15-.07v2.21l1.15-2.14Zm4.64,16.52h1.73V162.61h-2.54l-1.94,3.6a1.93,1.93,0,0,1,.86-.19h.2a1.84,1.84,0,0,1,.33,0,2,2,0,0,1,1.64,2.29c-.1.59-.17,1.1-.22,1.54a11.05,11.05,0,0,0-.06,1.11v6.83Zm-9,0,2-3.82a2,2,0,0,1-1,.25h-.19a1.55,1.55,0,0,1-.31,0,2,2,0,0,1-1.66-2.27,19.24,19.24,0,0,0,.27-2.81v-6.52H277v15.21Zm-18.28-4.15h5.26a2,2,0,0,1,1.94,1.55l.61,2.6H271l-4.27-15.14,0-.06h-5.59l0,0,0,.06-4.26,15.11h1.93l.59-2.5a2,2,0,0,1,2-1.65Zm5.29-6.74c-.07-.37-.13-.74-.19-1.11s-.1-.69-.11-.89a2,2,0,0,0-2-1.8h-.75a2,2,0,0,0-2,1.91l-.14,1q-.09.57-.15.87l-.94,4.09a2,2,0,0,0,1.5,2.39,1.73,1.73,0,0,0,.45.05h3.31a2,2,0,0,0,2-2,2.2,2.2,0,0,0-.08-.58l-.91-3.93Zm-17.26,3.38a12,12,0,0,0-1.2-.17,2.64,2.64,0,0,1,.61.42,2,2,0,0,1,.21.2,3.36,3.36,0,0,1,.74,1.54,7.27,7.27,0,0,1,.13,1.48,7.17,7.17,0,0,1-.13,1.47,3.31,3.31,0,0,1-.74,1.54,3,3,0,0,1-1.56.9,5.7,5.7,0,0,1-1.49.17h-1.92a2,2,0,0,1-2-2v-4.17a2,2,0,0,1,1.18-1.82,2,2,0,0,1-1.18-1.83v-3.11a2,2,0,0,1,2-2h6.28l0-.43c-1.75-.07-3.49-.11-5.2-.11-1.44,0-2.66,0-3.69.05l-1.47.05v15.43c1.77.08,4,.12,6.77.12a12.36,12.36,0,0,0,2.74-.25l.07,0a3.73,3.73,0,0,0,1.44-.62q.9-.71.9-3.18a6.56,6.56,0,0,0-.3-2.19,1.88,1.88,0,0,0-.59-.87,4.41,4.41,0,0,0-1.64-.6Zm-32.05-7.65,0,.3c1.67-.15,3.13-.23,4.38-.23a4.71,4.71,0,0,1,1.23.15,2.87,2.87,0,0,1,1.37.78A2.9,2.9,0,0,1,225,165h0a5.24,5.24,0,0,1,.14,1.22,4.89,4.89,0,0,1-.27,1.72,2.35,2.35,0,0,1,.7-.2,2.66,2.66,0,0,0,.86-.2.71.71,0,0,0,.28-.22,1.56,1.56,0,0,0,.25-.59,5.83,5.83,0,0,0,.13-1.37,5.12,5.12,0,0,0-.24-1.74,1.19,1.19,0,0,0-.41-.59,3.83,3.83,0,0,0-1.37-.46,16,16,0,0,0-3-.22c-1.42,0-2.65.05-3.71.14l-1.12.13Zm6.48,7.11a1.87,1.87,0,0,1,0-.42,3,3,0,0,1-.79.36,4.15,4.15,0,0,1-.75.15,5,5,0,0,1,.71.11l.23.05a3.21,3.21,0,0,1,.57.22c0-.1,0-.2,0-.3v-.17Zm2,2.17a2.52,2.52,0,0,1-.49-.07,5.51,5.51,0,0,1,.3,1.93,6,6,0,0,1-.15,1.4,3.11,3.11,0,0,1-.74,1.47,3.66,3.66,0,0,1-2.84,1c-.87,0-1.91-.06-3.11-.18l-1.71-.19,0,.17a29.34,29.34,0,0,0,6,.54,13.42,13.42,0,0,0,2.69-.22,4,4,0,0,0,1.34-.49,1.39,1.39,0,0,0,.43-.61,4.85,4.85,0,0,0,.24-1.69,6.81,6.81,0,0,0-.16-1.62,2.5,2.5,0,0,0-.36-.85,1.27,1.27,0,0,0-.47-.36,3,3,0,0,0-1-.26Zm-11.08,1.21a2,2,0,0,1,.81-.08l.2,0,.51.08a2,2,0,0,1-.61-1.45h0V168a2,2,0,0,1,.19-.85,2,2,0,0,1-1.09-.21v6.22Zm-6,4.67h2V162.61h-2v15.21ZM201,162.61H195.7a1.34,1.34,0,0,0-.32,0l0,.18-1.31,7.59L194,171l-.12,1-.1,1a2,2,0,0,1-1.1,1.78h.84a1.49,1.49,0,0,1,0-.21l1.87-9.68a2,2,0,0,1,2-1.74h.41a2,2,0,0,1,2,1.91l.5,12.78h1.44l-.58-15c0-.17,0-.2,0-.22s0,.05-.15.05Zm-10.94,12.14h.52a2,2,0,0,1-1.09-1.62q-.09-1.11-.15-1.65c0-.47-.09-.82-.13-1L187.87,163l0-.17,0-.21h-5.48a.15.15,0,0,1-.13-.06,1.21,1.21,0,0,1,0,.19l-.59,15.08H183l.41-12.6v-.1a2,2,0,0,1,2-2h.41a2,2,0,0,1,2,1.62l1.92,9.8h0v0a1,1,0,0,1,0,.16,1,1,0,0,0,.32,0Zm-17.34,3.07h2V162.61h-2v15.21Zm-4-7.95v-.43c0,.09-.11.17-.16.25l.16.18Zm-12.85-7.21,0,.3c1.67-.15,3.13-.23,4.38-.23a4.71,4.71,0,0,1,1.23.15,2.83,2.83,0,0,1,1.37.78,2.9,2.9,0,0,1,.72,1.38h0a5.24,5.24,0,0,1,.14,1.22,5.15,5.15,0,0,1-.26,1.72,2.27,2.27,0,0,1,.7-.2,2.72,2.72,0,0,0,.86-.2.78.78,0,0,0,.28-.22,1.56,1.56,0,0,0,.24-.59,5.77,5.77,0,0,0,.14-1.37,5.09,5.09,0,0,0-.25-1.74,1.25,1.25,0,0,0-.4-.59,3.9,3.9,0,0,0-1.37-.46,16.08,16.08,0,0,0-3-.22c-1.42,0-2.65.05-3.7.14l-1.13.13Zm6.48,7.11a1.86,1.86,0,0,1,0-.42,3.35,3.35,0,0,1-.79.36,4.09,4.09,0,0,1-.76.15,5,5,0,0,1,.72.11l.22.05a3.32,3.32,0,0,1,.58.22,1.51,1.51,0,0,1,0-.3v-.17Zm2,2.17a2.63,2.63,0,0,1-.49-.07,5.51,5.51,0,0,1,.3,1.93,6.57,6.57,0,0,1-.14,1.4,3.21,3.21,0,0,1-.75,1.47,3.66,3.66,0,0,1-2.84,1c-.87,0-1.9-.06-3.11-.18-.54-.05-1.11-.12-1.7-.19l0,.17a29.31,29.31,0,0,0,6,.54,13.28,13.28,0,0,0,2.69-.22,3.9,3.9,0,0,0,1.34-.49,1.31,1.31,0,0,0,.43-.61,4.6,4.6,0,0,0,.25-1.69,6.76,6.76,0,0,0-.17-1.62,2.5,2.5,0,0,0-.36-.85,1.2,1.2,0,0,0-.47-.36,3,3,0,0,0-1-.26Zm-40.6,5.88V162.61h-2v4.9a2,2,0,0,1-2,2h-4.84a2,2,0,0,1-2-2v-4.9h-2v15.21h2v-6.08a2,2,0,0,1,2-2h4.84a2,2,0,0,1,2,2v6.08Zm-16.92-4.41v-.28l-.18.23.18,0Zm-2.48,4.35,0-.45H99.11a3.54,3.54,0,0,1-1-.14l-.14,0a3.07,3.07,0,0,1-1.07-.62,2.84,2.84,0,0,1-1-2.2V172a2,2,0,0,1,2-2h0a2,2,0,0,1-2-2v-1.87a2.84,2.84,0,0,1,1-2.2A2.92,2.92,0,0,1,98,163.3h0a3.37,3.37,0,0,1,1.09-.18h5.18l0-.45-1.85-.09q-2.28-.08-6-.08a3.22,3.22,0,0,0-1.1.17,2.19,2.19,0,0,0-.77.49,1.89,1.89,0,0,0-.47.69,2.79,2.79,0,0,0-.17,1v10.69a2.79,2.79,0,0,0,.17,1,1.89,1.89,0,0,0,.47.69,2.59,2.59,0,0,0,1.87.66c2.5,0,4.52,0,6-.08l1.85-.09ZM86.56,162.61H81.24a1.29,1.29,0,0,0-.31,0l0,.18-1.3,7.59-.08.64-.12,1-.11,1a2,2,0,0,1-1.1,1.78H79l0-.21,1.87-9.68a2,2,0,0,1,2-1.74h.42a2,2,0,0,1,2,1.91l.51,12.78h1.44l-.59-15c0-.17,0-.2,0-.22s0,.05-.15.05ZM75.62,174.75h.52a2,2,0,0,1-1.09-1.62Q75,172,74.9,171.48c-.05-.47-.09-.82-.13-1l-1.42-7.82H67.86c-.11,0-.12-.05-.13-.06a1.21,1.21,0,0,1,0,.19l-.58,15.08h1.42l.41-12.6v-.1a2,2,0,0,1,2-2h.42a2,2,0,0,1,2,1.62l1.92,9.8h0v0l0,.16a.92.92,0,0,0,.32,0Zm-17.34,3.07h2V162.61h-2v15.21Zm-7.18,0V162.61h-2v4.9a2,2,0,0,1-2,2H42.22a2,2,0,0,1-2-2v-4.9h-2v15.21h2v-6.08a2,2,0,0,1,2-2h4.84a2,2,0,0,1,2,2v6.08Zm-16.92-4.41v-.28a2,2,0,0,1-.18.23l.18,0Zm-2.48,4.35,0-.45H26.5a3.55,3.55,0,0,1-1-.14l-.14,0a3.07,3.07,0,0,1-1.07-.62,2.84,2.84,0,0,1-1-2.2V172a2,2,0,0,1,2-2h0a2,2,0,0,1-2-2v-1.87a2.87,2.87,0,0,1,1-2.2,2.92,2.92,0,0,1,1.07-.62h0a3.38,3.38,0,0,1,1.1-.18h5.17l0-.45-1.84-.09c-1.52-.05-3.54-.08-6-.08a3.22,3.22,0,0,0-1.1.17,2.15,2.15,0,0,0-.76.49,1.91,1.91,0,0,0-.48.69,2.79,2.79,0,0,0-.17,1v10.69a2.79,2.79,0,0,0,.17,1,1.91,1.91,0,0,0,.48.69,2.56,2.56,0,0,0,1.86.66q3.76,0,6-.08Z"/><path class="cls-1" d="M17,174.83l.45,4.4a21.08,21.08,0,0,1-6.74.92q-4.79,0-6.75-2.23c-1.3-1.48-2-4-2-7.71s.66-6.22,2-7.71,3.56-2.22,6.75-2.22A23.92,23.92,0,0,1,17,161l-.44,4.4q-3.9-.06-5.88-.06a1.91,1.91,0,0,0-1.89,1,16.29,16.29,0,0,0,0,7.77,1.91,1.91,0,0,0,1.89,1q4.15,0,6.29-.23Zm128.54-3.09h-5.12a8.49,8.49,0,0,0,.49,2.89,2.5,2.5,0,0,0,4.14,0,8.49,8.49,0,0,0,.49-2.89Zm-5-4.23h4.94a5.8,5.8,0,0,0-.4-1.71,2.5,2.5,0,0,0-4.14,0,5.8,5.8,0,0,0-.4,1.71Zm2.47-7.29a13.15,13.15,0,0,1,5.3.85,5.39,5.39,0,0,1,2.77,3,21.59,21.59,0,0,1,0,12.27,5.39,5.39,0,0,1-2.77,3,16.86,16.86,0,0,1-10.57,0,5.35,5.35,0,0,1-2.77-3,21.59,21.59,0,0,1,0-12.27,5.35,5.35,0,0,1,2.77-3,13.05,13.05,0,0,1,5.27-.85Zm326.74,4.93-.44-4.12a31.52,31.52,0,0,1,7-.64c2.63,0,4.46.35,5.47,1s1.52,2,1.52,4a5.27,5.27,0,0,1-.78,3.16,3.44,3.44,0,0,1-2.56,1.21v.17a4,4,0,0,1,3,1.44,6.14,6.14,0,0,1,.92,3.65c0,1.91-.52,3.22-1.55,3.94s-2.75,1.07-5.16,1.07A26.84,26.84,0,0,1,469,179l.44-3.92a44.43,44.43,0,0,0,6.57.64,1.88,1.88,0,0,0,1.38-.38,2.34,2.34,0,0,0,.35-1.52,2.47,2.47,0,0,0-.35-1.57,2,2,0,0,0-1.4-.4l-4.24-.09V168l4.18-.09a1.54,1.54,0,0,0,1.14-.34,2.09,2.09,0,0,0,.28-1.3A1.85,1.85,0,0,0,477,165a1.6,1.6,0,0,0-1.16-.31,55.21,55.21,0,0,0-6.15.42Zm-20.23,2.06H451q4.38,0,6,1.35c1.1.9,1.66,2.58,1.66,5.05s-.51,4.11-1.53,5-2.71,1.39-5.07,1.39q-5.65,0-8.55-.22h-.16V160.61h6.07v6.6Zm17.34-6.6v19.21h-6.07V160.61Zm-17.34,15.25H451c.67,0,1.11-.15,1.31-.47a4.12,4.12,0,0,0,.31-2,4.36,4.36,0,0,0-.31-2,1.45,1.45,0,0,0-1.31-.49h-1.55v5Zm-17-15.25h5.31a1.91,1.91,0,0,1,2.12,2.09l.67,17.12h-5.43l-.59-14.7h-.41l-1.9,9.8a2,2,0,0,1-2.28,1.83h-3.12a2.08,2.08,0,0,1-2.31-1.83l-1.92-9.8h-.41l-.48,14.7h-5.42L417,162.7a1.91,1.91,0,0,1,2.12-2.09h5.2a2.08,2.08,0,0,1,2.29,1.87L428,170.1c.09.6.19,1.55.3,2.87h.25c0-.06.05-.46.13-1.2s.15-1.3.21-1.67l1.31-7.62a2.08,2.08,0,0,1,2.31-1.87Zm-24.27,15.06H403l-1,4.15h-6.15l5-17.65a2.14,2.14,0,0,1,.75-1.13,2.08,2.08,0,0,1,1.28-.43h5.49a2.08,2.08,0,0,1,1.28.43,2.14,2.14,0,0,1,.75,1.13l5,17.65h-6.15l-1-4.15Zm-1-4.23-.94-4.12c-.17-.87-.28-1.61-.34-2.2h-.75c-.11.87-.22,1.61-.33,2.2l-.95,4.12Zm-12.11,3.39.45,4.4a21.08,21.08,0,0,1-6.74.92q-4.78,0-6.75-2.23c-1.3-1.48-2-4-2-7.71s.66-6.22,2-7.71,3.56-2.22,6.75-2.22a23.92,23.92,0,0,1,6.32.75l-.44,4.4q-3.9-.06-5.88-.06a1.91,1.91,0,0,0-1.89,1,16.29,16.29,0,0,0,0,7.77,1.91,1.91,0,0,0,1.89,1q4.15,0,6.29-.23Zm-34.82-7.62h1.56c2.92,0,4.92.45,6,1.35s1.66,2.58,1.66,5.05-.52,4.11-1.54,5S365.34,180,363,180q-5.66,0-8.55-.22h-.16V160.61h6.06v6.6Zm17.34-6.6v19.21h-6.06V160.61Zm-17.34,15.25h1.56c.67,0,1.11-.15,1.31-.47a4.12,4.12,0,0,0,.31-2,4.36,4.36,0,0,0-.31-2,1.45,1.45,0,0,0-1.31-.49h-1.56v5Zm-9.24-15.25v19.21h-6v-8.08h-4.84v8.08h-6V160.61h6v6.9h4.84v-6.9Zm-25.38,15.06h-5.26l-1,4.15h-6.15l5-17.65a2.08,2.08,0,0,1,.75-1.13,2.06,2.06,0,0,1,1.28-.43h5.48a2.08,2.08,0,0,1,1.28.43,2.14,2.14,0,0,1,.75,1.13l5,17.65h-6.15l-1-4.15Zm-1-4.23-.94-4.12c-.17-.87-.28-1.61-.34-2.2h-.75c-.11.87-.22,1.61-.33,2.2l-.95,4.12ZM312,160.61v19.21h-6V164.56h-1.17c-.93,0-1.42.43-1.48,1.28a49.79,49.79,0,0,1-1.33,9.41c-.62,2.12-1.58,3.52-2.9,4.2a7.65,7.65,0,0,1-4.95.51l-.42-4.68a8.61,8.61,0,0,0,1.21-.2,2.17,2.17,0,0,0,.86-.45,2.22,2.22,0,0,0,.66-1,38.34,38.34,0,0,0,1.17-8.21q.3-4.81,5.06-4.82Zm-26.72-6.12h3.53a3.61,3.61,0,0,1-1.06,3.34,5.9,5.9,0,0,1-7.79,0,3.68,3.68,0,0,1-1.09-3.34h3.54a2.33,2.33,0,0,0,.19,1.68,1.52,1.52,0,0,0,1.26.46,1.45,1.45,0,0,0,1.22-.46,2.32,2.32,0,0,0,.2-1.68Zm7,25.33h-5.73V171a18.21,18.21,0,0,1,.31-3h-.2a15.36,15.36,0,0,1-1.17,2.95l-4.7,8.85H275V160.61h5.73v8.52a21.6,21.6,0,0,1-.3,3.12h.19a15.87,15.87,0,0,1,1.23-2.95l4.67-8.69h5.73v19.21Zm-25.71-4.15h-5.26l-1,4.15h-6.15l5-17.65a2.14,2.14,0,0,1,.75-1.13,2.1,2.1,0,0,1,1.28-.43h5.49a2.08,2.08,0,0,1,1.28.43,2.14,2.14,0,0,1,.75,1.13l5,17.65h-6.15l-1-4.15Zm-1-4.23-.94-4.12c-.17-.87-.28-1.61-.34-2.2h-.75c-.11.87-.22,1.61-.33,2.2l-.95,4.12Zm-21.6-3.4h1.92q4.52,0,6.24,1.26t1.72,4.67c0,2.28-.55,3.87-1.67,4.75S249.2,180,246.66,180c-3.75,0-6.61-.07-8.6-.22h-.17V160.61q3.26-.23,7.16-.22,3.55,0,7.4.22l-.44,4.32h-8.08V168Zm0,7.82h1.92a2.13,2.13,0,0,0,1.56-.4,4.12,4.12,0,0,0,0-3.37,2.13,2.13,0,0,0-1.56-.4h-1.92v4.17Zm-28.44-10.71L215,161a31.68,31.68,0,0,1,7-.64q3.94,0,5.47,1c1,.7,1.51,2,1.51,4a5.27,5.27,0,0,1-.78,3.16,3.42,3.42,0,0,1-2.56,1.21v.17a4,4,0,0,1,3,1.44,6.15,6.15,0,0,1,.91,3.65c0,1.91-.51,3.22-1.54,3.94S225.36,180,223,180a26.79,26.79,0,0,1-8.21-1.06l.44-3.92a44.19,44.19,0,0,0,6.57.64,1.88,1.88,0,0,0,1.38-.38,2.34,2.34,0,0,0,.35-1.52,2.47,2.47,0,0,0-.35-1.57,2,2,0,0,0-1.41-.4l-4.23-.09V168l4.18-.09a1.57,1.57,0,0,0,1.14-.34,2.16,2.16,0,0,0,.28-1.3,1.78,1.78,0,0,0-.3-1.22,1.57,1.57,0,0,0-1.15-.31,55.21,55.21,0,0,0-6.15.42Zm-2.9,14.67h-6V160.61h6v19.21ZM195.7,160.61H201a1.91,1.91,0,0,1,2.12,2.09l.67,17.12h-5.43l-.59-14.7h-.41l-1.9,9.8a2,2,0,0,1-2.28,1.83h-3.12a2.08,2.08,0,0,1-2.31-1.83l-1.92-9.8h-.41l-.48,14.7h-5.42l.66-17.12a1.91,1.91,0,0,1,2.12-2.09h5.2a2.08,2.08,0,0,1,2.29,1.87l1.39,7.62c.09.6.19,1.55.3,2.87h.25c0-.06,0-.46.13-1.2s.15-1.3.21-1.67l1.31-7.62a2.08,2.08,0,0,1,2.31-1.87Zm-19,19.21h-6V160.61h6v19.21Zm-22.57-14.67L153.7,161a31.52,31.52,0,0,1,7-.64q4,0,5.47,1c1,.7,1.52,2,1.52,4a5.27,5.27,0,0,1-.78,3.16,3.44,3.44,0,0,1-2.56,1.21v.17a4,4,0,0,1,3,1.44,6.14,6.14,0,0,1,.92,3.65c0,1.91-.52,3.22-1.55,3.94S164,180,161.6,180a26.84,26.84,0,0,1-8.21-1.06l.45-3.92a44.19,44.19,0,0,0,6.56.64,1.88,1.88,0,0,0,1.38-.38,2.34,2.34,0,0,0,.35-1.52,2.47,2.47,0,0,0-.35-1.57,2,2,0,0,0-1.4-.4l-4.23-.09V168l4.17-.09a1.54,1.54,0,0,0,1.14-.34,2.09,2.09,0,0,0,.28-1.3,1.85,1.85,0,0,0-.29-1.22,1.6,1.6,0,0,0-1.16-.31,55.21,55.21,0,0,0-6.15.42Zm-28.42-4.54v19.21h-6v-8.08h-4.84v8.08h-6V160.61h6v6.9h4.84v-6.9Zm-19.56,14.7.27,4.26a91.51,91.51,0,0,1-10,.36,4.51,4.51,0,0,1-3.24-1.21,4.16,4.16,0,0,1-1.27-3.16V164.87a4.16,4.16,0,0,1,1.27-3.16,4.47,4.47,0,0,1,3.24-1.21,91.51,91.51,0,0,1,10,.36l-.27,4.26h-7a1.16,1.16,0,0,0-.83.28.91.91,0,0,0-.31.72V168h7.18v4H98v2.31a.92.92,0,0,0,.31.72,1.21,1.21,0,0,0,.83.28Zm-24.92-14.7h5.32a1.91,1.91,0,0,1,2.12,2.09l.66,17.12H83.92l-.59-14.7h-.42L81,174.92a2,2,0,0,1-2.28,1.83H75.62a2.07,2.07,0,0,1-2.31-1.83l-1.92-9.8H71l-.47,14.7H65.07l.67-17.12a1.91,1.91,0,0,1,2.12-2.09h5.2a2.06,2.06,0,0,1,2.28,1.87l1.4,7.62c.09.6.19,1.55.3,2.87h.25c0-.06,0-.46.13-1.2s.15-1.3.21-1.67l1.3-7.62a2.09,2.09,0,0,1,2.31-1.87Zm-19,19.21h-6V160.61h6v19.21ZM53.1,160.61v19.21h-6v-8.08H42.22v8.08h-6V160.61h6v6.9h4.84v-6.9Zm-19.56,14.7.28,4.26a91.86,91.86,0,0,1-10,.36,4.55,4.55,0,0,1-3.24-1.21,4.2,4.2,0,0,1-1.27-3.16V164.87a4.2,4.2,0,0,1,1.27-3.16,4.5,4.5,0,0,1,3.24-1.21,91.86,91.86,0,0,1,10,.36l-.28,4.26h-7a1.17,1.17,0,0,0-.84.28.94.94,0,0,0-.31.72V168h7.19v4H25.35v2.31a1,1,0,0,0,.31.72,1.21,1.21,0,0,0,.84.28Z"/><path class="cls-9" d="M106.71,83.81h18.67l-3.14,36.74H109.77l-3.06-36.74Zm2.56,56a8.16,8.16,0,0,1-2.63-6.14,7.86,7.86,0,0,1,2.63-6.11,9.69,9.69,0,0,1,6.77-2.41,9.54,9.54,0,0,1,6.73,2.41,7.91,7.91,0,0,1,2.61,6.11,8.18,8.18,0,0,1-2.65,6.14,9.26,9.26,0,0,1-6.69,2.52A9.37,9.37,0,0,1,109.27,139.83Z"/><path class="cls-7" d="M121,84.67A.86.86,0,0,1,121,83h4.4a.87.87,0,0,1,.86.86c-.48,7.69-1.32,15.51-2,23.19a.86.86,0,1,1-1.71-.14l1.89-22.19Zm.82,31-.35,4H110.56l-2.92-35h6.62a.86.86,0,0,0,0-1.72h-7.62a.85.85,0,0,0-.78.92l3.06,36.71a.86.86,0,0,0,.85.82h12.47a.87.87,0,0,0,.86-.79l.41-4.8a.87.87,0,0,0-.79-.93.85.85,0,0,0-.92.79Zm-.35,11.93-.06,0a8.07,8.07,0,0,0-2.36-1.14,10.35,10.35,0,0,0-3-.4,10.21,10.21,0,0,0-3.46.55,8.08,8.08,0,0,0-2.74,1.63.85.85,0,1,1-1.15-1.26,10,10,0,0,1,3.31-2,12.18,12.18,0,0,1,4-.65,12,12,0,0,1,3.47.48,9.82,9.82,0,0,1,2.88,1.38l.06,0,.46.36.43.38a.85.85,0,1,1-1.15,1.26l-.37-.31a4.37,4.37,0,0,0-.37-.29Zm3.07,6.08a.86.86,0,0,1,1.72,0,9.2,9.2,0,0,1-.74,3.68,9.4,9.4,0,0,1-2.18,3.08,9.51,9.51,0,0,1-3.28,2.07,11.2,11.2,0,0,1-4,.69,11.53,11.53,0,0,1-4.06-.69,9.54,9.54,0,0,1-3.31-2.07l-.25-.25a9,9,0,0,1-2.64-6.51.86.86,0,1,1,1.72,0,7.53,7.53,0,0,0,.53,2.88,7.74,7.74,0,0,0,1.61,2.43l.22.21a7.88,7.88,0,0,0,2.71,1.71,10,10,0,0,0,3.47.57,9.58,9.58,0,0,0,3.4-.57,8,8,0,0,0,2.7-1.71,7.83,7.83,0,0,0,1.79-2.52A7.61,7.61,0,0,0,124.52,133.69Z"/></g></g></svg>