<svg xmlns="http://www.w3.org/2000/svg" viewBox="0 0 595.28 841.89"><defs><style>.cls-1{fill:#d0005a;}.cls-2{fill:#fff;}.cls-2,.cls-3{fill-rule:evenodd;}.cls-3{fill:#f8aa00;}</style></defs><g id="Слой_2" data-name="Слой 2"><g id="Слой_1-2" data-name="Слой 1"><rect class="cls-1" width="595.28" height="841.89"/><polygon class="cls-2" points="345.97 18.36 349.76 20.13 348.92 21.94 345.13 20.17 345.05 18.4 345.97 18.36 345.97 18.36"/><path class="cls-2" d="M345.13,20.17a1,1,0,1,1,.84-1.81l-.84,1.81Z"/><polygon class="cls-2" points="341.44 20.52 345.05 18.4 346.06 20.13 342.45 22.24 340.95 21.25 341.44 20.52 341.44 20.52"/><path class="cls-2" d="M342.45,22.24a1,1,0,0,1-1-1.72l1,1.72Z"/><polygon class="cls-2" points="343.45 17.35 342.93 21.5 340.95 21.25 341.46 17.1 343.12 16.48 343.45 17.35 343.45 17.35"/><path class="cls-2" d="M341.46,17.1a1,1,0,0,1,1.12-.87,1,1,0,0,1,.87,1.12l-2-.25Z"/><polygon class="cls-2" points="339.99 13.7 343.12 16.48 341.79 17.97 338.67 15.19 339.14 13.46 339.99 13.7 339.99 13.7"/><path class="cls-2" d="M338.67,15.19A1,1,0,1,1,340,13.7l-1.32,1.49Z"/><polygon class="cls-2" points="343.63 14.64 339.52 15.43 339.14 13.46 343.25 12.67 344.35 14.06 343.63 14.64 343.63 14.64"/><path class="cls-2" d="M343.25,12.67a1,1,0,0,1,.38,2l-.38-2Z"/><polygon class="cls-2" points="346.03 10.22 344.35 14.06 342.52 13.25 344.2 9.42 345.99 9.34 346.03 10.22 346.03 10.22"/><path class="cls-2" d="M344.2,9.42a1,1,0,0,1,1.83.8l-1.83-.8Z"/><polygon class="cls-2" points="346.26 13.97 344.24 10.3 345.99 9.34 348.01 13 347.04 14.48 346.26 13.97 346.26 13.97"/><path class="cls-2" d="M348,13a1,1,0,1,1-1.75,1L348,13Z"/><polygon class="cls-2" points="351.2 14.89 347.04 14.48 347.24 12.49 351.4 12.9 352.03 14.58 351.2 14.89 351.2 14.89"/><path class="cls-2" d="M351.4,12.9a1,1,0,1,1-.2,2l.2-2Z"/><polygon class="cls-2" points="347.71 16.27 350.57 13.21 352.03 14.58 349.17 17.64 347.47 17.17 347.71 16.27 347.71 16.27"/><path class="cls-2" d="M349.17,17.63a1,1,0,0,1-1.41.05,1,1,0,0,1-.05-1.41l1.46,1.36Z"/><polygon class="cls-2" points="348.36 21.25 347.47 17.17 349.42 16.74 350.32 20.82 348.92 21.94 348.36 21.25 348.36 21.25"/><path class="cls-2" d="M350.32,20.82a1,1,0,0,1-.77,1.2,1,1,0,0,1-1.19-.77Z"/><polygon class="cls-2" points="73.25 149.27 74.25 149.03 74.65 150.7 68.31 156.93 66.91 155.51 73.25 149.27 73.25 149.27"/><path class="cls-2" d="M74.65,150.7l-1.4-1.43a1,1,0,0,1,1.4,1.43Z"/><polygon class="cls-2" points="82.63 151.69 83.19 152.14 82.02 153.59 73.65 150.94 74.25 149.03 82.63 151.69 82.63 151.69"/><path class="cls-2" d="M82,153.59l.61-1.9a1,1,0,1,1-.61,1.9Z"/><polygon class="cls-2" points="77.54 146.31 77.55 145.29 79.27 145.31 83.19 152.14 81.46 153.14 77.54 146.31 77.54 146.31"/><path class="cls-2" d="M79.27,145.31l-1.73,1a1,1,0,1,1,1.73-1Z"/><polygon class="cls-2" points="81.92 138.06 82.77 137.57 83.63 139.09 79.26 146.33 77.55 145.29 81.92 138.06 81.92 138.06"/><path class="cls-2" d="M83.63,139.09l-1.71-1a1,1,0,0,1,1.37-.34,1,1,0,0,1,.34,1.38Z"/><polygon class="cls-2" points="74.59 139.63 73.75 139.17 74.58 137.63 82.77 137.57 82.78 139.57 74.59 139.63 74.59 139.63"/><path class="cls-2" d="M74.58,137.62v2a1,1,0,0,1-1-1,1,1,0,0,1,1-1Z"/><polygon class="cls-2" points="68.68 131.37 68.55 130.55 70.36 130.28 75.42 138.08 73.75 139.17 68.68 131.37 68.68 131.37"/><path class="cls-2" d="M70.36,130.28l-1.68,1.09a1,1,0,1,1,1.68-1.09Z"/><polygon class="cls-2" points="67.66 141.23 67.1 141.88 65.73 140.69 68.55 130.55 70.48 131.09 67.66 141.23 67.66 141.23"/><path class="cls-2" d="M65.73,140.69l1.93.54a1,1,0,0,1-1.93-.54Z"/><polygon class="cls-2" points="58.96 145.46 58.19 145.48 58.16 143.63 66.29 140.04 67.1 141.88 58.96 145.46 58.96 145.46"/><path class="cls-2" d="M58.16,143.63l.8,1.83a1,1,0,0,1-1.32-.51,1,1,0,0,1,.52-1.32Z"/><polygon class="cls-2" points="66.91 146.78 67.53 147.59 66.17 148.64 58.19 145.48 58.93 143.62 66.91 146.78 66.91 146.78"/><path class="cls-2" d="M66.17,148.64l.74-1.86a1,1,0,1,1-.74,1.86Z"/><polygon class="cls-2" points="68.6 156.1 68.31 156.93 66.61 156.34 65.55 147.84 67.53 147.59 68.6 156.1 68.6 156.1"/><path class="cls-2" d="M66.61,156.35l2-.25a1,1,0,0,1-2,.25Z"/><polygon class="cls-3" points="468.62 43.51 469.59 43.09 470.26 44.65 467.09 49.2 465.45 48.06 468.62 43.51 468.62 43.51"/><path class="cls-3" d="M470.26,44.65l-1.64-1.14a1,1,0,0,1,1.4-.25,1,1,0,0,1,.24,1.39Z"/><polygon class="cls-3" points="474.58 43.82 475.16 44.12 474.3 45.8 469.3 45.07 469.59 43.09 474.58 43.82 474.58 43.82"/><path class="cls-3" d="M474.3,45.8l.28-2a1,1,0,0,1-.28,2Z"/><polygon class="cls-3" points="470.41 42.05 470.24 40.91 471.85 40.67 475.16 44.12 473.72 45.5 470.41 42.05 470.41 42.05"/><path class="cls-3" d="M471.85,40.67l-1.44,1.38a1,1,0,1,1,1.44-1.38Z"/><polygon class="cls-3" points="473.41 34.6 473.88 34.15 475.19 35.5 472.02 41.81 470.24 40.91 473.41 34.6 473.41 34.6"/><path class="cls-3" d="M475.19,35.5l-1.78-.9a1,1,0,0,1,1.78.9Z"/><polygon class="cls-3" points="468.86 38.71 467.9 38.65 468.01 36.9 473.88 34.15 474.73 35.96 468.86 38.71 468.86 38.71"/><path class="cls-3" d="M468,36.9l.85,1.81A1,1,0,1,1,468,36.9Z"/><polygon class="cls-3" points="462.79 35.4 462.34 34.73 463.86 33.71 468.97 36.97 467.9 38.65 462.79 35.4 462.79 35.4"/><path class="cls-3" d="M463.86,33.71l-1.07,1.69a1,1,0,1,1,1.07-1.69Z"/><polygon class="cls-3" points="465.21 39.46 464.78 40.47 463.24 39.81 462.34 34.73 464.31 34.38 465.21 39.46 465.21 39.46"/><path class="cls-3" d="M463.24,39.81l2-.35a1,1,0,0,1-.81,1.16,1,1,0,0,1-1.16-.81Z"/><polygon class="cls-3" points="460.49 43.34 459.69 43.47 459.38 41.67 463.67 38.8 464.78 40.47 460.49 43.34 460.49 43.34"/><path class="cls-3" d="M459.38,41.67l1.11,1.67a1,1,0,1,1-1.11-1.67Z"/><polygon class="cls-3" points="465.05 42.78 465.76 43.46 464.56 44.72 459.69 43.47 460.18 41.53 465.05 42.78 465.05 42.78"/><path class="cls-3" d="M464.56,44.72l.49-1.94a1,1,0,1,1-.49,1.94Z"/><polygon class="cls-3" points="467.22 48.35 467.09 49.2 465.31 48.92 463.85 44.04 465.76 43.46 467.22 48.35 467.22 48.35"/><path class="cls-3" d="M465.31,48.92l1.91-.57a1,1,0,1,1-1.91.57Z"/><polygon class="cls-2" points="415.54 59.06 410.6 54.21 412 52.78 416.94 57.64 416.54 59.3 415.54 59.06 415.54 59.06"/><path class="cls-2" d="M416.94,57.64a1,1,0,0,1-1.4,1.42l1.4-1.42Z"/><polygon class="cls-2" points="423.06 57.24 416.54 59.3 415.94 57.4 422.46 55.33 423.63 56.78 423.06 57.24 423.06 57.24"/><path class="cls-2" d="M422.46,55.33a1,1,0,0,1,.6,1.91l-.6-1.91Z"/><polygon class="cls-2" points="418.84 61.1 421.89 55.79 423.63 56.78 420.58 62.1 418.85 62.12 418.84 61.1 418.84 61.1"/><path class="cls-2" d="M420.58,62.1a1,1,0,0,1-1.74-1l1.74,1Z"/><polygon class="cls-2" points="422.25 67.75 418.85 62.12 420.56 61.08 423.96 66.72 423.1 68.23 422.25 67.75 422.25 67.75"/><path class="cls-2" d="M424,66.72a1,1,0,0,1-1.71,1l1.71-1Z"/><polygon class="cls-2" points="416.74 66.19 423.11 66.23 423.1 68.23 416.73 68.19 415.9 66.65 416.74 66.19 416.74 66.19"/><path class="cls-2" d="M416.73,68.19a1,1,0,1,1,0-2v2Z"/><polygon class="cls-2" points="411.95 72.72 415.9 66.65 417.57 67.74 413.63 73.81 411.83 73.53 411.95 72.72 411.95 72.72"/><path class="cls-2" d="M413.63,73.81A1,1,0,0,1,412,72.72l1.68,1.09Z"/><polygon class="cls-2" points="411.56 65.11 413.75 73 411.83 73.53 409.63 65.64 411 64.46 411.56 65.11 411.56 65.11"/><path class="cls-2" d="M409.63,65.64a1,1,0,0,1,1.93-.53l-1.93.53Z"/><polygon class="cls-2" points="404.67 61.67 411 64.46 410.19 66.29 403.86 63.5 403.9 61.65 404.67 61.67 404.67 61.67"/><path class="cls-2" d="M403.86,63.5a1,1,0,0,1-.51-1.32,1,1,0,0,1,1.32-.51l-.81,1.83Z"/><polygon class="cls-2" points="410.85 61.05 404.63 63.51 403.9 61.65 410.11 59.19 411.47 60.24 410.85 61.05 410.85 61.05"/><path class="cls-2" d="M410.11,59.19a1,1,0,0,1,1.3.56,1,1,0,0,1-.57,1.3l-.73-1.86Z"/><polygon class="cls-2" points="412.3 53.62 411.47 60.24 409.48 60 410.31 53.37 412 52.78 412.3 53.62 412.3 53.62"/><path class="cls-2" d="M410.31,53.37a1,1,0,0,1,2,.25Z"/><polygon class="cls-2" points="118.23 32.46 119.28 32.34 119.47 34.03 114.72 37.74 113.49 36.17 118.23 32.46 118.23 32.46"/><path class="cls-2" d="M119.47,34l-1.23-1.57A1,1,0,1,1,119.47,34Z"/><polygon class="cls-2" points="124.23 34.69 124.7 35.14 123.38 36.49 118.42 34.15 119.28 32.34 124.23 34.69 124.23 34.69"/><path class="cls-2" d="M123.38,36.5l.85-1.81a1,1,0,0,1,.48,1.33,1,1,0,0,1-1.33.48Z"/><polygon class="cls-2" points="120.58 31.41 120.75 30.27 122.36 30.51 124.7 35.14 122.91 36.04 120.58 31.41 120.58 31.41"/><path class="cls-2" d="M122.36,30.51l-1.78.9a1,1,0,1,1,1.78-.9Z"/><polygon class="cls-2" points="126.04 24.73 126.63 24.43 127.49 26.11 122.19 31.65 120.75 30.27 126.04 24.73 126.04 24.73"/><path class="cls-2" d="M127.49,26.11,126,24.73a1,1,0,0,1,1.42,0,1,1,0,0,1,0,1.41Z"/><polygon class="cls-2" points="119.95 27.41 119.04 27.07 119.66 25.43 126.63 24.43 126.91 26.41 119.95 27.41 119.95 27.41"/><path class="cls-2" d="M119.66,25.43l.29,2a1,1,0,1,1-.29-2Z"/><polygon class="cls-2" points="114.78 22.06 114.54 21.29 116.3 20.77 120.57 25.77 119.04 27.07 114.78 22.06 114.78 22.06"/><path class="cls-2" d="M116.3,20.77l-1.52,1.29a1,1,0,0,1,.11-1.41,1,1,0,0,1,1.41.12Z"/><polygon class="cls-2" points="115.85 27.09 115.14 27.93 113.86 26.85 114.54 21.29 116.53 21.54 115.85 27.09 115.85 27.09"/><path class="cls-2" d="M113.86,26.85l2,.24a1,1,0,0,1-2-.24Z"/><polygon class="cls-2" points="109.77 29.54 108.97 29.43 109.2 27.62 114.57 26.01 115.14 27.93 109.77 29.54 109.77 29.54"/><path class="cls-2" d="M109.2,27.62l.57,1.92a1,1,0,0,1-1.24-.67,1,1,0,0,1,.67-1.25Z"/><polygon class="cls-2" points="114.67 30.57 115.15 31.43 113.63 32.28 108.97 29.43 110.01 27.73 114.67 30.57 114.67 30.57"/><path class="cls-2" d="M113.63,32.28l1-1.71A1,1,0,0,1,115,32a1,1,0,0,1-1.37.33Z"/><polygon class="cls-2" points="115.11 36.96 114.72 37.74 113.11 36.95 113.15 31.42 115.15 31.43 115.11 36.96 115.11 36.96"/><path class="cls-2" d="M113.11,37h2a1,1,0,1,1-2,0Z"/><polygon class="cls-2" points="555.38 177.52 556.3 177.56 556.22 179.33 552.27 181.18 551.42 179.37 555.38 177.52 555.38 177.52"/><path class="cls-2" d="M556.22,179.33l-.84-1.81a1,1,0,0,1,1.33.48,1,1,0,0,1-.49,1.33Z"/><polygon class="cls-2" points="560.08 179.77 560.56 180.51 559.07 181.49 555.29 179.29 556.3 177.56 560.08 179.77 560.08 179.77"/><path class="cls-2" d="M559.06,181.49l1-1.72a1,1,0,1,1-1,1.72Z"/><polygon class="cls-2" points="558.04 176.42 558.37 175.55 560.02 176.17 560.56 180.51 558.58 180.75 558.04 176.42 558.04 176.42"/><path class="cls-2" d="M560,176.17l-2,.25a1,1,0,0,1,.87-1.12,1,1,0,0,1,1.11.87Z"/><polygon class="cls-2" points="561.63 172.65 562.49 172.41 562.96 174.14 559.7 177.04 558.37 175.55 561.63 172.65 561.63 172.65"/><path class="cls-2" d="M563,174.14l-1.33-1.5a1,1,0,0,1,1.33,1.5Z"/><polygon class="cls-2" points="557.82 173.55 557.09 172.97 558.2 171.58 562.49 172.41 562.11 174.37 557.82 173.55 557.82 173.55"/><path class="cls-2" d="M558.19,171.58l-.37,2a1,1,0,0,1,.37-2Z"/><polygon class="cls-2" points="555.34 168.96 555.38 168.08 557.17 168.16 558.92 172.16 557.09 172.97 555.34 168.96 555.34 168.96"/><path class="cls-2" d="M557.17,168.16l-1.83.8a1,1,0,0,1,1.83-.8Z"/><polygon class="cls-2" points="555.02 172.87 554.24 173.38 553.27 171.91 555.38 168.08 557.13 169.04 555.02 172.87 555.02 172.87"/><path class="cls-2" d="M553.27,171.91l1.75,1a1,1,0,0,1-1.75-1Z"/><polygon class="cls-2" points="549.89 173.81 549.06 173.5 549.7 171.82 554.04 171.39 554.24 173.38 549.89 173.81 549.89 173.81"/><path class="cls-2" d="M549.7,171.82l.19,2a1,1,0,0,1-.19-2Z"/><polygon class="cls-2" points="553.51 175.32 553.76 176.22 552.05 176.69 549.06 173.5 550.52 172.13 553.51 175.32 553.51 175.32"/><path class="cls-2" d="M552.05,176.69l1.46-1.36a1,1,0,0,1-1.46,1.36Z"/><polygon class="cls-2" points="552.82 180.49 552.27 181.18 550.87 180.06 551.8 175.79 553.76 176.22 552.82 180.49 552.82 180.49"/><path class="cls-2" d="M550.87,180.06l2,.43a1,1,0,1,1-2-.43Z"/><polygon class="cls-3" points="421.79 239.28 425.46 244.54 423.82 245.68 420.15 240.42 420.82 238.86 421.79 239.28 421.79 239.28"/><path class="cls-3" d="M420.15,240.42a1,1,0,0,1,1.64-1.14l-1.64,1.14Z"/><polygon class="cls-3" points="415.05 239.7 420.82 238.86 421.11 240.84 415.33 241.68 414.47 240 415.05 239.7 415.05 239.7"/><path class="cls-3" d="M415.33,241.68a1,1,0,1,1-.28-2l.28,2Z"/><polygon class="cls-3" points="419.74 237.39 415.91 241.38 414.47 240 418.29 236.01 419.91 236.25 419.74 237.39 419.74 237.39"/><path class="cls-3" d="M418.29,236a1,1,0,0,1,1.45,1.38L418.29,236Z"/><polygon class="cls-3" points="416.25 228.96 419.91 236.25 418.12 237.15 414.46 229.86 415.78 228.5 416.25 228.96 416.25 228.96"/><path class="cls-3" d="M414.46,229.86a1,1,0,1,1,1.78-.9l-1.78.9Z"/><polygon class="cls-3" points="421.7 233.5 414.93 230.31 415.78 228.5 422.56 231.69 422.67 233.44 421.7 233.5 421.7 233.5"/><path class="cls-3" d="M422.56,231.69a1,1,0,0,1-.86,1.81l.86-1.81Z"/><polygon class="cls-3" points="428.58 229.68 422.67 233.44 421.59 231.75 427.5 227.99 429.02 229.01 428.58 229.68 428.58 229.68"/><path class="cls-3" d="M427.5,228a1,1,0,0,1,1.08,1.69L427.5,228Z"/><polygon class="cls-3" points="426.01 234.53 427.06 228.66 429.02 229.01 427.98 234.88 426.44 235.54 426.01 234.53 426.01 234.53"/><path class="cls-3" d="M428,234.88a1,1,0,0,1-1.16.81,1,1,0,0,1-.81-1.16l2,.35Z"/><polygon class="cls-3" points="431.41 238.85 426.44 235.54 427.55 233.87 432.52 237.19 432.21 238.99 431.41 238.85 431.41 238.85"/><path class="cls-3" d="M432.52,237.19a1,1,0,0,1,.27,1.39,1,1,0,0,1-1.38.27l1.11-1.66Z"/><polygon class="cls-3" points="426.08 238.5 431.71 237.05 432.21 238.99 426.57 240.43 425.37 239.18 426.08 238.5 426.08 238.5"/><path class="cls-3" d="M426.58,240.43a1,1,0,1,1-.5-1.94l.5,1.94Z"/><polygon class="cls-3" points="423.68 244.82 425.37 239.18 427.29 239.75 425.6 245.4 423.82 245.68 423.68 244.82 423.68 244.82"/><path class="cls-3" d="M425.6,245.39a1,1,0,0,1-1.25.68,1,1,0,0,1-.67-1.25Z"/><polygon class="cls-2" points="534.47 243.65 533.47 243.89 533.07 242.22 541.09 234.34 542.49 235.76 534.47 243.65 534.47 243.65"/><path class="cls-2" d="M533.07,242.22l1.4,1.43a1,1,0,0,1-1.42,0,1,1,0,0,1,0-1.41Z"/><polygon class="cls-2" points="522.87 240.53 522.31 240.07 523.48 238.62 534.07 241.98 533.47 243.89 522.87 240.53 522.87 240.53"/><path class="cls-2" d="M523.48,238.62l-.61,1.91a1,1,0,1,1,.61-1.91Z"/><polygon class="cls-2" points="529 247.72 528.99 248.73 527.26 248.71 522.31 240.07 524.04 239.08 529 247.72 529 247.72"/><path class="cls-2" d="M527.26,248.71l1.74-1a1,1,0,0,1-1.74,1Z"/><polygon class="cls-2" points="523.47 257.88 522.62 258.37 521.75 256.85 527.27 247.7 528.99 248.73 523.47 257.88 523.47 257.88"/><path class="cls-2" d="M521.75,256.85l1.72,1a1,1,0,0,1-1.72-1Z"/><polygon class="cls-2" points="532.96 256.3 533.8 256.75 532.97 258.3 522.62 258.37 522.6 256.37 532.96 256.3 532.96 256.3"/><path class="cls-2" d="M533,258.3v-2a1,1,0,0,1,1,1,1,1,0,0,1-1,1Z"/><polygon class="cls-2" points="540.21 266.62 540.33 267.43 538.53 267.71 532.13 257.84 533.8 256.75 540.21 266.62 540.21 266.62"/><path class="cls-2" d="M538.53,267.71l1.68-1.09a1,1,0,0,1-1.68,1.09Z"/><polygon class="cls-2" points="541.98 254.08 542.54 253.43 543.9 254.61 540.33 267.43 538.41 266.89 541.98 254.08 541.98 254.08"/><path class="cls-2" d="M543.9,254.61l-1.92-.53a1,1,0,1,1,1.92.53Z"/><polygon class="cls-2" points="552.82 248.89 553.59 248.88 553.63 250.72 543.34 255.26 542.54 253.43 552.82 248.89 552.82 248.89"/><path class="cls-2" d="M553.63,250.72l-.81-1.83a1,1,0,0,1,.81,1.83Z"/><polygon class="cls-2" points="542.76 246.74 542.14 245.93 543.5 244.88 553.59 248.88 552.86 250.74 542.76 246.74 542.76 246.74"/><path class="cls-2" d="M543.5,244.88l-.74,1.86a1,1,0,0,1,.74-1.86Z"/><polygon class="cls-2" points="540.79 235.17 541.09 234.34 542.78 234.93 544.12 245.68 542.14 245.93 540.79 235.17 540.79 235.17"/><path class="cls-2" d="M542.78,234.93l-2,.24a1,1,0,0,1,2-.24Z"/><polygon class="cls-3" points="98.98 236.89 95.63 234.2 96.89 232.64 100.23 235.33 100 237.03 98.98 236.89 98.98 236.89"/><path class="cls-3" d="M100.23,235.33a1,1,0,0,1,.16,1.41,1,1,0,0,1-1.41.15l1.25-1.56Z"/><polygon class="cls-3" points="103.9 235.35 100 237.03 99.21 235.19 103.1 233.51 104.41 234.84 103.9 235.35 103.9 235.35"/><path class="cls-3" d="M103.1,233.51a1,1,0,0,1,1.32.53,1,1,0,0,1-.52,1.31l-.8-1.84Z"/><polygon class="cls-3" points="101.03 237.49 102.59 234.03 104.41 234.84 102.86 238.31 101.15 238.5 101.03 237.49 101.03 237.49"/><path class="cls-3" d="M102.86,238.31a1,1,0,1,1-1.83-.82l1.83.82Z"/><polygon class="cls-3" points="103.59 241.77 101.15 238.5 102.75 237.3 105.19 240.57 104.49 242.16 103.59 241.77 103.59 241.77"/><path class="cls-3" d="M105.19,240.57a1,1,0,0,1-1.6,1.2l1.6-1.2Z"/><polygon class="cls-3" points="100.36 240.54 104.3 240.17 104.49 242.16 100.55 242.53 99.57 241.08 100.36 240.54 100.36 240.54"/><path class="cls-3" d="M100.55,242.53a1,1,0,1,1-.19-2l.19,2Z"/><polygon class="cls-3" points="97.51 245.07 99.57 241.08 101.35 242 99.29 245.99 97.47 245.89 97.51 245.07 97.51 245.07"/><path class="cls-3" d="M99.29,246a1,1,0,1,1-1.78-.91l1.78.91Z"/><polygon class="cls-3" points="97.49 240.43 99.33 245.16 97.47 245.89 95.63 241.16 96.87 239.84 97.49 240.43 97.49 240.43"/><path class="cls-3" d="M95.63,241.16a1,1,0,1,1,1.86-.73l-1.86.73Z"/><polygon class="cls-3" points="92.79 238.51 96.87 239.84 96.25 241.75 92.17 240.41 92.02 238.58 92.79 238.51 92.79 238.51"/><path class="cls-3" d="M92.17,240.41a1,1,0,0,1,.62-1.9l-.62,1.9Z"/><polygon class="cls-3" points="96.62 238.45 92.94 240.35 92.02 238.58 95.7 236.67 97.16 237.59 96.62 238.45 96.62 238.45"/><path class="cls-3" d="M95.7,236.67a1,1,0,0,1,.92,1.78l-.92-1.78Z"/><polygon class="cls-3" points="97.26 233.45 97.16 237.59 95.16 237.54 95.26 233.4 96.89 232.64 97.26 233.45 97.26 233.45"/><path class="cls-3" d="M95.26,233.4a1,1,0,1,1,2,0Z"/><polygon class="cls-3" points="245.77 100.78 246.79 100.64 247.02 102.34 242.34 106.11 241.08 104.55 245.77 100.78 245.77 100.78"/><path class="cls-3" d="M247,102.34l-1.25-1.56a1,1,0,0,1,1.4.16,1,1,0,0,1-.15,1.4Z"/><polygon class="cls-3" points="252.24 102.99 252.76 103.5 251.45 104.83 246 102.48 246.79 100.64 252.24 102.99 252.24 102.99"/><path class="cls-3" d="M251.45,104.83l.79-1.84a1,1,0,0,1,.52,1.32,1,1,0,0,1-1.31.52Z"/><polygon class="cls-3" points="248.76 99.47 248.87 98.46 250.58 98.65 252.76 103.5 250.93 104.32 248.76 99.47 248.76 99.47"/><path class="cls-3" d="M250.58,98.65l-1.82.81a1,1,0,1,1,1.82-.81Z"/><polygon class="cls-3" points="252.29 93.89 253.19 93.49 253.89 95.08 250.47 99.66 248.87 98.46 252.29 93.89 252.29 93.89"/><path class="cls-3" d="M253.89,95.09l-1.6-1.2a1,1,0,0,1,1.4-.2,1,1,0,0,1,.2,1.4Z"/><polygon class="cls-3" points="247.49 94.97 246.7 94.43 247.68 92.97 253.19 93.49 253 95.48 247.49 94.97 247.49 94.97"/><path class="cls-3" d="M247.68,93l-.19,2a1,1,0,0,1,.19-2Z"/><polygon class="cls-3" points="243.82 88.84 243.77 88.02 245.59 87.93 248.47 93.51 246.7 94.43 243.82 88.84 243.82 88.84"/><path class="cls-3" d="M245.6,87.93l-1.78.91a1,1,0,1,1,1.78-.91Z"/><polygon class="cls-3" points="243.06 95.37 242.44 95.96 241.19 94.64 243.77 88.02 245.64 88.75 243.06 95.37 243.06 95.37"/><path class="cls-3" d="M241.19,94.64l1.87.73a1,1,0,1,1-1.87-.73Z"/><polygon class="cls-3" points="236.73 97.82 235.96 97.76 236.11 95.92 241.81 94.06 242.44 95.96 236.73 97.82 236.73 97.82"/><path class="cls-3" d="M236.11,95.92l.62,1.9a1,1,0,0,1-.62-1.9Z"/><polygon class="cls-3" points="242.03 98.65 242.57 99.51 241.11 100.42 235.96 97.76 236.88 95.98 242.03 98.65 242.03 98.65"/><path class="cls-3" d="M241.11,100.42l.92-1.77a1,1,0,1,1-.92,1.77Z"/><polygon class="cls-3" points="242.71 105.3 242.34 106.11 240.71 105.35 240.57 99.56 242.57 99.51 242.71 105.3 242.71 105.3"/><path class="cls-3" d="M240.71,105.35l2,0a1,1,0,1,1-2,0Z"/><polygon class="cls-2" points="254.84 236.55 258.63 238.33 257.78 240.14 253.99 238.36 253.91 236.59 254.84 236.55 254.84 236.55"/><path class="cls-2" d="M254,238.36a1,1,0,1,1,.85-1.81l-.85,1.81Z"/><polygon class="cls-2" points="250.3 238.71 253.91 236.59 254.92 238.32 251.31 240.43 249.81 239.45 250.3 238.71 250.3 238.71"/><path class="cls-2" d="M251.31,240.43a1,1,0,1,1-1-1.72l1,1.72Z"/><polygon class="cls-2" points="252.31 235.54 251.79 239.69 249.81 239.45 250.33 235.3 251.98 234.67 252.31 235.54 252.31 235.54"/><path class="cls-2" d="M250.33,235.3a1,1,0,1,1,2,.24l-2-.24Z"/><polygon class="cls-2" points="248.86 231.89 251.98 234.67 250.66 236.17 247.53 233.39 248 231.66 248.86 231.89 248.86 231.89"/><path class="cls-2" d="M247.53,233.39a1,1,0,1,1,1.33-1.5l-1.33,1.5Z"/><polygon class="cls-2" points="252.49 232.83 248.38 233.62 248 231.66 252.11 230.87 253.22 232.25 252.49 232.83 252.49 232.83"/><path class="cls-2" d="M252.11,230.87a1,1,0,0,1,.38,2l-.38-2Z"/><polygon class="cls-2" points="254.89 228.41 253.22 232.25 251.38 231.45 253.06 227.61 254.85 227.53 254.89 228.41 254.89 228.41"/><path class="cls-2" d="M253.06,227.61a1,1,0,0,1,1.32-.51,1,1,0,0,1,.51,1.31l-1.83-.8Z"/><polygon class="cls-2" points="255.12 232.16 253.1 228.5 254.85 227.53 256.88 231.2 255.9 232.67 255.12 232.16 255.12 232.16"/><path class="cls-2" d="M256.88,231.2a1,1,0,0,1-1.76,1l1.76-1Z"/><polygon class="cls-2" points="260.07 233.08 255.9 232.67 256.1 230.68 260.26 231.09 260.89 232.77 260.07 233.08 260.07 233.08"/><path class="cls-2" d="M260.26,231.09a1,1,0,0,1,.9,1.1,1,1,0,0,1-1.09.89l.19-2Z"/><polygon class="cls-2" points="256.57 234.46 259.43 231.41 260.89 232.77 258.04 235.83 256.33 235.36 256.57 234.46 256.57 234.46"/><path class="cls-2" d="M258,235.83a1,1,0,0,1-1.42,0,1,1,0,0,1,0-1.41l1.46,1.37Z"/><polygon class="cls-2" points="257.23 239.45 256.33 235.36 258.28 234.93 259.18 239.02 257.78 240.14 257.23 239.45 257.23 239.45"/><path class="cls-2" d="M259.18,239a1,1,0,1,1-1.95.43Z"/><polygon class="cls-2" points="186.01 245.75 181.07 240.9 182.47 239.47 187.41 244.33 187.01 245.99 186.01 245.75 186.01 245.75"/><path class="cls-2" d="M187.41,244.33a1,1,0,1,1-1.4,1.42l1.4-1.42Z"/><polygon class="cls-2" points="193.53 243.93 187.01 245.99 186.41 244.09 192.93 242.02 194.09 243.47 193.53 243.93 193.53 243.93"/><path class="cls-2" d="M192.93,242a1,1,0,0,1,.6,1.91l-.6-1.91Z"/><polygon class="cls-2" points="189.31 247.79 192.36 242.47 194.09 243.47 191.04 248.79 189.32 248.81 189.31 247.79 189.31 247.79"/><path class="cls-2" d="M191,248.79a1,1,0,0,1-1.36.37,1,1,0,0,1-.37-1.37l1.73,1Z"/><polygon class="cls-2" points="192.72 254.44 189.32 248.81 191.03 247.77 194.43 253.41 193.57 254.92 192.72 254.44 192.72 254.44"/><path class="cls-2" d="M194.43,253.41a1,1,0,1,1-1.71,1l1.71-1Z"/><polygon class="cls-2" points="187.21 252.88 193.58 252.92 193.57 254.92 187.2 254.88 186.36 253.34 187.21 252.88 187.21 252.88"/><path class="cls-2" d="M187.2,254.88a1,1,0,0,1-1-1,1,1,0,0,1,1-1v2Z"/><polygon class="cls-2" points="182.42 259.41 186.36 253.34 188.04 254.43 184.1 260.5 182.3 260.22 182.42 259.41 182.42 259.41"/><path class="cls-2" d="M184.1,260.5a1,1,0,0,1-1.68-1.09l1.68,1.09Z"/><polygon class="cls-2" points="182.03 251.79 184.22 259.69 182.3 260.22 180.1 252.33 181.47 251.15 182.03 251.79 182.03 251.79"/><path class="cls-2" d="M180.1,252.33a1,1,0,0,1,1.93-.53l-1.93.53Z"/><polygon class="cls-2" points="175.14 248.36 181.47 251.15 180.66 252.98 174.33 250.19 174.36 248.34 175.14 248.36 175.14 248.36"/><path class="cls-2" d="M174.33,250.19a1,1,0,0,1-.51-1.32,1,1,0,0,1,1.32-.51l-.81,1.83Z"/><polygon class="cls-2" points="181.31 247.74 175.1 250.2 174.36 248.34 180.58 245.88 181.94 246.93 181.31 247.74 181.31 247.74"/><path class="cls-2" d="M180.58,245.88a1,1,0,0,1,.73,1.86l-.73-1.86Z"/><polygon class="cls-2" points="182.76 240.31 181.94 246.93 179.95 246.69 180.78 240.06 182.47 239.47 182.76 240.31 182.76 240.31"/><path class="cls-2" d="M180.78,240.06a1,1,0,0,1,1.12-.87,1,1,0,0,1,.86,1.12Z"/><polygon class="cls-2" points="120.09 747.38 113.6 741 115 739.57 121.49 745.96 121.09 747.63 120.09 747.38 120.09 747.38"/><path class="cls-2" d="M121.49,746a1,1,0,1,1-1.4,1.42l1.4-1.42Z"/><polygon class="cls-2" points="129.67 744.9 121.09 747.63 120.49 745.72 129.07 743 130.24 744.45 129.67 744.9 129.67 744.9"/><path class="cls-2" d="M129.07,743a1,1,0,0,1,1.25.65,1,1,0,0,1-.65,1.26l-.6-1.91Z"/><polygon class="cls-2" points="124.49 750.45 128.5 743.45 130.24 744.45 126.22 751.45 124.5 751.46 124.49 750.45 124.49 750.45"/><path class="cls-2" d="M126.22,751.44a1,1,0,1,1-1.73-1l1.73,1Z"/><polygon class="cls-2" points="128.97 758.87 124.5 751.46 126.21 750.43 130.68 757.84 129.82 759.36 128.97 758.87 128.97 758.87"/><path class="cls-2" d="M130.68,757.84a1,1,0,0,1-1.71,1l1.71-1Z"/><polygon class="cls-2" points="121.45 757.3 129.83 757.36 129.82 759.36 121.44 759.3 120.6 757.76 121.45 757.3 121.45 757.3"/><path class="cls-2" d="M121.44,759.3a1,1,0,0,1-1-1,1,1,0,0,1,1-1v2Z"/><polygon class="cls-2" points="115.42 765.75 120.6 757.76 122.28 758.85 117.09 766.84 115.29 766.56 115.42 765.75 115.42 765.75"/><path class="cls-2" d="M117.09,766.84a1,1,0,0,1-1.67-1.09l1.67,1.09Z"/><polygon class="cls-2" points="114.33 755.64 117.22 766.02 115.29 766.56 112.4 756.18 113.77 755 114.33 755.64 114.33 755.64"/><path class="cls-2" d="M112.4,756.18a1,1,0,0,1,1.93-.54l-1.93.54Z"/><polygon class="cls-2" points="105.44 751.32 113.77 755 112.96 756.83 104.63 753.15 104.67 751.31 105.44 751.32 105.44 751.32"/><path class="cls-2" d="M104.63,753.15a1,1,0,0,1-.51-1.31,1,1,0,0,1,1.32-.52l-.81,1.83Z"/><polygon class="cls-2" points="113.58 749.93 105.41 753.17 104.67 751.31 112.84 748.07 114.2 749.12 113.58 749.93 113.58 749.93"/><path class="cls-2" d="M112.84,748.07a1,1,0,1,1,.74,1.86l-.74-1.86Z"/><polygon class="cls-2" points="115.29 740.41 114.2 749.12 112.22 748.88 113.31 740.16 115 739.57 115.29 740.41 115.29 740.41"/><path class="cls-2" d="M113.31,740.16a1,1,0,0,1,1.11-.86,1,1,0,0,1,.87,1.11Z"/><polygon class="cls-3" points="178.36 728.98 179.38 728.84 179.61 730.54 174.93 734.3 173.68 732.74 178.36 728.98 178.36 728.98"/><path class="cls-3" d="M179.61,730.54,178.36,729a1,1,0,0,1,1.41.15,1,1,0,0,1-.16,1.41Z"/><polygon class="cls-3" points="184.84 731.19 185.35 731.7 184.04 733.03 178.59 730.68 179.38 728.84 184.84 731.19 184.84 731.19"/><path class="cls-3" d="M184,733l.79-1.84A1,1,0,1,1,184,733Z"/><polygon class="cls-3" points="181.35 727.66 181.47 726.65 183.18 726.85 185.35 731.7 183.53 732.52 181.35 727.66 181.35 727.66"/><path class="cls-3" d="M183.18,726.85l-1.83.81a1,1,0,0,1,1.83-.81Z"/><polygon class="cls-3" points="184.89 722.08 185.78 721.69 186.49 723.28 183.07 727.85 181.47 726.65 184.89 722.08 184.89 722.08"/><path class="cls-3" d="M186.49,723.28l-1.6-1.2a1,1,0,0,1,1.6,1.2Z"/><polygon class="cls-3" points="180.09 723.16 179.29 722.63 180.27 721.17 185.78 721.69 185.59 723.68 180.09 723.16 180.09 723.16"/><path class="cls-3" d="M180.27,721.17l-.18,2a1,1,0,1,1,.18-2Z"/><polygon class="cls-3" points="176.41 717.04 176.37 716.22 178.19 716.12 181.07 721.71 179.29 722.63 176.41 717.04 176.41 717.04"/><path class="cls-3" d="M178.19,716.12l-1.78.92a1,1,0,1,1,1.78-.92Z"/><polygon class="cls-3" points="175.65 723.57 175.03 724.16 173.79 722.84 176.37 716.22 178.23 716.95 175.65 723.57 175.65 723.57"/><path class="cls-3" d="M173.79,722.84l1.86.73a1,1,0,1,1-1.86-.73Z"/><polygon class="cls-3" points="169.32 726.02 168.55 725.96 168.7 724.12 174.41 722.25 175.03 724.16 169.32 726.02 169.32 726.02"/><path class="cls-3" d="M168.7,724.12l.62,1.9a1,1,0,0,1-.62-1.9Z"/><polygon class="cls-3" points="174.62 726.85 175.16 727.71 173.7 728.62 168.55 725.96 169.47 724.18 174.62 726.85 174.62 726.85"/><path class="cls-3" d="M173.7,728.62l.92-1.78a1,1,0,0,1-.92,1.78Z"/><polygon class="cls-3" points="175.3 733.5 174.93 734.3 173.31 733.55 173.16 727.76 175.16 727.71 175.3 733.5 175.3 733.5"/><path class="cls-3" d="M173.3,733.55l2,0a1,1,0,0,1-1,1A1,1,0,0,1,173.3,733.55Z"/><polygon class="cls-3" points="445.21 756.12 448.88 761.38 447.24 762.53 443.57 757.27 444.24 755.7 445.21 756.12 445.21 756.12"/><path class="cls-3" d="M443.57,757.27a1,1,0,1,1,1.64-1.15l-1.64,1.15Z"/><polygon class="cls-3" points="438.46 756.54 444.24 755.7 444.53 757.68 438.75 758.52 437.89 756.84 438.46 756.54 438.46 756.54"/><path class="cls-3" d="M438.75,758.52a1,1,0,1,1-.28-2l.28,2Z"/><polygon class="cls-3" points="443.16 754.24 439.33 758.23 437.89 756.84 441.71 752.85 443.33 753.1 443.16 754.24 443.16 754.24"/><path class="cls-3" d="M441.71,752.85a1,1,0,1,1,1.45,1.39l-1.45-1.39Z"/><polygon class="cls-3" points="439.67 745.8 443.33 753.1 441.54 753.99 437.88 746.7 439.2 745.35 439.67 745.8 439.67 745.8"/><path class="cls-3" d="M437.88,746.7a1,1,0,0,1,1.79-.9l-1.79.9Z"/><polygon class="cls-3" points="445.12 750.35 438.35 747.16 439.2 745.35 445.98 748.54 446.09 750.28 445.12 750.35 445.12 750.35"/><path class="cls-3" d="M446,748.54a1,1,0,0,1,.47,1.33,1,1,0,0,1-1.33.48l.86-1.81Z"/><polygon class="cls-3" points="452 746.52 446.09 750.28 445.01 748.6 450.92 744.84 452.44 745.86 452 746.52 452 746.52"/><path class="cls-3" d="M450.92,744.84a1,1,0,0,1,1.38.3,1,1,0,0,1-.3,1.39l-1.08-1.69Z"/><polygon class="cls-3" points="449.43 751.38 450.48 745.51 452.44 745.86 451.4 751.73 449.86 752.38 449.43 751.38 449.43 751.38"/><path class="cls-3" d="M451.4,751.73a1,1,0,0,1-2-.35l2,.35Z"/><polygon class="cls-3" points="454.83 755.7 449.86 752.38 450.97 750.72 455.94 754.04 455.63 755.84 454.83 755.7 454.83 755.7"/><path class="cls-3" d="M455.94,754a1,1,0,0,1-1.11,1.66l1.11-1.66Z"/><polygon class="cls-3" points="449.5 755.34 455.13 753.9 455.63 755.84 450 757.28 448.79 756.02 449.5 755.34 449.5 755.34"/><path class="cls-3" d="M450,757.28a1,1,0,0,1-.5-1.94l.5,1.94Z"/><polygon class="cls-3" points="447.1 761.67 448.79 756.02 450.71 756.6 449.02 762.24 447.24 762.53 447.1 761.67 447.1 761.67"/><path class="cls-3" d="M449,762.24a1,1,0,0,1-1.25.67,1,1,0,0,1-.67-1.24Z"/><polygon class="cls-2" points="417.2 727.62 418.24 727.51 418.43 729.2 411.45 734.65 410.22 733.08 417.2 727.62 417.2 727.62"/><path class="cls-2" d="M418.43,729.2l-1.23-1.58a1,1,0,0,1,1.23,1.58Z"/><polygon class="cls-2" points="425.53 730.96 425.99 731.41 424.67 732.76 417.39 729.32 418.24 727.51 425.53 730.96 425.53 730.96"/><path class="cls-2" d="M424.67,732.76l.86-1.8a1,1,0,0,1-.86,1.8Z"/><polygon class="cls-2" points="420.77 725.5 420.94 724.35 422.56 724.6 425.99 731.41 424.21 732.31 420.77 725.5 420.77 725.5"/><path class="cls-2" d="M422.56,724.6l-1.79.9a1,1,0,1,1,1.79-.9Z"/><polygon class="cls-2" points="428.73 716.22 429.31 715.92 430.18 717.6 422.39 725.74 420.94 724.35 428.73 716.22 428.73 716.22"/><path class="cls-2" d="M430.18,717.6l-1.45-1.38a1,1,0,1,1,1.45,1.38Z"/><polygon class="cls-2" points="419.36 719.36 418.46 719.02 419.08 717.38 429.31 715.92 429.6 717.9 419.36 719.36 419.36 719.36"/><path class="cls-2" d="M419.08,717.38l.28,2a1,1,0,1,1-.28-2Z"/><polygon class="cls-2" points="412.18 711.66 411.95 710.89 413.7 710.37 419.98 717.72 418.46 719.02 412.18 711.66 412.18 711.66"/><path class="cls-2" d="M413.7,710.37l-1.52,1.29a1,1,0,0,1,.11-1.41,1,1,0,0,1,1.41.12Z"/><polygon class="cls-2" points="412.93 719.3 412.23 720.14 410.95 719.06 411.95 710.89 413.93 711.14 412.93 719.3 412.93 719.3"/><path class="cls-2" d="M411,719.06l2,.25a1,1,0,1,1-2-.25Z"/><polygon class="cls-2" points="404.33 722.51 403.52 722.4 403.76 720.59 411.65 718.23 412.23 720.14 404.33 722.51 404.33 722.51"/><path class="cls-2" d="M403.76,720.59l.57,1.92a1,1,0,0,1-1.24-.67,1,1,0,0,1,.67-1.25Z"/><polygon class="cls-2" points="411.42 724.88 411.9 725.74 410.38 726.59 403.52 722.4 404.56 720.7 411.42 724.88 411.42 724.88"/><path class="cls-2" d="M410.38,726.59l1-1.71a1,1,0,0,1-1,1.71Z"/><polygon class="cls-2" points="411.84 733.88 411.45 734.65 409.84 733.86 409.9 725.73 411.9 725.74 411.84 733.88 411.84 733.88"/><path class="cls-2" d="M409.84,733.86h2a1,1,0,1,1-2,0Z"/><polygon class="cls-2" points="196.75 814.9 200.54 816.67 199.7 818.48 195.91 816.71 195.82 814.94 196.75 814.9 196.75 814.9"/><path class="cls-2" d="M195.91,816.71a1,1,0,0,1-.48-1.33,1,1,0,0,1,1.32-.48l-.84,1.81Z"/><polygon class="cls-2" points="192.22 817.05 195.82 814.94 196.84 816.66 193.23 818.78 191.73 817.79 192.22 817.05 192.22 817.05"/><path class="cls-2" d="M193.23,818.78a1,1,0,0,1-1-1.73l1,1.73Z"/><polygon class="cls-2" points="194.23 813.89 193.71 818.04 191.73 817.79 192.25 813.64 193.9 813.02 194.23 813.89 194.23 813.89"/><path class="cls-2" d="M192.24,813.64a1,1,0,0,1,2,.25l-2-.25Z"/><polygon class="cls-2" points="190.78 810.24 193.9 813.02 192.57 814.51 189.45 811.73 189.92 810 190.78 810.24 190.78 810.24"/><path class="cls-2" d="M189.45,811.73a1,1,0,1,1,1.32-1.49l-1.32,1.49Z"/><polygon class="cls-2" points="194.41 811.18 190.3 811.97 189.92 810 194.03 809.21 195.13 810.6 194.41 811.18 194.41 811.18"/><path class="cls-2" d="M194,809.21a1,1,0,0,1,.38,2l-.38-2Z"/><polygon class="cls-2" points="196.81 806.76 195.13 810.6 193.3 809.79 194.98 805.96 196.77 805.88 196.81 806.76 196.81 806.76"/><path class="cls-2" d="M195,806a1,1,0,1,1,1.83.8L195,806Z"/><polygon class="cls-2" points="197.04 810.51 195.02 806.84 196.77 805.88 198.79 809.54 197.82 811.02 197.04 810.51 197.04 810.51"/><path class="cls-2" d="M198.79,809.54a1,1,0,0,1-1.75,1l1.75-1Z"/><polygon class="cls-2" points="201.98 811.43 197.82 811.02 198.02 809.03 202.18 809.44 202.81 811.12 201.98 811.43 201.98 811.43"/><path class="cls-2" d="M202.18,809.44a1,1,0,0,1,.9,1.09,1,1,0,0,1-1.1.9l.2-2Z"/><polygon class="cls-2" points="198.49 812.81 201.35 809.75 202.81 811.12 199.95 814.17 198.25 813.71 198.49 812.81 198.49 812.81"/><path class="cls-2" d="M200,814.17a1,1,0,0,1-1.41.05,1,1,0,0,1,0-1.41l1.46,1.36Z"/><polygon class="cls-2" points="199.14 817.79 198.25 813.71 200.2 813.28 201.1 817.36 199.7 818.48 199.14 817.79 199.14 817.79"/><path class="cls-2" d="M201.1,817.36a1,1,0,0,1-2,.43Z"/><polygon class="cls-2" points="491.23 779.66 490.26 780.08 489.59 778.51 496.74 768.27 498.38 769.41 491.23 779.66 491.23 779.66"/><path class="cls-2" d="M489.59,778.51l1.64,1.15a1,1,0,0,1-1.4.25,1,1,0,0,1-.24-1.4Z"/><polygon class="cls-2" points="479.01 778.44 478.43 778.14 479.3 776.46 490.55 778.1 490.26 780.08 479.01 778.44 479.01 778.44"/><path class="cls-2" d="M479.3,776.46l-.29,2a1,1,0,1,1,.29-2Z"/><polygon class="cls-2" points="487.33 784.53 487.5 785.67 485.88 785.91 478.43 778.14 479.88 776.76 487.33 784.53 487.33 784.53"/><path class="cls-2" d="M485.88,785.91l1.45-1.38a1,1,0,0,1,0,1.41,1,1,0,0,1-1.42,0Z"/><polygon class="cls-2" points="480.36 799.87 479.89 800.33 478.57 798.97 485.71 784.77 487.5 785.67 480.36 799.87 480.36 799.87"/><path class="cls-2" d="M478.58,799l1.78.9a1,1,0,1,1-1.78-.9Z"/><polygon class="cls-2" points="492.25 792.31 493.21 792.37 493.1 794.12 479.89 800.33 479.04 798.51 492.25 792.31 492.25 792.31"/><path class="cls-2" d="M493.1,794.12l-.85-1.81a1,1,0,1,1,.85,1.81Z"/><polygon class="cls-2" points="504.72 799.69 505.17 800.36 503.64 801.38 492.13 794.05 493.21 792.37 504.72 799.69 504.72 799.69"/><path class="cls-2" d="M503.64,801.38l1.08-1.69a1,1,0,0,1-1.08,1.69Z"/><polygon class="cls-2" points="501.16 789.28 501.59 788.27 503.13 788.93 505.17 800.36 503.2 800.71 501.16 789.28 501.16 789.28"/><path class="cls-2" d="M503.13,788.93l-2,.35a1,1,0,0,1,.81-1.16,1,1,0,0,1,1.16.81Z"/><polygon class="cls-2" points="511.26 781.81 512.07 781.67 512.38 783.47 502.7 789.93 501.59 788.27 511.26 781.81 511.26 781.81"/><path class="cls-2" d="M512.38,783.47l-1.12-1.66a1,1,0,0,1,1.12,1.66Z"/><polygon class="cls-2" points="500.6 780.8 499.89 780.12 501.09 778.87 512.07 781.67 511.57 783.61 500.6 780.8 500.6 780.8"/><path class="cls-2" d="M501.09,778.87l-.49,1.93a1,1,0,0,1,.49-1.93Z"/><polygon class="cls-2" points="496.6 769.13 496.74 768.27 498.52 768.55 501.8 779.55 499.89 780.12 496.6 769.13 496.6 769.13"/><path class="cls-2" d="M498.52,768.55l-1.92.58a1,1,0,0,1,1.92-.58Z"/><polygon class="cls-3" points="93.67 792.74 91.36 790.88 92.62 789.32 94.92 791.18 94.69 792.87 93.67 792.74 93.67 792.74"/><path class="cls-3" d="M94.92,791.18a1,1,0,0,1,.16,1.4,1,1,0,0,1-1.41.16l1.25-1.56Z"/><polygon class="cls-3" points="97.38 791.72 94.69 792.87 93.9 791.04 96.59 789.88 97.9 791.21 97.38 791.72 97.38 791.72"/><path class="cls-3" d="M96.59,789.88a1,1,0,0,1,.79,1.84l-.79-1.84Z"/><polygon class="cls-3" points="95 792.78 96.07 790.39 97.9 791.21 96.83 793.6 95.11 793.79 95 792.78 95 792.78"/><path class="cls-3" d="M96.83,793.6a1,1,0,0,1-1.83-.82l1.83.82Z"/><polygon class="cls-3" points="96.8 796.04 95.11 793.79 96.71 792.59 98.4 794.84 97.69 796.44 96.8 796.04 96.8 796.04"/><path class="cls-3" d="M98.4,794.84a1,1,0,0,1-1.6,1.2l1.6-1.2Z"/><polygon class="cls-3" points="94.79 794.7 97.51 794.45 97.69 796.44 94.98 796.69 94 795.24 94.79 794.7 94.79 794.7"/><path class="cls-3" d="M95,796.69a1,1,0,0,1-.19-2l.19,2Z"/><polygon class="cls-3" points="92.58 797.99 94 795.24 95.78 796.15 94.36 798.91 92.54 798.81 92.58 797.99 92.58 797.99"/><path class="cls-3" d="M94.36,798.91a1,1,0,0,1-1.78-.92l1.78.92Z"/><polygon class="cls-3" points="93.13 794.82 94.4 798.09 92.54 798.81 91.26 795.55 92.51 794.24 93.13 794.82 93.13 794.82"/><path class="cls-3" d="M91.26,795.55a1,1,0,1,1,1.87-.73l-1.87.73Z"/><polygon class="cls-3" points="89.69 793.32 92.51 794.24 91.89 796.14 89.07 795.22 88.92 793.38 89.69 793.32 89.69 793.32"/><path class="cls-3" d="M89.07,795.22a1,1,0,0,1,.62-1.9l-.62,1.9Z"/><polygon class="cls-3" points="92.38 793.84 89.84 795.16 88.92 793.38 91.46 792.07 92.92 792.98 92.38 793.84 92.38 793.84"/><path class="cls-3" d="M91.46,792.07a1,1,0,1,1,.92,1.77l-.92-1.77Z"/><polygon class="cls-3" points="92.99 790.13 92.92 792.98 90.92 792.93 90.99 790.08 92.62 789.32 92.99 790.13 92.99 790.13"/><path class="cls-3" d="M91,790.08a1,1,0,1,1,2,0Z"/><polygon class="cls-2" points="506.39 729.19 510.18 730.96 509.33 732.77 505.54 731 505.46 729.23 506.39 729.19 506.39 729.19"/><path class="cls-2" d="M505.54,731a1,1,0,0,1,.85-1.81l-.85,1.81Z"/><polygon class="cls-2" points="501.85 731.35 505.46 729.23 506.47 730.96 502.86 733.07 501.36 732.08 501.85 731.35 501.85 731.35"/><path class="cls-2" d="M502.86,733.07a1,1,0,0,1-1-1.73l1,1.73Z"/><polygon class="cls-2" points="503.87 728.18 503.35 732.33 501.36 732.08 501.88 727.93 503.54 727.31 503.87 728.18 503.87 728.18"/><path class="cls-2" d="M501.88,727.93a1,1,0,1,1,2,.25l-2-.25Z"/><polygon class="cls-2" points="500.41 724.53 503.54 727.31 502.21 728.8 499.08 726.02 499.56 724.29 500.41 724.53 500.41 724.53"/><path class="cls-2" d="M499.08,726a1,1,0,0,1,1.33-1.49L499.08,726Z"/><polygon class="cls-2" points="504.04 725.47 499.94 726.26 499.56 724.29 503.67 723.5 504.77 724.88 504.04 725.47 504.04 725.47"/><path class="cls-2" d="M503.67,723.5a1,1,0,1,1,.37,2l-.37-2Z"/><polygon class="cls-2" points="506.45 721.05 504.77 724.88 502.94 724.08 504.62 720.25 506.41 720.17 506.45 721.05 506.45 721.05"/><path class="cls-2" d="M504.62,720.25a1,1,0,0,1,1.31-.52,1,1,0,0,1,.52,1.32l-1.83-.8Z"/><polygon class="cls-2" points="506.68 724.8 504.66 721.13 506.41 720.17 508.43 723.83 507.46 725.31 506.68 724.8 506.68 724.8"/><path class="cls-2" d="M508.43,723.83a1,1,0,0,1-1.75,1l1.75-1Z"/><polygon class="cls-2" points="511.62 725.72 507.46 725.31 507.65 723.32 511.82 723.73 512.45 725.41 511.62 725.72 511.62 725.72"/><path class="cls-2" d="M511.82,723.73a1,1,0,0,1,.89,1.09,1,1,0,0,1-1.09.9l.2-2Z"/><polygon class="cls-2" points="508.13 727.1 510.99 724.04 512.45 725.41 509.59 728.46 507.88 728 508.13 727.1 508.13 727.1"/><path class="cls-2" d="M509.59,728.46a1,1,0,0,1-1.46-1.36l1.46,1.36Z"/><polygon class="cls-2" points="508.78 732.08 507.88 728 509.84 727.57 510.73 731.65 509.33 732.77 508.78 732.08 508.78 732.08"/><path class="cls-2" d="M510.73,731.65a1,1,0,0,1-2,.43Z"/></g></g></svg>