<svg xmlns="http://www.w3.org/2000/svg" viewBox="0 0 221.58 72.31"><defs><style>.cls-1{fill:#1aa6e0;}.cls-1,.cls-2,.cls-3,.cls-4{fill-rule:evenodd;}.cls-2,.cls-3{fill:none;stroke:#1b215d;stroke-linecap:round;stroke-linejoin:round;}.cls-2{stroke-width:2.33px;}.cls-3{stroke-width:2.33px;}.cls-4{fill:#fff;}</style></defs><g id="Слой_2" data-name="Слой 2"><g id="Слой_1-2" data-name="Слой 1"><path class="cls-1" d="M185.43,71.14H36.15a35,35,0,0,1-35-35h0a35,35,0,0,1,35-35H185.43a35,35,0,0,1,35,35h0A35,35,0,0,1,185.43,71.14Z"/><path class="cls-2" d="M153.3,71.14H36.15a35,35,0,0,1-35-35h0A35,35,0,0,1,24.81,3.05"/><path class="cls-3" d="M36.15,1.17H185.43a35,35,0,0,1,35,35h0a35,35,0,0,1-35,35"/><path class="cls-4" d="M21.67,23.08a16,16,0,0,1,6.4,1,6.45,6.45,0,0,1,3.34,3.63,20,20,0,0,1,1.08,7.4,20.06,20.06,0,0,1-1.08,7.41,6.51,6.51,0,0,1-3.34,3.63,16,16,0,0,1-6.4,1,15.9,15.9,0,0,1-6.36-1A6.54,6.54,0,0,1,12,42.54a20.06,20.06,0,0,1-1.08-7.41A20,20,0,0,1,12,27.73a6.48,6.48,0,0,1,3.34-3.63,15.9,15.9,0,0,1,6.36-1Zm2.51,6.73a2.5,2.5,0,0,0-2.51-1.33,2.5,2.5,0,0,0-2.5,1.33,14.82,14.82,0,0,0-.62,5.32,14.88,14.88,0,0,0,.62,5.33,2.49,2.49,0,0,0,2.5,1.32,2.5,2.5,0,0,0,2.51-1.32,14.88,14.88,0,0,0,.62-5.33A14.82,14.82,0,0,0,24.18,29.81Z"/><polygon class="cls-4" points="53.98 28.99 47.5 28.99 47.5 46.72 40.21 46.72 40.21 28.99 33.73 28.99 33.73 23.55 53.98 23.55 53.98 28.99"/><polygon class="cls-4" points="76.52 23.55 76.52 46.72 69.23 46.72 69.23 28.32 63.52 28.32 63.52 46.72 56.23 46.72 56.23 23.55 76.52 23.55"/><path class="cls-4" d="M80.31,46.72V23.55c2.29-.23,5.55-.34,9.81-.34,3.69,0,6.22.55,7.57,1.65s2,3.18,2,6.24-.62,5.09-1.88,6.18-3.49,1.65-6.71,1.65a31.17,31.17,0,0,1-3.53-.2v8ZM87.6,33.79H90a2.69,2.69,0,0,0,2-.54,3.23,3.23,0,0,0,.51-2.15,3.4,3.4,0,0,0-.51-2.2,2.65,2.65,0,0,0-2-.55H87.6Z"/><path class="cls-4" d="M113.9,41.72h-6.35l-1.18,5H99l6-21.29a2.52,2.52,0,0,1,.91-1.36,2.43,2.43,0,0,1,1.54-.52H114a2.46,2.46,0,0,1,1.55.52,2.51,2.51,0,0,1,.9,1.36l6,21.29h-7.42l-1.17-5Zm-1.18-5.11-1.14-5c-.2-1.05-.34-1.94-.4-2.65h-.91c-.13,1.05-.27,1.93-.4,2.65l-1.15,5Z"/><path class="cls-4" d="M138.58,34.6v.2a5.17,5.17,0,0,1,3.85,1.74,7.17,7.17,0,0,1,1.15,4.4q0,3.47-1.93,4.75c-1.28.87-3.44,1.3-6.46,1.3q-7.35,0-11.12-.27V23.55c2.29-.18,5.62-.27,10-.27q4.93,0,6.83,1.26t1.9,4.78a6.14,6.14,0,0,1-1,3.8,4.4,4.4,0,0,1-3.24,1.48Zm-7.39-2h2.59a2.33,2.33,0,0,0,1.68-.44,2.74,2.74,0,0,0,.4-1.78,2.51,2.51,0,0,0-.42-1.74,2.6,2.6,0,0,0-1.73-.41h-2.52v4.37Zm0,9.47h2.69a2.79,2.79,0,0,0,2-.5,3.24,3.24,0,0,0,.47-2.08,3.32,3.32,0,0,0-.47-2.12,2.8,2.8,0,0,0-2-.5h-2.66Z"/><path class="cls-4" d="M167.23,46.72h-6.92V36.07a22.51,22.51,0,0,1,.37-3.59h-.24A18.59,18.59,0,0,1,159,36l-5.67,10.68h-7V23.55h6.91V33.82a24.92,24.92,0,0,1-.37,3.76h.24A20.73,20.73,0,0,1,154.67,34l5.64-10.47h6.92Z"/><polygon class="cls-4" points="189.73 28.99 183.25 28.99 183.25 46.72 175.96 46.72 175.96 28.99 169.48 28.99 169.48 23.55 189.73 23.55 189.73 28.99"/><path class="cls-4" d="M199.27,31.51h2q5.34,0,7.35,1.62c1.34,1.09,2,3.12,2,6.1s-.63,5-1.87,6.08S205.51,47,202.63,47q-6.93,0-10.45-.27H192V23.55h7.29v8Zm0,10.44h2c.87,0,1.43-.19,1.69-.57A4.89,4.89,0,0,0,203.4,39a5.09,5.09,0,0,0-.39-2.45c-.26-.4-.82-.6-1.69-.6h-2Z"/></g></g></svg>